<svg width="605" height="136" viewBox="0 0 605 136" fill="none" xmlns="http://www.w3.org/2000/svg"><path d="M95.7667 0L58.0454 65.3409L54.7122 71.0448L29.6527 114.504L25.2628 122.096L28.4536 127.718L32.7826 135.188H158.69L166.291 122.096L95.7667 0ZM40.648 121.953L65.7075 78.5349L95.7667 26.3881L150.906 121.791L40.648 121.953Z" fill="white"/><path d="M58.0454 65.3409L50.3629 52.1266L32.8436 21.9021L0 78.5349L17.6006 108.983L25.2627 122.197L28.4536 127.718L32.7826 135.188L44.7738 114.504L65.7075 78.5349L58.0454 65.3409ZM25.2221 95.6669L15.304 78.5349L32.8436 48.2902L42.6804 65.3409L50.3223 78.5349L32.8436 108.8L25.2221 95.6669Z" fill="white"/><path d="M141.171 52.1266L158.69 21.9021L191.534 78.5349L173.953 108.983L166.271 122.197L163.019 127.82L158.69 135.188L154.463 127.718L146.8 114.504L125.826 78.5349L141.171 52.1266ZM176.23 78.5349L158.69 48.2902L141.15 78.5349L158.69 108.8L176.23 78.5349Z" fill="white"/><path d="M231.389 22.6735H263.907C269.373 22.5765 274.793 23.6855 279.78 25.9212C284.236 27.9192 287.989 31.2074 290.552 35.36C293.191 39.881 294.515 45.048 294.373 50.2794C294.52 55.6967 293.04 61.034 290.125 65.6048C287.332 69.8847 283.288 73.2016 278.541 75.1045L298.641 110.221H280.471L262.363 77.926H247.303V110.18H231.328L231.389 22.6735ZM264.212 63.7779C266.096 63.8778 267.98 63.6025 269.756 62.9683C271.532 62.3341 273.164 61.3535 274.557 60.0836C275.858 58.8142 276.877 57.2848 277.546 55.5953C278.215 53.9059 278.519 52.0944 278.439 50.2794C278.516 48.4647 278.211 46.654 277.542 44.9649C276.873 43.2759 275.856 41.7462 274.557 40.4752C273.164 39.2053 271.532 38.2247 269.756 37.5905C267.98 36.9563 266.096 36.6811 264.212 36.7809H247.384V63.7779H264.212Z" fill="white"/><path d="M318.518 107.237C313.419 104.418 309.172 100.281 306.222 95.261C303.188 90.1017 301.621 84.2134 301.69 78.2305C301.62 72.2554 303.164 66.3721 306.161 61.2001C309.066 56.1798 313.281 52.0408 318.355 49.2239C323.602 46.3037 329.523 44.8061 335.529 44.8801C341.476 44.8163 347.335 46.3143 352.52 49.2239C357.66 52.1144 361.926 56.3323 364.873 61.4357C367.819 66.539 369.337 72.3399 369.267 78.2305C369.37 84.2572 367.816 90.1966 364.775 95.403C361.857 100.398 357.645 104.514 352.581 107.318C347.366 110.148 341.525 111.631 335.59 111.631C329.655 111.631 323.814 110.148 318.599 107.318L318.518 107.237ZM322.684 92.0335C324.314 93.8103 326.309 95.2131 328.534 96.1452C330.758 97.0774 333.159 97.5167 335.57 97.4329C338.758 97.4767 341.894 96.6181 344.614 94.9565C347.298 93.2821 349.476 90.9106 350.914 88.0956C352.467 85.0198 353.248 81.6135 353.191 78.1696C353.238 74.7656 352.457 71.401 350.914 68.3654C349.472 65.5368 347.296 63.1464 344.614 61.4436C341.907 59.7449 338.766 58.8638 335.57 58.9063C332.308 58.8557 329.1 59.7359 326.322 61.4436C323.625 63.1147 321.434 65.4861 319.981 68.3045C318.419 71.3555 317.63 74.743 317.685 78.1696C317.492 83.263 319.284 88.2327 322.684 92.0335Z" fill="white"/><path d="M398.818 109.226L373.962 46.2806H390.526L407.11 90.3284L423.573 46.2806H440.279L405.728 133.666H389.144L398.818 109.226Z" fill="white"/><path d="M449.669 106.648C447.733 105.033 446.192 102.997 445.163 100.697C444.135 98.396 443.646 95.8911 443.734 93.3731C443.661 90.8774 444.116 88.3944 445.068 86.086C446.021 83.7775 447.45 81.6957 449.262 79.9761C452.941 76.4442 458.469 74.1098 465.847 72.9325L484.89 69.8674V67.8376C484.951 66.4848 484.692 65.1367 484.134 63.9025C483.576 62.6682 482.735 61.5825 481.679 60.7331C479.257 58.8412 476.234 57.8829 473.163 58.0334C470.039 57.9777 466.976 58.9004 464.404 60.6722C461.888 62.3942 459.942 64.8249 458.815 67.6549L446.234 61.5653C448.187 56.4697 451.841 52.2036 456.579 49.4877C461.759 46.38 467.711 44.7903 473.753 44.9003C478.512 44.8096 483.229 45.795 487.553 47.7827C491.405 49.5305 494.672 52.3493 496.963 55.9021C499.209 59.4223 500.374 63.5218 500.316 67.6955V110.322H485.744V103.36C483.196 106.076 480.088 108.208 476.636 109.61C473.184 111.012 469.468 111.649 465.745 111.479C459.983 111.82 454.286 110.108 449.669 106.648ZM462.209 97.8997C464.025 99.2859 466.265 100.003 468.55 99.9295C470.715 100.004 472.873 99.6412 474.895 98.8634C476.917 98.0857 478.761 96.9087 480.317 95.403C481.81 93.9458 482.987 92.1971 483.774 90.2658C484.561 88.3346 484.941 86.2622 484.89 84.1779V81.5188L468.794 84.2185C466.282 84.6042 463.921 85.6635 461.965 87.2836C461.22 87.979 460.635 88.827 460.249 89.7695C459.863 90.7119 459.686 91.7266 459.729 92.7439C459.705 93.7378 459.918 94.7232 460.349 95.6194C460.78 96.5156 461.417 97.297 462.209 97.8997Z" fill="white"/><path d="M514.523 21.2728H529.928V110.18H514.523V21.2728Z" fill="white"/><path d="M557.386 107.115C552.462 104.195 548.434 99.9827 545.74 94.9361C542.967 89.7372 541.568 83.9173 541.676 78.0274C541.558 72.1171 542.957 66.2751 545.74 61.0579C548.403 56.1372 552.341 52.0218 557.142 49.1426C562.052 46.2117 567.682 44.7073 573.401 44.7988C579.239 44.6458 585.007 46.0844 590.087 48.96C594.694 51.631 598.434 55.5701 600.859 60.3068C603.346 65.1753 604.615 70.573 604.558 76.0382C604.62 78.2201 604.339 80.3983 603.725 82.4931H557.549C557.806 86.788 559.732 90.8128 562.918 93.7096C566.103 96.6065 570.295 98.1464 574.6 98.0011C577.703 98.087 580.771 97.3368 583.482 95.8292C585.966 94.3615 588.015 92.2596 589.417 89.7396L601.896 95.8292C599.802 100.654 596.154 104.641 591.53 107.156C586.359 110.151 580.476 111.701 574.499 111.642C568.485 111.742 562.561 110.176 557.386 107.115ZM588.014 70.8214C587.746 67.17 586.105 63.755 583.421 61.2608C580.653 58.7415 577.001 57.414 573.259 57.5665C569.618 57.4712 566.065 58.6971 563.26 61.0173C560.38 63.5651 558.47 67.0286 557.854 70.8214H588.014Z" fill="white"/></svg>