<svg width="32" height="32" viewBox="0 0 32 32" fill="none" xmlns="http://www.w3.org/2000/svg">
<path d="M20.5131 29.9687H9.09374C4.34375 29.9687 2.01314 26.1101 2.0625 23C2.0625 19.5937 6.90625 7.12497 6.90625 7.12497C7.71875 5.09372 8.42131 3.42992 10.8125 3.46868C12.6563 3.46868 16.2031 4.9687 16.2031 7.96869C16.2031 9.5937 15.0625 10.0781 15.0625 10.0781C15.0625 11.0468 14.2656 11.9687 13.4219 11.9687H9.6875C9.6875 11.9687 12.8252 18.2666 13.0938 18.7656C13.3623 19.2645 13.625 18.7656 13.625 18.7656C14.6875 15.5312 18.25 12.994 21.4063 12.994C25.8947 12.9929 29.9994 17.015 30 20.7682C30 20.7685 30 20.7679 30 20.7682C29.9995 25.5319 26.8432 29.9687 20.5131 29.9687Z" fill="#FFC83D"/>
<path d="M10.25 6.43747L11.5469 8.08591H13.6406C13.1719 7.44531 11.525 6.21247 10.25 6.43747Z" fill="#D67D00"/>
<path d="M15.0764 10.0718C15.0674 10.0761 15.0625 10.0781 15.0625 10.0781C15.0625 11.0469 14.2656 11.9688 13.4219 11.9688H9.83165C9.83165 11.9688 10.2492 12.9355 10.771 14.1415C7.96197 13.9081 7 10.9922 7 10.9922H7.81449C7.82508 10.9972 7.83577 11.0024 7.84655 11.0078H13.1562C13.6875 11.0078 14.8438 10.5312 14.0156 9C14.3051 9 14.9137 9.43857 15.0764 10.0718Z" fill="#D67D00"/>
<path d="M14.6514 18.7018C14.4646 18.394 14.1945 18.1846 13.8945 18.0737C13.7922 18.3002 13.7021 18.5311 13.625 18.7656C13.625 18.7656 13.5309 18.9443 13.3978 18.9809C13.5531 18.9896 13.7049 19.0696 13.7966 19.2206L16.7601 24.1032C16.9034 24.3392 17.2109 24.4144 17.4469 24.2711C17.683 24.1279 17.7582 23.8203 17.6149 23.5843L14.6514 18.7018Z" fill="#D67D00"/>
<path d="M12.0916 18.6939C12.2604 18.4197 12.4952 18.2246 12.758 18.1084C12.9292 18.4473 13.0498 18.684 13.0938 18.7656C13.1693 18.906 13.2445 18.9674 13.3134 18.9831C13.1687 18.9991 13.0299 19.0773 12.9433 19.218L10.0508 23.9183C9.90612 24.1534 9.59814 24.2268 9.36296 24.0821C9.12778 23.9373 9.05446 23.6294 9.19918 23.3942L12.0916 18.6939Z" fill="#D67D00"/>
</svg>
