<svg width="100%" height="100%" viewBox="0 0 32 32" fill="none" xmlns="http://www.w3.org/2000/svg">
  <path d="M4 25.942C4 28.1739 5.76327 30 7.91837 30H24.0816C26.2367 30 28 28.0725 28 25.8406V6.4297C28 5.1297 26.4099 4.5297 25.5155 5.4297L20.9736 10H11.1617L6.5 5.4297C5.6 4.5297 4 5.1297 4 6.4297V25.942Z" fill="#FFB02E" />
  <path d="M9.00005 10.9265L6.20005 13.5265C5.70005 14.0265 4.80005 13.6265 4.80005 12.9265V7.72648C4.80005 7.12648 5.70005 6.72648 6.20005 7.22648L9.00005 9.82648C9.30005 10.1265 9.30005 10.6265 9.00005 10.9265Z" fill="#FF822D" />
  <path d="M23.05 10.9265L25.85 13.5265C26.35 14.0265 27.25 13.6265 27.25 12.9265V7.72648C27.25 7.12648 26.35 6.72648 25.85 7.22648L23.05 9.82648C22.75 10.1265 22.75 10.6265 23.05 10.9265Z" fill="#FF822D" />
  <path d="M2.72372 20.0528C2.47673 19.9293 2.17639 20.0294 2.0529 20.2764C1.9294 20.5234 2.02951 20.8237 2.2765 20.9472L6.2765 22.9472C6.52349 23.0707 6.82383 22.9706 6.94732 22.7236C7.07082 22.4766 6.97071 22.1763 6.72372 22.0528L2.72372 20.0528Z" fill="#FF6723" />
  <path d="M2.72372 26.9472C2.47673 27.0707 2.17639 26.9706 2.0529 26.7236C1.9294 26.4766 2.02951 26.1763 2.2765 26.0528L6.2765 24.0528C6.52349 23.9293 6.82383 24.0294 6.94732 24.2764C7.07082 24.5234 6.97071 24.8237 6.72372 24.9472L2.72372 26.9472Z" fill="#FF6723" />
  <path d="M29.9473 20.2764C29.8238 20.0294 29.5235 19.9293 29.2765 20.0528L25.2765 22.0528C25.0295 22.1763 24.9294 22.4766 25.0529 22.7236C25.1764 22.9706 25.4767 23.0707 25.7237 22.9472L29.7237 20.9472C29.9707 20.8237 30.0708 20.5234 29.9473 20.2764Z" fill="#FF6723" />
  <path d="M29.2765 26.9472C29.5235 27.0707 29.8238 26.9706 29.9473 26.7236C30.0708 26.4766 29.9707 26.1763 29.7237 26.0528L25.7237 24.0528C25.4767 23.9293 25.1764 24.0294 25.0529 24.2764C24.9294 24.5234 25.0295 24.8237 25.2765 24.9472L29.2765 26.9472Z" fill="#FF6723" />
  <path d="M12 24V30L7.91837 30C5.76327 30 4 28.1739 4 25.942V19.9996C4.83566 19.3719 5.87439 19 7 19C9.76142 19 12 21.2386 12 24Z" fill="#FF822D" />
  <path d="M24.0816 30L20 30V24C20 21.2386 22.2386 19 25 19C26.1256 19 27.1643 19.3719 28 19.9996V25.8406C28 28.0725 26.2367 30 24.0816 30Z" fill="#FF822D" />
  <path d="M17.0429 19H14.9571C14.5117 19 14.2886 19.5386 14.6036 19.8536L15.6465 20.8964C15.8417 21.0917 16.1583 21.0917 16.3536 20.8964L17.3965 19.8536C17.7114 19.5386 17.4884 19 17.0429 19Z" fill="#F70A8D" />
  <path d="M7 20C4.79086 20 3 21.7909 3 24V30H11V24C11 21.7909 9.20914 20 7 20Z" fill="#FFB02E" />
  <path d="M25 20C22.7909 20 21 21.7909 21 24V30H29V24C29 21.7909 27.2091 20 25 20Z" fill="#FFB02E" />
  <path d="M14 24C14 22.8954 14.8954 22 16 22C17.1046 22 18 22.8954 18 24V25C18 26.1046 17.1046 27 16 27C14.8954 27 14 26.1046 14 25V24Z" fill="#BB1D80" />
  <path d="M11.5 19C13.433 19 15 17.433 15 15.5C15 13.567 13.433 12 11.5 12C9.567 12 8 13.567 8 15.5C8 17.433 9.567 19 11.5 19Z" fill="white" />
  <path d="M20.5 19C22.433 19 24 17.433 24 15.5C24 13.567 22.433 12 20.5 12C18.567 12 17 13.567 17 15.5C17 17.433 18.567 19 20.5 19Z" fill="white" />
  <path d="M5 20.5351C5.30951 20.356 5.64523 20.2173 6 20.126V23.5C6 23.7761 5.77614 24 5.5 24C5.22386 24 5 23.7761 5 23.5V20.5351Z" fill="#FF6723" />
  <path d="M8 20.126C8.35477 20.2173 8.69049 20.356 9 20.5351V23.5C9 23.7761 8.77614 24 8.5 24C8.22386 24 8 23.7761 8 23.5V20.126Z" fill="#FF6723" />
  <path d="M23 20.5351C23.3095 20.356 23.6452 20.2173 24 20.126V23.5C24 23.7761 23.7761 24 23.5 24C23.2239 24 23 23.7761 23 23.5V20.5351Z" fill="#FF6723" />
  <path d="M26 20.126C26.3548 20.2173 26.6905 20.356 27 20.5351V23.5C27 23.7761 26.7761 24 26.5 24C26.2239 24 26 23.7761 26 23.5V20.126Z" fill="#FF6723" />
</svg>