<svg width="32" height="32" viewBox="0 0 32 32" fill="none" xmlns="http://www.w3.org/2000/svg">
<path d="M2 10C2 8.3431 3.34315 7 5 7H27C28.6569 7 30 8.3431 30 10V21.25C30 22.9069 28.6569 24.25 27 24.25H5C3.34315 24.25 2 22.9069 2 21.25V10Z" fill="#CDC4D6"/>
<path d="M4 9.5C4 9.2239 4.22386 9 4.5 9H5.5C5.77614 9 6 9.2239 6 9.5V10C6 10.2761 5.77614 10.5 5.5 10.5H4.5C4.22386 10.5 4 10.2761 4 10V9.5ZM4 13.5C4 13.2239 4.22386 13 4.5 13H5.5C5.77614 13 6 13.2239 6 13.5V14.5C6 14.7761 5.77614 15 5.5 15H4.5C4.22386 15 4 14.7761 4 14.5V13.5ZM6.5 16C6.22386 16 6 16.2239 6 16.5V17.5C6 17.7761 6.22386 18 6.5 18H7.5C7.77614 18 8 17.7761 8 17.5V16.5C8 16.2239 7.77614 16 7.5 16H6.5ZM7.5 19C7.22386 19 7 19.2239 7 19.5V20.5C7 20.7761 7.22386 21 7.5 21H8.5C8.77614 21 9 20.7761 9 20.5V19.5C9 19.2239 8.77614 19 8.5 19H7.5ZM23.5 19C23.2239 19 23 19.2239 23 19.5V20.5C23 20.7761 23.2239 21 23.5 21H24.5C24.7761 21 25 20.7761 25 20.5V19.5C25 19.2239 24.7761 19 24.5 19H23.5ZM10 19.5C10 19.2239 10.2239 19 10.5 19H21.5C21.7761 19 22 19.2239 22 19.5V20.5C22 20.7761 21.7761 21 21.5 21H10.5C10.2239 21 10 20.7761 10 20.5V19.5ZM9 16.5C9 16.2239 9.22386 16 9.5 16H10.5C10.7761 16 11 16.2239 11 16.5V17.5C11 17.7761 10.7761 18 10.5 18H9.5C9.22386 18 9 17.7761 9 17.5V16.5ZM12.5 16C12.2239 16 12 16.2239 12 16.5V17.5C12 17.7761 12.2239 18 12.5 18H13.5C13.7761 18 14 17.7761 14 17.5V16.5C14 16.2239 13.7761 16 13.5 16H12.5ZM15 16.5C15 16.2239 15.2239 16 15.5 16H16.5C16.7761 16 17 16.2239 17 16.5V17.5C17 17.7761 16.7761 18 16.5 18H15.5C15.2239 18 15 17.7761 15 17.5V16.5ZM18.5 16C18.2239 16 18 16.2239 18 16.5V17.5C18 17.7761 18.2239 18 18.5 18H19.5C19.7761 18 20 17.7761 20 17.5V16.5C20 16.2239 19.7761 16 19.5 16H18.5ZM21 16.5C21 16.2239 21.2239 16 21.5 16H22.5C22.7761 16 23 16.2239 23 16.5V17.5C23 17.7761 22.7761 18 22.5 18H21.5C21.2239 18 21 17.7761 21 17.5V16.5ZM24.5 16C24.2239 16 24 16.2239 24 16.5V17.5C24 17.7761 24.2239 18 24.5 18H25.5C25.7761 18 26 17.7761 26 17.5V16.5C26 16.2239 25.7761 16 25.5 16H24.5ZM7.5 13C7.22386 13 7 13.2239 7 13.5V14.5C7 14.7761 7.22386 15 7.5 15H8.5C8.77614 15 9 14.7761 9 14.5V13.5C9 13.2239 8.77614 13 8.5 13H7.5ZM10 13.5C10 13.2239 10.2239 13 10.5 13H11.5C11.7761 13 12 13.2239 12 13.5V14.5C12 14.7761 11.7761 15 11.5 15H10.5C10.2239 15 10 14.7761 10 14.5V13.5ZM13.5 13C13.2239 13 13 13.2239 13 13.5V14.5C13 14.7761 13.2239 15 13.5 15H14.5C14.7761 15 15 14.7761 15 14.5V13.5C15 13.2239 14.7761 13 14.5 13H13.5ZM16 13.5C16 13.2239 16.2239 13 16.5 13H17.5C17.7761 13 18 13.2239 18 13.5V14.5C18 14.7761 17.7761 15 17.5 15H16.5C16.2239 15 16 14.7761 16 14.5V13.5ZM19.5 13C19.2239 13 19 13.2239 19 13.5V14.5C19 14.7761 19.2239 15 19.5 15H20.5C20.7761 15 21 14.7761 21 14.5V13.5C21 13.2239 20.7761 13 20.5 13H19.5ZM22 13.5C22 13.2239 22.2239 13 22.5 13H23.5C23.7761 13 24 13.2239 24 13.5V14.5C24 14.7761 23.7761 15 23.5 15H22.5C22.2239 15 22 14.7761 22 14.5V13.5ZM25.5 13C25.2239 13 25 13.2239 25 13.5V14.5C25 14.7761 25.2239 15 25.5 15H26.5C26.7761 15 27 14.7761 27 14.5V13.5C27 13.2239 26.7761 13 26.5 13H25.5ZM10.5 9C10.2239 9 10 9.2239 10 9.5V10C10 10.2761 10.2239 10.5 10.5 10.5H11.5C11.7761 10.5 12 10.2761 12 10V9.5C12 9.2239 11.7761 9 11.5 9H10.5ZM13 9.5C13 9.2239 13.2239 9 13.5 9H14.5C14.7761 9 15 9.2239 15 9.5V10C15 10.2761 14.7761 10.5 14.5 10.5H13.5C13.2239 10.5 13 10.2761 13 10V9.5ZM16.5 9C16.2239 9 16 9.2239 16 9.5V10C16 10.2761 16.2239 10.5 16.5 10.5H17.5C17.7761 10.5 18 10.2761 18 10V9.5C18 9.2239 17.7761 9 17.5 9H16.5ZM19 9.5C19 9.2239 19.2239 9 19.5 9H20.5C20.7761 9 21 9.2239 21 9.5V10C21 10.2761 20.7761 10.5 20.5 10.5H19.5C19.2239 10.5 19 10.2761 19 10V9.5ZM22.5 9C22.2239 9 22 9.2239 22 9.5V10C22 10.2761 22.2239 10.5 22.5 10.5H23.5C23.7761 10.5 24 10.2761 24 10V9.5C24 9.2239 23.7761 9 23.5 9H22.5ZM25 9.5C25 9.2239 25.2239 9 25.5 9H26.5C26.7761 9 27 9.2239 27 9.5V10C27 10.2761 26.7761 10.5 26.5 10.5H25.5C25.2239 10.5 25 10.2761 25 10V9.5ZM2 23V21C2 22.6569 3.34315 24 5 24H27C28.6569 24 30 22.6569 30 21V23C30 24.6569 28.6569 26 27 26H5C3.34315 26 2 24.6569 2 23Z" fill="#998EA4"/>
</svg>
