<svg width="32" height="32" viewBox="0 0 32 32" fill="none" xmlns="http://www.w3.org/2000/svg">
<path d="M16.81 30.04V23.4L14.5 22L11.83 23.4V30.04H16.81Z" fill="#7D4533"/>
<path d="M21.65 7H7.84L11 23.61H15.81H21.65H25.99C26.8184 23.61 27.49 22.9384 27.49 22.11V12.84C27.48 9.61 24.87 7 21.65 7Z" fill="#5092FF"/>
<path d="M7.84 7C4.61 7 2 9.61 2 12.84V22.11C2 22.9384 2.67157 23.61 3.5 23.61H12.17C12.9984 23.61 13.67 22.9384 13.67 22.11V12.84C13.67 9.61 11.06 7 7.84 7Z" fill="#3F5FFF"/>
<path d="M7.84 8C5.16228 8 3 10.1623 3 12.84V22.11C3 22.3861 3.22386 22.6 3.5 22.6H4.63253L12.5232 11.6492C11.9942 9.54876 10.0974 8 7.84 8Z" fill="#321B41"/>
<path d="M24.1315 2L18.8685 2C18.3929 2 18 2.36893 18 2.81553L18 5.18447C18 5.63107 18.3929 6 18.8685 6L24.1315 6C24.6071 6 25 5.63107 25 5.18447L25 2.81553C25 2.36893 24.6071 2 24.1315 2Z" fill="#F92F60"/>
<path d="M17.21 2.58C17.21 1.91 17.75 1.37 18.42 1.37C19.09 1.37 19.63 1.91 19.63 2.58L19.63 11.4838C20.3533 11.9022 20.84 12.6843 20.84 13.58C20.84 14.9166 19.7565 16 18.42 16C17.0835 16 16 14.9166 16 13.58C16 12.6843 16.4866 11.9022 17.21 11.4838L17.21 2.58Z" fill="#D3D3D3"/>
<path d="M12.6071 12.0555H4.57714C4.25714 12.0555 4 12.303 4 12.611V21.5C4 21.808 4.25714 22.0555 4.57714 22.0555H12.67V12.84C12.67 12.5728 12.6485 12.3108 12.6071 12.0555Z" fill="#E1D8EC"/>
<path d="M12.6229 12.16H4.57714C4.25714 12.16 4 12.4075 4 12.7155V13.2875L11.3086 17.77C11.7243 18.0242 12.2505 18.0285 12.67 17.7829V12.84C12.67 12.6091 12.6539 12.3821 12.6229 12.16Z" fill="#CDC4D6"/>
<path d="M12.5131 11.61H4.57714C4.25714 11.61 4 11.8575 4 12.1655V12.7375L11.3086 17.22C11.7243 17.4741 12.2505 17.4784 12.67 17.2328V12.84C12.67 12.4148 12.6155 12.0026 12.5131 11.61Z" fill="#F3EEF8"/>
<path d="M12.67 17.7829C12.2505 18.0285 11.7243 18.0242 11.3086 17.7701L10.6678 17.3771L4 21.4661V22.0436C4 22.3461 4.25714 22.5936 4.57714 22.5991H12.2743C12.5004 22.5511 12.67 22.3504 12.67 22.11V17.7829Z" fill="#F3EEF8"/>
</svg>
