<svg width="32" height="32" viewBox="0 0 32 32" fill="none" xmlns="http://www.w3.org/2000/svg">
<path d="M7.31133 17.6539C7.42658 18.0654 7.50535 18.3466 6.71874 18.25C6.27534 18.1955 5.881 18.1308 5.56463 18.0788C5.24553 18.0264 5.00576 17.987 4.87499 17.9844C4.70832 17.9896 4.46249 18.2844 4.74999 18.9844C5.03749 19.6844 5.38541 20.3958 5.57811 20.7031L9.17187 19.8125L7.56249 17.3594L7.26561 17.4844C7.28021 17.5428 7.29609 17.5995 7.31133 17.6539Z" fill="#580A7C"/>
<path d="M24.7125 17.6539C24.5973 18.0654 24.5185 18.3466 25.3051 18.25C25.7485 18.1955 26.1428 18.1308 26.4592 18.0788C26.7783 18.0264 27.0181 17.987 27.1488 17.9844C27.3155 17.9896 27.5613 18.2844 27.2738 18.9844C26.9863 19.6844 26.6384 20.3958 26.4457 20.7031L22.852 19.8125L24.4613 17.3594L24.7582 17.4844C24.7436 17.5428 24.7277 17.5995 24.7125 17.6539Z" fill="#580A7C"/>
<path d="M8.17722 18.841C8.33838 19.1786 8.54222 19.6056 7.375 19.875L2.76562 20.9219C2.00783 21.1249 2.11991 21.4306 2.24244 21.765C2.2614 21.8167 2.2806 21.8691 2.29687 21.9219C2.74007 23.3599 6 25.8125 8.15625 25.5L12.3125 21.7812L8.42188 18.5938L8.15625 18.7969C8.16307 18.8114 8.17011 18.8261 8.17722 18.841Z" fill="#7D0AB3"/>
<path d="M23.977 18.841C23.8159 19.1786 23.612 19.6056 24.7792 19.875L29.3886 20.9219C30.1464 21.1249 30.0343 21.4306 29.9118 21.765C29.8928 21.8167 29.8736 21.8691 29.8574 21.9219C29.4142 23.3599 26.1542 25.8125 23.998 25.5L19.8417 21.7812L23.7324 18.5938L23.998 18.7969C23.9912 18.8114 23.9841 18.8261 23.977 18.841Z" fill="#7D0AB3"/>
<path d="M20.9627 20.7275L26.988 22.1259C27.1456 22.1176 27.4162 22.2503 27.238 22.8476C27.0152 23.5942 26.4704 25.1452 22.9577 25.1347C20.1475 25.1264 19.7181 22.5055 19.8547 21.196L20.9627 20.7275Z" fill="#9B2ECE"/>
<path d="M11.25 21.2812L5.12499 22.0937C4.96874 22.0728 4.68749 22.1749 4.81249 22.7499C4.96874 23.4687 5.37499 24.9687 8.87499 25.2499C11.675 25.4749 12.3333 23.052 12.3125 21.8124L11.25 21.2812Z" fill="#9B2ECE"/>
<path d="M10.9531 21.3594C11.1198 21.5521 11.3 22.0656 10.6875 22.5781C10.075 23.0906 6.94271 25.8542 5.45313 27.1719C5.16476 27.427 5.28134 27.5969 5.49493 27.9083C5.5117 27.9328 5.52906 27.9581 5.54688 27.9844C6.54939 29.4643 11.6719 31.9219 15.6875 26.7656C15.8022 26.6183 15.8926 26.5183 16 26.5163V26.5281C16.0118 26.524 16.0233 26.521 16.0345 26.519C16.0458 26.521 16.0573 26.524 16.0691 26.5281V26.5163C16.1765 26.5183 16.2669 26.6183 16.3816 26.7656C20.3972 31.9219 25.5197 29.4643 26.5222 27.9844C26.54 27.9581 26.5574 27.9328 26.5741 27.9083C26.7877 27.5969 26.9043 27.427 26.6159 27.1719C25.1264 25.8542 21.9941 23.0906 21.3816 22.5781C20.7691 22.0656 20.9493 21.5521 21.1159 21.3594L20.0144 20.9766L16.0345 22.2623L12.0547 20.9766L10.9531 21.3594Z" fill="#7D0AB3"/>
<path d="M6.375 12C6.375 7.02944 10.4044 3 15.375 3H17C21.9706 3 26 7.02944 26 12V13.625C26 18.5956 21.9706 22.625 17 22.625H15.375C10.4044 22.625 6.375 18.5956 6.375 13.625V12Z" fill="#952CC6"/>
<path d="M8.71875 15.25C9.66799 15.25 10.4375 14.4805 10.4375 13.5312C10.4375 12.582 9.66799 11.8125 8.71875 11.8125C7.76951 11.8125 7 12.582 7 13.5312C7 14.4805 7.76951 15.25 8.71875 15.25Z" fill="#1C1C1C"/>
<path d="M23.7187 15.25C24.6679 15.25 25.4374 14.4805 25.4374 13.5312C25.4374 12.582 24.6679 11.8125 23.7187 11.8125C22.7695 11.8125 22 12.582 22 13.5312C22 14.4805 22.7695 15.25 23.7187 15.25Z" fill="#1C1C1C"/>
</svg>
