<svg width="32" height="32" viewBox="0 0 32 32" fill="none" xmlns="http://www.w3.org/2000/svg">
<path d="M13.7434 8H17.2495C17.6569 8 18 7.72792 18 7.38563V4.61217C18 4.07678 17.2066 3.79593 16.7348 4.17333L13.2288 6.95556C12.7463 7.33297 13.0787 8 13.7434 8Z" fill="#86D72F"/>
<path d="M21.4384 29H10.5674C4.85109 29 0.739367 23.4263 2.35397 17.8627L3.69781 13.2349C4.77087 9.54276 8.11039 7 11.9112 7H20.1447C23.9756 7 27.3453 9.58345 28.3882 13.3366L29.6719 17.9644C31.2163 23.5076 27.1146 29 21.4384 29Z" fill="#FF8257"/>
<path d="M9.41288 15H11.585C11.9381 15 12.13 14.5663 11.8997 14.2852L10.7868 13.1527C10.6179 12.9438 10.3186 12.9519 10.1497 13.1607L9.09052 14.2932C8.87561 14.5743 9.06749 15 9.41288 15Z" fill="#321B41"/>
<path d="M20.4129 15H22.585C22.9381 15 23.13 14.5663 22.8997 14.2852L21.7868 13.1527C21.6179 12.9438 21.3186 12.9519 21.1497 13.1607L20.0905 14.2932C19.8756 14.5743 20.0675 15 20.4129 15Z" fill="#321B41"/>
<path d="M21.3829 17H24C24 20.3657 21.4523 23.1944 18.0025 24C17.6059 23.4898 16.8823 22.7737 15.9603 22.7737C14.8699 22.7737 14.2057 23.4629 13.8686 23.9642C10.4882 23.1228 8 20.321 8 17H10.6072C11.0235 17.5013 11.7175 18.1458 12.5898 18.1458C13.6506 18.1458 14.3048 17.5013 14.6518 17H17.3383C17.7546 17.5013 18.4486 18.1458 19.3209 18.1458C20.3817 18.1458 21.0359 17.5013 21.3829 17Z" fill="#321B41"/>
</svg>
