<svg width="100%" height="100%" viewBox="0 0 32 32" fill="none" xmlns="http://www.w3.org/2000/svg">
  <path d="M27.9617 25.9948V6.35147C27.9617 4.91397 26.6257 4.21085 25.532 5.22647L21.5184 9.17869C21.3313 9.36291 21.0793 9.46616 20.8167 9.46616H11.2204C10.9578 9.46616 10.7058 9.36291 10.5188 9.17869L6.50513 5.22647C5.41138 4.21085 4.07544 4.91397 4.07544 6.35147V25.9948C4.07544 28.2066 5.83537 29.9999 8.00597 29.9999H24.0312C26.2018 29.9999 27.9617 28.2066 27.9617 25.9948Z" fill="url(#paint0_linear_6903_5272)" />
  <path d="M27.9617 25.9948V6.35147C27.9617 4.91397 26.6257 4.21085 25.532 5.22647L21.5184 9.17869C21.3313 9.36291 21.0793 9.46616 20.8167 9.46616H11.2204C10.9578 9.46616 10.7058 9.36291 10.5188 9.17869L6.50513 5.22647C5.41138 4.21085 4.07544 4.91397 4.07544 6.35147V25.9948C4.07544 28.2066 5.83537 29.9999 8.00597 29.9999H24.0312C26.2018 29.9999 27.9617 28.2066 27.9617 25.9948Z" fill="url(#paint1_linear_6903_5272)" />
  <path d="M27.9617 25.9948V6.35147C27.9617 4.91397 26.6257 4.21085 25.532 5.22647L21.5184 9.17869C21.3313 9.36291 21.0793 9.46616 20.8167 9.46616H11.2204C10.9578 9.46616 10.7058 9.36291 10.5188 9.17869L6.50513 5.22647C5.41138 4.21085 4.07544 4.91397 4.07544 6.35147V25.9948C4.07544 28.2066 5.83537 29.9999 8.00597 29.9999H24.0312C26.2018 29.9999 27.9617 28.2066 27.9617 25.9948Z" fill="url(#paint2_linear_6903_5272)" />
  <path d="M27.9617 25.9948V6.35147C27.9617 4.91397 26.6257 4.21085 25.532 5.22647L21.5184 9.17869C21.3313 9.36291 21.0793 9.46616 20.8167 9.46616H11.2204C10.9578 9.46616 10.7058 9.36291 10.5188 9.17869L6.50513 5.22647C5.41138 4.21085 4.07544 4.91397 4.07544 6.35147V25.9948C4.07544 28.2066 5.83537 29.9999 8.00597 29.9999H24.0312C26.2018 29.9999 27.9617 28.2066 27.9617 25.9948Z" fill="url(#paint3_linear_6903_5272)" />
  <path d="M27.9617 25.9948V6.35147C27.9617 4.91397 26.6257 4.21085 25.532 5.22647L21.5184 9.17869C21.3313 9.36291 21.0793 9.46616 20.8167 9.46616H11.2204C10.9578 9.46616 10.7058 9.36291 10.5188 9.17869L6.50513 5.22647C5.41138 4.21085 4.07544 4.91397 4.07544 6.35147V25.9948C4.07544 28.2066 5.83537 29.9999 8.00597 29.9999H24.0312C26.2018 29.9999 27.9617 28.2066 27.9617 25.9948Z" fill="url(#paint4_linear_6903_5272)" />
  <path d="M27.9617 25.9948V6.35147C27.9617 4.91397 26.6257 4.21085 25.532 5.22647L21.5184 9.17869C21.3313 9.36291 21.0793 9.46616 20.8167 9.46616H11.2204C10.9578 9.46616 10.7058 9.36291 10.5188 9.17869L6.50513 5.22647C5.41138 4.21085 4.07544 4.91397 4.07544 6.35147V25.9948C4.07544 28.2066 5.83537 29.9999 8.00597 29.9999H24.0312C26.2018 29.9999 27.9617 28.2066 27.9617 25.9948Z" fill="url(#paint5_radial_6903_5272)" />
  <g filter="url(#filter0_f_6903_5272)">
    <rect x="5.05408" y="21.75" width="2.72692" height="3.69801" rx="1.36346" fill="#D67908" />
  </g>
  <g filter="url(#filter1_f_6903_5272)">
    <path d="M20.5855 10.165C17.6023 10.2726 25.812 15.1188 25.812 15.1188L26.937 6.0563C26.9917 5.59537 26.5729 5.10279 25.6871 5.92532C25.6871 5.92532 21.8605 9.69333 21.6734 9.87754C21.4864 10.0618 21.2654 10.1265 20.9718 10.165C20.8222 10.1846 20.7363 10.1596 20.5855 10.165Z" fill="url(#paint6_linear_6903_5272)" />
  </g>
  <path d="M6.13255 13.4331L8.93255 10.8331C9.25255 10.5331 9.25255 10.0531 8.93255 9.76313L5.91787 7.08594C5.53505 6.75001 4.74255 6.85938 4.74255 7.69313V12.8931C4.74255 13.7266 5.62255 13.9131 6.13255 13.4331Z" fill="url(#paint7_linear_6903_5272)" />
  <g filter="url(#filter2_f_6903_5272)">
    <path d="M26.4909 5.58153C26.5488 5.43784 26.6882 5.34375 26.8431 5.34375V5.34375C27.0529 5.34375 27.2229 5.5138 27.2229 5.72356V7.96875L25.8055 7.28125L26.4909 5.58153Z" fill="url(#paint8_linear_6903_5272)" />
  </g>
  <g filter="url(#filter3_f_6903_5272)">
    <path d="M5.40601 6.0625L8.78097 9.28203C9.53508 10.0014 9.54921 11.2005 8.81226 11.9375V11.9375" stroke="#FFDF70" stroke-linecap="round" />
  </g>
  <g filter="url(#filter4_f_6903_5272)">
    <path d="M14.8054 19.5626L14.8697 19.5476C15.3433 19.4372 15.8365 19.4423 16.3077 19.5626V19.5626C16.8288 19.6608 17.1399 20.2581 16.6999 20.6881L16.1491 21.2897C15.8791 21.5597 15.2863 21.5597 15.0163 21.2897L14.4733 20.6881C14.0241 20.1803 14.3054 19.6725 14.8054 19.5626Z" fill="url(#paint9_linear_6903_5272)" />
  </g>
  <path d="M15.2265 19.1189L15.2908 19.1039C15.7644 18.9935 16.2577 18.9986 16.7289 19.1189V19.1189C17.25 19.217 17.561 19.8144 17.121 20.2444L16.5703 20.8459C16.3003 21.1159 15.7075 21.1159 15.4375 20.8459L14.8945 20.2444C14.4453 19.7366 14.7265 19.2288 15.2265 19.1189Z" fill="url(#paint10_radial_6903_5272)" />
  <g filter="url(#filter5_f_6903_5272)">
    <ellipse cx="16.2703" cy="19.6538" rx="0.761719" ry="0.274258" fill="url(#paint11_linear_6903_5272)" />
  </g>
  <g filter="url(#filter6_f_6903_5272)">
    <path d="M24.7851 22.8219L28.5898 21.0094" stroke="url(#paint12_linear_6903_5272)" stroke-width="1.2" stroke-miterlimit="10" stroke-linecap="round" />
  </g>
  <g filter="url(#filter7_f_6903_5272)">
    <path d="M24.7851 24.8532L26.7117 26.2188" stroke="url(#paint13_linear_6903_5272)" stroke-width="1.2" stroke-miterlimit="10" stroke-linecap="round" />
  </g>
  <path d="M25.5663 22.4688L29.371 20.6562" stroke="url(#paint14_linear_6903_5272)" stroke-width="1.2" stroke-miterlimit="10" stroke-linecap="round" />
  <g filter="url(#filter8_f_6903_5272)">
    <path d="M25.5663 22.6406L29.371 20.8281" stroke="#FF8485" stroke-width="0.3" stroke-miterlimit="10" stroke-linecap="round" />
  </g>
  <path d="M25.5636 24.5989L29.3652 26.418" stroke="url(#paint15_linear_6903_5272)" stroke-width="1.2" stroke-miterlimit="10" stroke-linecap="round" />
  <g filter="url(#filter9_f_6903_5272)">
    <path d="M25.4984 24.4788L29.3 26.2979" stroke="#FF8485" stroke-width="0.3" stroke-miterlimit="10" stroke-linecap="round" />
  </g>
  <path d="M6.5281 24.6106L2.72654 26.4297" stroke="url(#paint16_linear_6903_5272)" stroke-width="1.2" stroke-miterlimit="10" stroke-linecap="round" />
  <g filter="url(#filter10_f_6903_5272)">
    <path d="M6.59334 24.4905L2.79179 26.3096" stroke="#FF8485" stroke-width="0.3" stroke-miterlimit="10" stroke-linecap="round" />
  </g>
  <g filter="url(#filter11_f_6903_5272)">
    <ellipse rx="0.18384" ry="0.165827" transform="matrix(-0.942776 -0.333427 -0.333427 0.942776 6.64614 24.4345)" fill="#FFDD86" />
  </g>
  <path d="M6.53969 22.454L2.72612 20.6602" stroke="url(#paint17_linear_6903_5272)" stroke-width="1.2" stroke-miterlimit="10" stroke-linecap="round" />
  <g filter="url(#filter12_f_6903_5272)">
    <path d="M6.67403 22.4284L2.86046 20.6347" stroke="#FF8485" stroke-width="0.3" stroke-miterlimit="10" stroke-linecap="round" />
  </g>
  <g filter="url(#filter13_f_6903_5272)">
    <ellipse rx="0.18384" ry="0.165827" transform="matrix(-0.338111 -0.941106 -0.941106 0.338111 6.75078 22.434)" fill="#FFDD86" />
  </g>
  <g filter="url(#filter14_f_6903_5272)">
    <rect x="22.1024" y="10.0312" width="4.5851" height="14.1857" fill="url(#paint18_linear_6903_5272)" />
  </g>
  <path d="M25.8329 13.4331L23.0329 10.8331C22.7129 10.5331 22.7129 10.0531 23.0329 9.76313L26.0476 7.08594C26.4304 6.75001 27.2229 6.85938 27.2229 7.69313V12.8931C27.2229 13.7266 26.3429 13.9131 25.8329 13.4331Z" fill="#FFB915" />
  <path d="M25.8329 13.4331L23.0329 10.8331C22.7129 10.5331 22.7129 10.0531 23.0329 9.76313L26.0476 7.08594C26.4304 6.75001 27.2229 6.85938 27.2229 7.69313V12.8931C27.2229 13.7266 26.3429 13.9131 25.8329 13.4331Z" fill="url(#paint19_linear_6903_5272)" />
  <g filter="url(#filter15_f_6903_5272)">
    <path d="M26.6336 7.29688L23.0086 10.4219L26.5555 13.2344L26.6336 7.29688Z" fill="url(#paint20_radial_6903_5272)" />
  </g>
  <g filter="url(#filter16_f_6903_5272)">
    <path d="M23.7274 10.2188L26.2586 12.9531" stroke="url(#paint21_linear_6903_5272)" stroke-width="0.5" stroke-linecap="round" />
  </g>
  <g filter="url(#filter17_f_6903_5272)">
    <path d="M5.22321 7.42896V13.3367L8.69196 10.2473L5.22321 7.42896Z" fill="#FEB33E" />
  </g>
  <g filter="url(#filter18_f_6903_5272)">
    <path d="M5.22321 7.65625V12.8438" stroke="#FFE7A3" stroke-width="0.15" stroke-linecap="round" />
  </g>
  <g filter="url(#filter19_f_6903_5272)">
    <circle cx="22.3076" cy="24.9852" r="3.19081" fill="url(#paint22_linear_6903_5272)" />
  </g>
  <path d="M20.9883 23.7969C20.9883 21.5964 22.7721 19.8125 24.9727 19.8125V19.8125C27.1732 19.8125 28.957 21.5964 28.957 23.7969V30H20.9883V23.7969Z" fill="url(#paint23_linear_6903_5272)" />
  <path d="M20.9883 23.7969C20.9883 21.5964 22.7721 19.8125 24.9727 19.8125V19.8125C27.1732 19.8125 28.957 21.5964 28.957 23.7969V30H20.9883V23.7969Z" fill="url(#paint24_linear_6903_5272)" />
  <path d="M20.9883 23.7969C20.9883 21.5964 22.7721 19.8125 24.9727 19.8125V19.8125C27.1732 19.8125 28.957 21.5964 28.957 23.7969V30H20.9883V23.7969Z" fill="url(#paint25_linear_6903_5272)" />
  <g filter="url(#filter20_f_6903_5272)">
    <path d="M26.0507 20.3399C26.0507 20.2298 26.1399 20.1406 26.25 20.1406V20.1406C26.36 20.1406 26.4492 20.2298 26.4492 20.3399V23.0586C26.4492 23.1686 26.36 23.2578 26.25 23.2578V23.2578C26.1399 23.2578 26.0507 23.1686 26.0507 23.0586V20.3399Z" fill="#DA7600" fill-opacity="0.5" />
  </g>
  <g filter="url(#filter21_f_6903_5272)">
    <path d="M22.9727 20.3437C22.9727 20.2316 23.0636 20.1406 23.1758 20.1406V20.1406C23.288 20.1406 23.3789 20.2316 23.3789 20.3438V22.9531C23.3789 23.0653 23.288 23.1563 23.1758 23.1563V23.1563C23.0636 23.1563 22.9727 23.0653 22.9727 22.9531V20.3437Z" fill="#DA7600" fill-opacity="0.75" />
  </g>
  <g filter="url(#filter22_f_6903_5272)">
    <ellipse cx="27.1216" cy="22.2576" rx="0.846269" ry="1.35723" transform="rotate(-27.2088 27.1216 22.2576)" fill="#FDD659" />
  </g>
  <path d="M23.1133 20.0547C23.1133 19.8692 23.2637 19.7188 23.4492 19.7188V19.7188C23.6348 19.7188 23.7852 19.8692 23.7852 20.0547V22.8203C23.7852 23.0058 23.6348 23.1562 23.4492 23.1562V23.1562C23.2637 23.1562 23.1133 23.0058 23.1133 22.8203V20.0547Z" fill="url(#paint26_linear_6903_5272)" />
  <path d="M23.1133 20.0547C23.1133 19.8692 23.2637 19.7188 23.4492 19.7188V19.7188C23.6348 19.7188 23.7852 19.8692 23.7852 20.0547V22.8203C23.7852 23.0058 23.6348 23.1562 23.4492 23.1562V23.1562C23.2637 23.1562 23.1133 23.0058 23.1133 22.8203V20.0547Z" fill="url(#paint27_linear_6903_5272)" />
  <path d="M23.1133 20.0547C23.1133 19.8692 23.2637 19.7188 23.4492 19.7188V19.7188C23.6348 19.7188 23.7852 19.8692 23.7852 20.0547V22.8203C23.7852 23.0058 23.6348 23.1562 23.4492 23.1562V23.1562C23.2637 23.1562 23.1133 23.0058 23.1133 22.8203V20.0547Z" fill="url(#paint28_linear_6903_5272)" />
  <path d="M26.1602 20.0547C26.1602 19.8692 26.3106 19.7188 26.4961 19.7188V19.7188C26.6816 19.7188 26.832 19.8692 26.832 20.0547V22.8203C26.832 23.0058 26.6816 23.1562 26.4961 23.1562V23.1562C26.3106 23.1562 26.1602 23.0058 26.1602 22.8203V20.0547Z" fill="url(#paint29_linear_6903_5272)" />
  <path d="M26.1602 20.0547C26.1602 19.8692 26.3106 19.7188 26.4961 19.7188V19.7188C26.6816 19.7188 26.832 19.8692 26.832 20.0547V22.8203C26.832 23.0058 26.6816 23.1562 26.4961 23.1562V23.1562C26.3106 23.1562 26.1602 23.0058 26.1602 22.8203V20.0547Z" fill="url(#paint30_linear_6903_5272)" />
  <path d="M26.1602 20.0547C26.1602 19.8692 26.3106 19.7188 26.4961 19.7188V19.7188C26.6816 19.7188 26.832 19.8692 26.832 20.0547V22.8203C26.832 23.0058 26.6816 23.1562 26.4961 23.1562V23.1562C26.3106 23.1562 26.1602 23.0058 26.1602 22.8203V20.0547Z" fill="url(#paint31_linear_6903_5272)" />
  <g filter="url(#filter23_f_6903_5272)">
    <path d="M26.6679 22.6797V20.4688" stroke="url(#paint32_linear_6903_5272)" stroke-width="0.2" stroke-linecap="round" />
  </g>
  <g filter="url(#filter24_f_6903_5272)">
    <path d="M23.621 22.6797V20.4688" stroke="url(#paint33_linear_6903_5272)" stroke-width="0.2" stroke-linecap="round" />
  </g>
  <g filter="url(#filter25_f_6903_5272)">
    <path d="M23.621 22.6797V20.4688" stroke="url(#paint34_linear_6903_5272)" stroke-width="0.2" stroke-linecap="round" />
  </g>
  <g filter="url(#filter26_f_6903_5272)">
    <circle cx="11.082" cy="15.9766" r="3.49219" fill="url(#paint35_linear_6903_5272)" />
  </g>
  <g filter="url(#filter27_f_6903_5272)">
    <circle cx="20.0898" cy="16.0904" r="3.28912" fill="url(#paint36_linear_6903_5272)" />
  </g>
  <circle cx="20.4844" cy="15.5781" r="3.49219" fill="white" />
  <circle cx="11.5156" cy="15.5781" r="3.49219" fill="white" />
  <rect x="13.8281" y="21.8359" width="4.34375" height="5.45312" rx="2.17188" fill="url(#paint37_radial_6903_5272)" />
  <path d="M3.04297 23.7969C3.04297 21.5964 4.82683 19.8125 7.02734 19.8125V19.8125C9.22785 19.8125 11.0117 21.5964 11.0117 23.7969V30H3.04297V23.7969Z" fill="url(#paint38_linear_6903_5272)" />
  <path d="M3.04297 23.7969C3.04297 21.5964 4.82683 19.8125 7.02734 19.8125V19.8125C9.22785 19.8125 11.0117 21.5964 11.0117 23.7969V30H3.04297V23.7969Z" fill="url(#paint39_linear_6903_5272)" />
  <path d="M3.04297 23.7969C3.04297 21.5964 4.82683 19.8125 7.02734 19.8125V19.8125C9.22785 19.8125 11.0117 21.5964 11.0117 23.7969V30H3.04297V23.7969Z" fill="url(#paint40_linear_6903_5272)" />
  <g filter="url(#filter28_f_6903_5272)">
    <ellipse cx="9.1763" cy="22.2576" rx="0.846269" ry="1.35723" transform="rotate(-27.2088 9.1763 22.2576)" fill="#FDD659" />
  </g>
  <g filter="url(#filter29_f_6903_5272)">
    <path d="M8.21484 20.3437C8.21484 20.2316 8.30579 20.1406 8.41797 20.1406V20.1406C8.53015 20.1406 8.62109 20.2316 8.62109 20.3438V22.9531C8.62109 23.0653 8.53015 23.1563 8.41797 23.1563V23.1563C8.30579 23.1563 8.21484 23.0653 8.21484 22.9531V20.3437Z" fill="#DA7600" fill-opacity="0.5" />
  </g>
  <g filter="url(#filter30_f_6903_5272)">
    <path d="M5.09766 20.3437C5.09766 20.2316 5.1886 20.1406 5.30078 20.1406V20.1406C5.41296 20.1406 5.50391 20.2316 5.50391 20.3438V22.9531C5.50391 23.0653 5.41296 23.1563 5.30078 23.1563V23.1563C5.1886 23.1563 5.09766 23.0653 5.09766 22.9531V20.3437Z" fill="#DA7600" fill-opacity="0.75" />
  </g>
  <path d="M5.16797 20.0547C5.16797 19.8692 5.31837 19.7188 5.50391 19.7188V19.7188C5.68944 19.7188 5.83984 19.8692 5.83984 20.0547V22.8203C5.83984 23.0058 5.68944 23.1562 5.50391 23.1562V23.1562C5.31837 23.1562 5.16797 23.0058 5.16797 22.8203V20.0547Z" fill="url(#paint41_linear_6903_5272)" />
  <path d="M5.16797 20.0547C5.16797 19.8692 5.31837 19.7188 5.50391 19.7188V19.7188C5.68944 19.7188 5.83984 19.8692 5.83984 20.0547V22.8203C5.83984 23.0058 5.68944 23.1562 5.50391 23.1562V23.1562C5.31837 23.1562 5.16797 23.0058 5.16797 22.8203V20.0547Z" fill="url(#paint42_linear_6903_5272)" />
  <path d="M5.16797 20.0547C5.16797 19.8692 5.31837 19.7188 5.50391 19.7188V19.7188C5.68944 19.7188 5.83984 19.8692 5.83984 20.0547V22.8203C5.83984 23.0058 5.68944 23.1562 5.50391 23.1562V23.1562C5.31837 23.1562 5.16797 23.0058 5.16797 22.8203V20.0547Z" fill="url(#paint43_linear_6903_5272)" />
  <path d="M8.21484 20.0547C8.21484 19.8692 8.36525 19.7188 8.55078 19.7188V19.7188C8.73631 19.7188 8.88672 19.8692 8.88672 20.0547V22.8203C8.88672 23.0058 8.73631 23.1562 8.55078 23.1562V23.1562C8.36525 23.1562 8.21484 23.0058 8.21484 22.8203V20.0547Z" fill="url(#paint44_linear_6903_5272)" />
  <path d="M8.21484 20.0547C8.21484 19.8692 8.36525 19.7188 8.55078 19.7188V19.7188C8.73631 19.7188 8.88672 19.8692 8.88672 20.0547V22.8203C8.88672 23.0058 8.73631 23.1562 8.55078 23.1562V23.1562C8.36525 23.1562 8.21484 23.0058 8.21484 22.8203V20.0547Z" fill="url(#paint45_linear_6903_5272)" />
  <path d="M8.21484 20.0547C8.21484 19.8692 8.36525 19.7188 8.55078 19.7188V19.7188C8.73631 19.7188 8.88672 19.8692 8.88672 20.0547V22.8203C8.88672 23.0058 8.73631 23.1562 8.55078 23.1562V23.1562C8.36525 23.1562 8.21484 23.0058 8.21484 22.8203V20.0547Z" fill="url(#paint46_linear_6903_5272)" />
  <g filter="url(#filter31_f_6903_5272)">
    <path d="M8.7226 22.6797V20.4688" stroke="url(#paint47_linear_6903_5272)" stroke-width="0.2" stroke-linecap="round" />
  </g>
  <g filter="url(#filter32_f_6903_5272)">
    <path d="M5.67572 22.6797V20.4688" stroke="url(#paint48_linear_6903_5272)" stroke-width="0.2" stroke-linecap="round" />
  </g>
  <defs>
    <filter id="filter0_f_6903_5272" x="3.55408" y="20.25" width="5.72693" height="6.698" filterUnits="userSpaceOnUse" color-interpolation-filters="sRGB">
      <feFlood flood-opacity="0" result="BackgroundImageFix" />
      <feBlend mode="normal" in="SourceGraphic" in2="BackgroundImageFix" result="shape" />
      <feGaussianBlur stdDeviation="0.75" result="effect1_foregroundBlur_6903_5272" />
    </filter>
    <filter id="filter1_f_6903_5272" x="18.9327" y="4.48315" width="9.00903" height="11.6356" filterUnits="userSpaceOnUse" color-interpolation-filters="sRGB">
      <feFlood flood-opacity="0" result="BackgroundImageFix" />
      <feBlend mode="normal" in="SourceGraphic" in2="BackgroundImageFix" result="shape" />
      <feGaussianBlur stdDeviation="0.5" result="effect1_foregroundBlur_6903_5272" />
    </filter>
    <filter id="filter2_f_6903_5272" x="24.8055" y="4.34375" width="3.41745" height="4.625" filterUnits="userSpaceOnUse" color-interpolation-filters="sRGB">
      <feFlood flood-opacity="0" result="BackgroundImageFix" />
      <feBlend mode="normal" in="SourceGraphic" in2="BackgroundImageFix" result="shape" />
      <feGaussianBlur stdDeviation="0.5" result="effect1_foregroundBlur_6903_5272" />
    </filter>
    <filter id="filter3_f_6903_5272" x="2.90601" y="3.5625" width="8.94989" height="10.7285" filterUnits="userSpaceOnUse" color-interpolation-filters="sRGB">
      <feFlood flood-opacity="0" result="BackgroundImageFix" />
      <feBlend mode="normal" in="SourceGraphic" in2="BackgroundImageFix" result="shape" />
      <feGaussianBlur stdDeviation="1" result="effect1_foregroundBlur_6903_5272" />
    </filter>
    <filter id="filter4_f_6903_5272" x="13.7482" y="18.9684" width="3.66141" height="3.0238" filterUnits="userSpaceOnUse" color-interpolation-filters="sRGB">
      <feFlood flood-opacity="0" result="BackgroundImageFix" />
      <feBlend mode="normal" in="SourceGraphic" in2="BackgroundImageFix" result="shape" />
      <feGaussianBlur stdDeviation="0.25" result="effect1_foregroundBlur_6903_5272" />
    </filter>
    <filter id="filter5_f_6903_5272" x="14.9086" y="18.7795" width="2.72344" height="1.74846" filterUnits="userSpaceOnUse" color-interpolation-filters="sRGB">
      <feFlood flood-opacity="0" result="BackgroundImageFix" />
      <feBlend mode="normal" in="SourceGraphic" in2="BackgroundImageFix" result="shape" />
      <feGaussianBlur stdDeviation="0.3" result="effect1_foregroundBlur_6903_5272" />
    </filter>
    <filter id="filter6_f_6903_5272" x="23.685" y="19.9093" width="6.00494" height="4.0127" filterUnits="userSpaceOnUse" color-interpolation-filters="sRGB">
      <feFlood flood-opacity="0" result="BackgroundImageFix" />
      <feBlend mode="normal" in="SourceGraphic" in2="BackgroundImageFix" result="shape" />
      <feGaussianBlur stdDeviation="0.25" result="effect1_foregroundBlur_6903_5272" />
    </filter>
    <filter id="filter7_f_6903_5272" x="23.6851" y="23.7532" width="4.12671" height="3.56567" filterUnits="userSpaceOnUse" color-interpolation-filters="sRGB">
      <feFlood flood-opacity="0" result="BackgroundImageFix" />
      <feBlend mode="normal" in="SourceGraphic" in2="BackgroundImageFix" result="shape" />
      <feGaussianBlur stdDeviation="0.25" result="effect1_foregroundBlur_6903_5272" />
    </filter>
    <filter id="filter8_f_6903_5272" x="24.9163" y="20.1781" width="5.10474" height="3.11255" filterUnits="userSpaceOnUse" color-interpolation-filters="sRGB">
      <feFlood flood-opacity="0" result="BackgroundImageFix" />
      <feBlend mode="normal" in="SourceGraphic" in2="BackgroundImageFix" result="shape" />
      <feGaussianBlur stdDeviation="0.25" result="effect1_foregroundBlur_6903_5272" />
    </filter>
    <filter id="filter9_f_6903_5272" x="24.8484" y="23.8287" width="5.10162" height="3.11914" filterUnits="userSpaceOnUse" color-interpolation-filters="sRGB">
      <feFlood flood-opacity="0" result="BackgroundImageFix" />
      <feBlend mode="normal" in="SourceGraphic" in2="BackgroundImageFix" result="shape" />
      <feGaussianBlur stdDeviation="0.25" result="effect1_foregroundBlur_6903_5272" />
    </filter>
    <filter id="filter10_f_6903_5272" x="2.14175" y="23.8405" width="5.10162" height="3.11914" filterUnits="userSpaceOnUse" color-interpolation-filters="sRGB">
      <feFlood flood-opacity="0" result="BackgroundImageFix" />
      <feBlend mode="normal" in="SourceGraphic" in2="BackgroundImageFix" result="shape" />
      <feGaussianBlur stdDeviation="0.25" result="effect1_foregroundBlur_6903_5272" />
    </filter>
    <filter id="filter11_f_6903_5272" x="5.96417" y="23.7666" width="1.36395" height="1.33594" filterUnits="userSpaceOnUse" color-interpolation-filters="sRGB">
      <feFlood flood-opacity="0" result="BackgroundImageFix" />
      <feBlend mode="normal" in="SourceGraphic" in2="BackgroundImageFix" result="shape" />
      <feGaussianBlur stdDeviation="0.25" result="effect1_foregroundBlur_6903_5272" />
    </filter>
    <filter id="filter12_f_6903_5272" x="2.21042" y="19.9847" width="5.11365" height="3.09375" filterUnits="userSpaceOnUse" color-interpolation-filters="sRGB">
      <feFlood flood-opacity="0" result="BackgroundImageFix" />
      <feBlend mode="normal" in="SourceGraphic" in2="BackgroundImageFix" result="shape" />
      <feGaussianBlur stdDeviation="0.25" result="effect1_foregroundBlur_6903_5272" />
    </filter>
    <filter id="filter13_f_6903_5272" x="6.08273" y="21.7521" width="1.33606" height="1.36377" filterUnits="userSpaceOnUse" color-interpolation-filters="sRGB">
      <feFlood flood-opacity="0" result="BackgroundImageFix" />
      <feBlend mode="normal" in="SourceGraphic" in2="BackgroundImageFix" result="shape" />
      <feGaussianBlur stdDeviation="0.25" result="effect1_foregroundBlur_6903_5272" />
    </filter>
    <filter id="filter14_f_6903_5272" x="18.1024" y="6.03125" width="12.5851" height="22.1857" filterUnits="userSpaceOnUse" color-interpolation-filters="sRGB">
      <feFlood flood-opacity="0" result="BackgroundImageFix" />
      <feBlend mode="normal" in="SourceGraphic" in2="BackgroundImageFix" result="shape" />
      <feGaussianBlur stdDeviation="2" result="effect1_foregroundBlur_6903_5272" />
    </filter>
    <filter id="filter15_f_6903_5272" x="22.4086" y="6.69687" width="4.825" height="7.1375" filterUnits="userSpaceOnUse" color-interpolation-filters="sRGB">
      <feFlood flood-opacity="0" result="BackgroundImageFix" />
      <feBlend mode="normal" in="SourceGraphic" in2="BackgroundImageFix" result="shape" />
      <feGaussianBlur stdDeviation="0.3" result="effect1_foregroundBlur_6903_5272" />
    </filter>
    <filter id="filter16_f_6903_5272" x="22.7274" y="9.21875" width="4.53125" height="4.73438" filterUnits="userSpaceOnUse" color-interpolation-filters="sRGB">
      <feFlood flood-opacity="0" result="BackgroundImageFix" />
      <feBlend mode="normal" in="SourceGraphic" in2="BackgroundImageFix" result="shape" />
      <feGaussianBlur stdDeviation="0.375" result="effect1_foregroundBlur_6903_5272" />
    </filter>
    <filter id="filter17_f_6903_5272" x="4.72321" y="6.92896" width="4.46875" height="6.90771" filterUnits="userSpaceOnUse" color-interpolation-filters="sRGB">
      <feFlood flood-opacity="0" result="BackgroundImageFix" />
      <feBlend mode="normal" in="SourceGraphic" in2="BackgroundImageFix" result="shape" />
      <feGaussianBlur stdDeviation="0.25" result="effect1_foregroundBlur_6903_5272" />
    </filter>
    <filter id="filter18_f_6903_5272" x="4.64819" y="7.0813" width="1.15002" height="6.3374" filterUnits="userSpaceOnUse" color-interpolation-filters="sRGB">
      <feFlood flood-opacity="0" result="BackgroundImageFix" />
      <feBlend mode="normal" in="SourceGraphic" in2="BackgroundImageFix" result="shape" />
      <feGaussianBlur stdDeviation="0.25" result="effect1_foregroundBlur_6903_5272" />
    </filter>
    <filter id="filter19_f_6903_5272" x="17.1168" y="19.7944" width="10.3816" height="10.3816" filterUnits="userSpaceOnUse" color-interpolation-filters="sRGB">
      <feFlood flood-opacity="0" result="BackgroundImageFix" />
      <feBlend mode="normal" in="SourceGraphic" in2="BackgroundImageFix" result="shape" />
      <feGaussianBlur stdDeviation="1" result="effect1_foregroundBlur_6903_5272" />
    </filter>
    <filter id="filter20_f_6903_5272" x="25.5507" y="19.6406" width="1.3985" height="4.11719" filterUnits="userSpaceOnUse" color-interpolation-filters="sRGB">
      <feFlood flood-opacity="0" result="BackgroundImageFix" />
      <feBlend mode="normal" in="SourceGraphic" in2="BackgroundImageFix" result="shape" />
      <feGaussianBlur stdDeviation="0.25" result="effect1_foregroundBlur_6903_5272" />
    </filter>
    <filter id="filter21_f_6903_5272" x="22.4727" y="19.6406" width="1.40625" height="4.01562" filterUnits="userSpaceOnUse" color-interpolation-filters="sRGB">
      <feFlood flood-opacity="0" result="BackgroundImageFix" />
      <feBlend mode="normal" in="SourceGraphic" in2="BackgroundImageFix" result="shape" />
      <feGaussianBlur stdDeviation="0.25" result="effect1_foregroundBlur_6903_5272" />
    </filter>
    <filter id="filter22_f_6903_5272" x="24.6461" y="19.4897" width="4.95099" height="5.53577" filterUnits="userSpaceOnUse" color-interpolation-filters="sRGB">
      <feFlood flood-opacity="0" result="BackgroundImageFix" />
      <feBlend mode="normal" in="SourceGraphic" in2="BackgroundImageFix" result="shape" />
      <feGaussianBlur stdDeviation="0.75" result="effect1_foregroundBlur_6903_5272" />
    </filter>
    <filter id="filter23_f_6903_5272" x="26.3679" y="20.1688" width="0.600012" height="2.81089" filterUnits="userSpaceOnUse" color-interpolation-filters="sRGB">
      <feFlood flood-opacity="0" result="BackgroundImageFix" />
      <feBlend mode="normal" in="SourceGraphic" in2="BackgroundImageFix" result="shape" />
      <feGaussianBlur stdDeviation="0.1" result="effect1_foregroundBlur_6903_5272" />
    </filter>
    <filter id="filter24_f_6903_5272" x="23.321" y="20.1688" width="0.600012" height="2.81089" filterUnits="userSpaceOnUse" color-interpolation-filters="sRGB">
      <feFlood flood-opacity="0" result="BackgroundImageFix" />
      <feBlend mode="normal" in="SourceGraphic" in2="BackgroundImageFix" result="shape" />
      <feGaussianBlur stdDeviation="0.1" result="effect1_foregroundBlur_6903_5272" />
    </filter>
    <filter id="filter25_f_6903_5272" x="23.321" y="20.1688" width="0.600012" height="2.81089" filterUnits="userSpaceOnUse" color-interpolation-filters="sRGB">
      <feFlood flood-opacity="0" result="BackgroundImageFix" />
      <feBlend mode="normal" in="SourceGraphic" in2="BackgroundImageFix" result="shape" />
      <feGaussianBlur stdDeviation="0.1" result="effect1_foregroundBlur_6903_5272" />
    </filter>
    <filter id="filter26_f_6903_5272" x="6.58978" y="11.4844" width="8.98438" height="8.98438" filterUnits="userSpaceOnUse" color-interpolation-filters="sRGB">
      <feFlood flood-opacity="0" result="BackgroundImageFix" />
      <feBlend mode="normal" in="SourceGraphic" in2="BackgroundImageFix" result="shape" />
      <feGaussianBlur stdDeviation="0.5" result="effect1_foregroundBlur_6903_5272" />
    </filter>
    <filter id="filter27_f_6903_5272" x="15.8007" y="11.8013" width="8.57825" height="8.57825" filterUnits="userSpaceOnUse" color-interpolation-filters="sRGB">
      <feFlood flood-opacity="0" result="BackgroundImageFix" />
      <feBlend mode="normal" in="SourceGraphic" in2="BackgroundImageFix" result="shape" />
      <feGaussianBlur stdDeviation="0.5" result="effect1_foregroundBlur_6903_5272" />
    </filter>
    <filter id="filter28_f_6903_5272" x="6.70081" y="19.4897" width="4.95099" height="5.53577" filterUnits="userSpaceOnUse" color-interpolation-filters="sRGB">
      <feFlood flood-opacity="0" result="BackgroundImageFix" />
      <feBlend mode="normal" in="SourceGraphic" in2="BackgroundImageFix" result="shape" />
      <feGaussianBlur stdDeviation="0.75" result="effect1_foregroundBlur_6903_5272" />
    </filter>
    <filter id="filter29_f_6903_5272" x="7.71484" y="19.6406" width="1.40625" height="4.01562" filterUnits="userSpaceOnUse" color-interpolation-filters="sRGB">
      <feFlood flood-opacity="0" result="BackgroundImageFix" />
      <feBlend mode="normal" in="SourceGraphic" in2="BackgroundImageFix" result="shape" />
      <feGaussianBlur stdDeviation="0.25" result="effect1_foregroundBlur_6903_5272" />
    </filter>
    <filter id="filter30_f_6903_5272" x="4.59766" y="19.6406" width="1.40625" height="4.01562" filterUnits="userSpaceOnUse" color-interpolation-filters="sRGB">
      <feFlood flood-opacity="0" result="BackgroundImageFix" />
      <feBlend mode="normal" in="SourceGraphic" in2="BackgroundImageFix" result="shape" />
      <feGaussianBlur stdDeviation="0.25" result="effect1_foregroundBlur_6903_5272" />
    </filter>
    <filter id="filter31_f_6903_5272" x="8.42259" y="20.1688" width="0.600012" height="2.81089" filterUnits="userSpaceOnUse" color-interpolation-filters="sRGB">
      <feFlood flood-opacity="0" result="BackgroundImageFix" />
      <feBlend mode="normal" in="SourceGraphic" in2="BackgroundImageFix" result="shape" />
      <feGaussianBlur stdDeviation="0.1" result="effect1_foregroundBlur_6903_5272" />
    </filter>
    <filter id="filter32_f_6903_5272" x="5.37571" y="20.1688" width="0.600012" height="2.81089" filterUnits="userSpaceOnUse" color-interpolation-filters="sRGB">
      <feFlood flood-opacity="0" result="BackgroundImageFix" />
      <feBlend mode="normal" in="SourceGraphic" in2="BackgroundImageFix" result="shape" />
      <feGaussianBlur stdDeviation="0.1" result="effect1_foregroundBlur_6903_5272" />
    </filter>
    <linearGradient id="paint0_linear_6903_5272" x1="7.96361" y1="1.05993" x2="7.96361" y2="30.9999" gradientUnits="userSpaceOnUse">
      <stop offset="0.288159" stop-color="#F2CC26" />
      <stop offset="0.762024" stop-color="#E99E20" />
      <stop offset="0.9925" stop-color="#E3821D" />
      <stop offset="1" stop-color="#E3801D" />
    </linearGradient>
    <linearGradient id="paint1_linear_6903_5272" x1="8.88356" y1="11.8512" x2="1.25856" y2="11.8512" gradientUnits="userSpaceOnUse">
      <stop stop-color="#E99E20" stop-opacity="0" />
      <stop offset="0.9925" stop-color="#E3821D" />
      <stop offset="1" stop-color="#E3801D" />
    </linearGradient>
    <linearGradient id="paint2_linear_6903_5272" x1="26.7586" y1="11.8512" x2="30.1961" y2="11.8512" gradientUnits="userSpaceOnUse">
      <stop stop-color="#E99E20" stop-opacity="0" />
      <stop offset="0.9925" stop-color="#E3821D" />
      <stop offset="1" stop-color="#E3801D" />
    </linearGradient>
    <linearGradient id="paint3_linear_6903_5272" x1="16.0195" y1="-1.91422" x2="16.0186" y2="30.5233" gradientUnits="userSpaceOnUse">
      <stop offset="0.77079" stop-color="#F59639" stop-opacity="0" />
      <stop offset="1" stop-color="#FF63C4" />
    </linearGradient>
    <linearGradient id="paint4_linear_6903_5272" x1="16.0186" y1="11.0624" x2="16.0186" y2="32.3358" gradientUnits="userSpaceOnUse">
      <stop offset="0.854227" stop-color="white" stop-opacity="0" />
      <stop offset="0.985362" stop-color="white" />
    </linearGradient>
    <radialGradient id="paint5_radial_6903_5272" cx="0" cy="0" r="1" gradientUnits="userSpaceOnUse" gradientTransform="translate(22.1648 4.21866) rotate(55.8501) scale(5.39983 10.6704)">
      <stop stop-color="#FFA720" />
      <stop offset="0.921158" stop-color="#FFA720" stop-opacity="0" />
    </radialGradient>
    <linearGradient id="paint6_linear_6903_5272" x1="23.4373" y1="8.96438" x2="27.9996" y2="13.6597" gradientUnits="userSpaceOnUse">
      <stop stop-color="#FFA720" />
      <stop offset="1" stop-color="#FFA720" stop-opacity="0" />
    </linearGradient>
    <linearGradient id="paint7_linear_6903_5272" x1="10.6023" y1="10.5469" x2="4.74255" y2="10" gradientUnits="userSpaceOnUse">
      <stop offset="0.437473" stop-color="#ED8C1B" />
      <stop offset="1" stop-color="#FFB03A" />
    </linearGradient>
    <linearGradient id="paint8_linear_6903_5272" x1="27.0399" y1="4.89063" x2="26.4438" y2="7.23208" gradientUnits="userSpaceOnUse">
      <stop offset="0.28598" stop-color="#FFE792" />
      <stop offset="1" stop-color="#FFDD65" stop-opacity="0" />
    </linearGradient>
    <linearGradient id="paint9_linear_6903_5272" x1="15.7507" y1="21.2636" x2="15.0789" y2="22.3573" gradientUnits="userSpaceOnUse">
      <stop stop-color="#E3900E" />
      <stop offset="1" stop-color="#EA9D26" stop-opacity="0" />
    </linearGradient>
    <radialGradient id="paint10_radial_6903_5272" cx="0" cy="0" r="1" gradientUnits="userSpaceOnUse" gradientTransform="translate(16.4461 20.092) rotate(-153.246) scale(2.11729 2.12981)">
      <stop stop-color="#EA088B" />
      <stop offset="1" stop-color="#E61E27" />
    </radialGradient>
    <linearGradient id="paint11_linear_6903_5272" x1="17.2036" y1="19.6538" x2="15.6801" y2="19.6538" gradientUnits="userSpaceOnUse">
      <stop stop-color="white" stop-opacity="0.9" />
      <stop offset="1" stop-color="white" stop-opacity="0" />
    </linearGradient>
    <linearGradient id="paint12_linear_6903_5272" x1="24.2898" y1="23.1656" x2="28.0242" y2="21.2499" gradientUnits="userSpaceOnUse">
      <stop stop-color="#E88105" />
      <stop offset="1" stop-color="#E37D02" stop-opacity="0" />
    </linearGradient>
    <linearGradient id="paint13_linear_6903_5272" x1="24.2898" y1="24.5095" x2="28.0242" y2="26.4252" gradientUnits="userSpaceOnUse">
      <stop offset="0.286458" stop-color="#DE7D07" />
      <stop offset="0.817708" stop-color="#E37D02" stop-opacity="0" />
    </linearGradient>
    <linearGradient id="paint14_linear_6903_5272" x1="25.2898" y1="22.875" x2="29.5273" y2="20.7422" gradientUnits="userSpaceOnUse">
      <stop offset="0.75086" stop-color="#D64A38" />
      <stop offset="1" stop-color="#FB7425" />
    </linearGradient>
    <linearGradient id="paint15_linear_6903_5272" x1="25.0739" y1="24.6393" x2="29.8242" y2="26.9765" gradientUnits="userSpaceOnUse">
      <stop offset="0.792349" stop-color="#D64A38" />
      <stop offset="1" stop-color="#FB7425" />
    </linearGradient>
    <linearGradient id="paint16_linear_6903_5272" x1="7.01785" y1="24.651" x2="2.02727" y2="27.1484" gradientUnits="userSpaceOnUse">
      <stop offset="0.75156" stop-color="#D64A38" />
      <stop offset="1" stop-color="#FB7425" />
    </linearGradient>
    <linearGradient id="paint17_linear_6903_5272" x1="6.8182" y1="22.8588" x2="2.72751" y2="20.9415" gradientUnits="userSpaceOnUse">
      <stop offset="0.664576" stop-color="#D64A38" />
      <stop offset="1" stop-color="#FB7425" />
    </linearGradient>
    <linearGradient id="paint18_linear_6903_5272" x1="23.3524" y1="10.7682" x2="22.9558" y2="22.8188" gradientUnits="userSpaceOnUse">
      <stop offset="0.548257" stop-color="#FFDD65" />
      <stop offset="1" stop-color="#FFDD65" stop-opacity="0" />
    </linearGradient>
    <linearGradient id="paint19_linear_6903_5272" x1="26.5398" y1="15.4375" x2="25.2898" y2="11.9688" gradientUnits="userSpaceOnUse">
      <stop stop-color="#EF8A47" />
      <stop offset="1" stop-color="#EF8A47" stop-opacity="0" />
    </linearGradient>
    <radialGradient id="paint20_radial_6903_5272" cx="0" cy="0" r="1" gradientUnits="userSpaceOnUse" gradientTransform="translate(22.868 7.70313) rotate(55.7389) scale(7.82686 9.38424)">
      <stop stop-color="#FFDF70" />
      <stop offset="1" stop-color="#FFDF70" stop-opacity="0" />
    </radialGradient>
    <linearGradient id="paint21_linear_6903_5272" x1="25.0555" y1="10.4063" x2="25.0555" y2="12.75" gradientUnits="userSpaceOnUse">
      <stop offset="0.432292" stop-color="#FFE7A3" />
      <stop offset="1" stop-color="#FFDF83" stop-opacity="0" />
    </linearGradient>
    <linearGradient id="paint22_linear_6903_5272" x1="22.3076" y1="26.9378" x2="15.2054" y2="30.4582" gradientUnits="userSpaceOnUse">
      <stop stop-color="#DA7600" />
      <stop offset="1" stop-color="#DA8400" stop-opacity="0" />
    </linearGradient>
    <linearGradient id="paint23_linear_6903_5272" x1="28.957" y1="30.4034" x2="20.9883" y2="30.4034" gradientUnits="userSpaceOnUse">
      <stop offset="0.160663" stop-color="#F2CC26" />
      <stop offset="0.642165" stop-color="#E99E20" />
      <stop offset="0.9925" stop-color="#E3821D" />
      <stop offset="1" stop-color="#E3801D" />
    </linearGradient>
    <linearGradient id="paint24_linear_6903_5272" x1="28.957" y1="30.4034" x2="20.9883" y2="30.5625" gradientUnits="userSpaceOnUse">
      <stop offset="0.865694" stop-color="#E3821D" stop-opacity="0" />
      <stop offset="1" stop-color="#D37516" />
    </linearGradient>
    <linearGradient id="paint25_linear_6903_5272" x1="26.621" y1="30.4034" x2="34.8085" y2="30.4034" gradientUnits="userSpaceOnUse">
      <stop stop-color="#E99E20" stop-opacity="0" />
      <stop offset="1" stop-color="#E99E20" />
    </linearGradient>
    <linearGradient id="paint26_linear_6903_5272" x1="23.7852" y1="22" x2="22.8242" y2="22" gradientUnits="userSpaceOnUse">
      <stop stop-color="#FFB445" />
      <stop offset="1" stop-color="#E9A239" stop-opacity="0.921875" />
    </linearGradient>
    <linearGradient id="paint27_linear_6903_5272" x1="22.3398" y1="22.1094" x2="23.621" y2="22.0312" gradientUnits="userSpaceOnUse">
      <stop offset="0.366667" stop-color="#D6850E" />
      <stop offset="1" stop-color="#CC861F" stop-opacity="0" />
    </linearGradient>
    <linearGradient id="paint28_linear_6903_5272" x1="23.4492" y1="24.2188" x2="23.4492" y2="22.6484" gradientUnits="userSpaceOnUse">
      <stop stop-color="#FF91B9" />
      <stop offset="1" stop-color="#FD679E" stop-opacity="0" />
    </linearGradient>
    <linearGradient id="paint29_linear_6903_5272" x1="26.832" y1="22" x2="25.871" y2="22" gradientUnits="userSpaceOnUse">
      <stop stop-color="#FFB445" />
      <stop offset="1" stop-color="#E9A239" stop-opacity="0.921875" />
    </linearGradient>
    <linearGradient id="paint30_linear_6903_5272" x1="25.4335" y1="22.0469" x2="26.371" y2="22.0469" gradientUnits="userSpaceOnUse">
      <stop offset="0.366667" stop-color="#D6850E" />
      <stop offset="1" stop-color="#CC861F" stop-opacity="0" />
    </linearGradient>
    <linearGradient id="paint31_linear_6903_5272" x1="26.4961" y1="24.2188" x2="26.4961" y2="22.6484" gradientUnits="userSpaceOnUse">
      <stop stop-color="#FF91B9" />
      <stop offset="1" stop-color="#FD679E" stop-opacity="0" />
    </linearGradient>
    <linearGradient id="paint32_linear_6903_5272" x1="27.082" y1="23.3047" x2="26.5405" y2="18.9978" gradientUnits="userSpaceOnUse">
      <stop stop-color="#FFC270" />
      <stop offset="0.769643" stop-color="#FFE2BB" stop-opacity="0" />
    </linearGradient>
    <linearGradient id="paint33_linear_6903_5272" x1="24.0351" y1="23.3047" x2="23.4936" y2="18.9978" gradientUnits="userSpaceOnUse">
      <stop stop-color="#FFC270" />
      <stop offset="0.769643" stop-color="#FFE2BB" stop-opacity="0" />
    </linearGradient>
    <linearGradient id="paint34_linear_6903_5272" x1="24.0351" y1="23.3047" x2="23.4936" y2="18.9978" gradientUnits="userSpaceOnUse">
      <stop stop-color="#FFC270" />
      <stop offset="0.769643" stop-color="#FFE2BB" stop-opacity="0" />
    </linearGradient>
    <linearGradient id="paint35_linear_6903_5272" x1="16.7421" y1="17.596" x2="18.0686" y2="26.3006" gradientUnits="userSpaceOnUse">
      <stop stop-color="#CF8209" />
      <stop offset="1" stop-color="#C88216" stop-opacity="0" />
    </linearGradient>
    <linearGradient id="paint36_linear_6903_5272" x1="25.4208" y1="17.6157" x2="26.6701" y2="25.8141" gradientUnits="userSpaceOnUse">
      <stop stop-color="#CF8209" />
      <stop offset="1" stop-color="#C88216" stop-opacity="0" />
    </linearGradient>
    <radialGradient id="paint37_radial_6903_5272" cx="0" cy="0" r="1" gradientUnits="userSpaceOnUse" gradientTransform="translate(16 28.5009) rotate(-90) scale(5.91493 9.37069)">
      <stop stop-color="#F70A8D" />
      <stop offset="1" stop-color="#89029C" />
    </radialGradient>
    <linearGradient id="paint38_linear_6903_5272" x1="11.0117" y1="30.4034" x2="3.04297" y2="30.4034" gradientUnits="userSpaceOnUse">
      <stop offset="0.160663" stop-color="#F2CC26" />
      <stop offset="0.642165" stop-color="#E99E20" />
      <stop offset="0.9925" stop-color="#E3821D" />
      <stop offset="1" stop-color="#E3801D" />
    </linearGradient>
    <linearGradient id="paint39_linear_6903_5272" x1="11.0117" y1="30.4034" x2="3.04297" y2="30.5625" gradientUnits="userSpaceOnUse">
      <stop offset="0.865694" stop-color="#E3821D" stop-opacity="0" />
      <stop offset="1" stop-color="#D37516" />
    </linearGradient>
    <linearGradient id="paint40_linear_6903_5272" x1="8.67572" y1="30.4034" x2="16.8632" y2="30.4034" gradientUnits="userSpaceOnUse">
      <stop stop-color="#E99E20" stop-opacity="0" />
      <stop offset="1" stop-color="#E99E20" />
    </linearGradient>
    <linearGradient id="paint41_linear_6903_5272" x1="5.83984" y1="22" x2="4.87885" y2="22" gradientUnits="userSpaceOnUse">
      <stop stop-color="#FFB445" />
      <stop offset="1" stop-color="#E9A239" stop-opacity="0.921875" />
    </linearGradient>
    <linearGradient id="paint42_linear_6903_5272" x1="4.39447" y1="22.1094" x2="5.67572" y2="22.0312" gradientUnits="userSpaceOnUse">
      <stop offset="0.366667" stop-color="#D6850E" />
      <stop offset="1" stop-color="#CC861F" stop-opacity="0" />
    </linearGradient>
    <linearGradient id="paint43_linear_6903_5272" x1="5.50391" y1="24.2188" x2="5.50391" y2="22.6484" gradientUnits="userSpaceOnUse">
      <stop stop-color="#FF91B9" />
      <stop offset="1" stop-color="#FD679E" stop-opacity="0" />
    </linearGradient>
    <linearGradient id="paint44_linear_6903_5272" x1="8.88672" y1="22" x2="7.92572" y2="22" gradientUnits="userSpaceOnUse">
      <stop stop-color="#FFB445" />
      <stop offset="1" stop-color="#E9A239" stop-opacity="0.921875" />
    </linearGradient>
    <linearGradient id="paint45_linear_6903_5272" x1="7.48822" y1="22.0469" x2="8.42572" y2="22.0469" gradientUnits="userSpaceOnUse">
      <stop offset="0.366667" stop-color="#D6850E" />
      <stop offset="1" stop-color="#CC861F" stop-opacity="0" />
    </linearGradient>
    <linearGradient id="paint46_linear_6903_5272" x1="8.55078" y1="24.2188" x2="8.55078" y2="22.6484" gradientUnits="userSpaceOnUse">
      <stop stop-color="#FF91B9" />
      <stop offset="1" stop-color="#FD679E" stop-opacity="0" />
    </linearGradient>
    <linearGradient id="paint47_linear_6903_5272" x1="9.13666" y1="23.3047" x2="8.59516" y2="18.9978" gradientUnits="userSpaceOnUse">
      <stop stop-color="#FFC270" />
      <stop offset="0.769643" stop-color="#FFE2BB" stop-opacity="0" />
    </linearGradient>
    <linearGradient id="paint48_linear_6903_5272" x1="6.08978" y1="23.3047" x2="5.54828" y2="18.9978" gradientUnits="userSpaceOnUse">
      <stop stop-color="#FFC270" />
      <stop offset="0.769643" stop-color="#FFE2BB" stop-opacity="0" />
    </linearGradient>
  </defs>
</svg>