<svg width="100%" height="100%" viewBox="0 0 32 32" fill="none" xmlns="http://www.w3.org/2000/svg">
  <path d="M27.9617 26.0652V6.42191C27.9617 4.98441 26.6257 4.28128 25.532 5.29691L21.5184 9.24913C21.3313 9.43334 21.0793 9.53659 20.8167 9.53659H11.2204C10.9578 9.53659 10.7058 9.43334 10.5188 9.24913L6.50513 5.29691C5.41138 4.28128 4.07544 4.98441 4.07544 6.42191V26.0652C4.07544 28.277 5.83537 30.0703 8.00597 30.0703H24.0312C26.2018 30.0703 27.9617 28.277 27.9617 26.0652Z" fill="url(#paint0_linear_28327_2053)" />
  <path d="M27.9617 26.0652V6.42191C27.9617 4.98441 26.6257 4.28128 25.532 5.29691L21.5184 9.24913C21.3313 9.43334 21.0793 9.53659 20.8167 9.53659H11.2204C10.9578 9.53659 10.7058 9.43334 10.5188 9.24913L6.50513 5.29691C5.41138 4.28128 4.07544 4.98441 4.07544 6.42191V26.0652C4.07544 28.277 5.83537 30.0703 8.00597 30.0703H24.0312C26.2018 30.0703 27.9617 28.277 27.9617 26.0652Z" fill="url(#paint1_linear_28327_2053)" />
  <path d="M27.9617 26.0652V6.42191C27.9617 4.98441 26.6257 4.28128 25.532 5.29691L21.5184 9.24913C21.3313 9.43334 21.0793 9.53659 20.8167 9.53659H11.2204C10.9578 9.53659 10.7058 9.43334 10.5188 9.24913L6.50513 5.29691C5.41138 4.28128 4.07544 4.98441 4.07544 6.42191V26.0652C4.07544 28.277 5.83537 30.0703 8.00597 30.0703H24.0312C26.2018 30.0703 27.9617 28.277 27.9617 26.0652Z" fill="url(#paint2_linear_28327_2053)" />
  <path d="M27.9617 26.0652V6.42191C27.9617 4.98441 26.6257 4.28128 25.532 5.29691L21.5184 9.24913C21.3313 9.43334 21.0793 9.53659 20.8167 9.53659H11.2204C10.9578 9.53659 10.7058 9.43334 10.5188 9.24913L6.50513 5.29691C5.41138 4.28128 4.07544 4.98441 4.07544 6.42191V26.0652C4.07544 28.277 5.83537 30.0703 8.00597 30.0703H24.0312C26.2018 30.0703 27.9617 28.277 27.9617 26.0652Z" fill="url(#paint3_linear_28327_2053)" />
  <path d="M27.9617 26.0652V6.42191C27.9617 4.98441 26.6257 4.28128 25.532 5.29691L21.5184 9.24913C21.3313 9.43334 21.0793 9.53659 20.8167 9.53659H11.2204C10.9578 9.53659 10.7058 9.43334 10.5188 9.24913L6.50513 5.29691C5.41138 4.28128 4.07544 4.98441 4.07544 6.42191V26.0652C4.07544 28.277 5.83537 30.0703 8.00597 30.0703H24.0312C26.2018 30.0703 27.9617 28.277 27.9617 26.0652Z" fill="url(#paint4_linear_28327_2053)" />
  <path d="M27.9617 26.0652V6.42191C27.9617 4.98441 26.6257 4.28128 25.532 5.29691L21.5184 9.24913C21.3313 9.43334 21.0793 9.53659 20.8167 9.53659H11.2204C10.9578 9.53659 10.7058 9.43334 10.5188 9.24913L6.50513 5.29691C5.41138 4.28128 4.07544 4.98441 4.07544 6.42191V26.0652C4.07544 28.277 5.83537 30.0703 8.00597 30.0703H24.0312C26.2018 30.0703 27.9617 28.277 27.9617 26.0652Z" fill="url(#paint5_radial_28327_2053)" />
  <g filter="url(#filter0_f_28327_2053)">
    <rect x="5.05408" y="21.8203" width="2.72692" height="3.69801" rx="1.36346" fill="#D67908" />
  </g>
  <g filter="url(#filter1_f_28327_2053)">
    <path d="M20.7508 10.2007C17.7675 10.3082 25.9773 15.1544 25.9773 15.1544L27.1023 6.09195C27.157 5.63101 26.7382 5.13844 25.8523 5.96097C25.8523 5.96097 22.0258 9.72898 21.8387 9.91319C21.6516 10.0974 21.4307 10.1621 21.1371 10.2007C20.9875 10.2203 20.9015 10.1952 20.7508 10.2007Z" fill="url(#paint6_linear_28327_2053)" />
  </g>
  <path d="M6.13261 13.5034L8.93261 10.9034C9.25261 10.6034 9.25261 10.1234 8.93261 9.83344L5.91793 7.15626C5.53511 6.82032 4.74261 6.9297 4.74261 7.76344V12.9634C4.74261 13.7969 5.62261 13.9834 6.13261 13.5034Z" fill="url(#paint7_linear_28327_2053)" />
  <g filter="url(#filter2_f_28327_2053)">
    <path d="M26.4909 5.65184C26.5488 5.50816 26.6882 5.41406 26.8431 5.41406V5.41406C27.0529 5.41406 27.2229 5.58411 27.2229 5.79388V8.03906L25.8055 7.35156L26.4909 5.65184Z" fill="url(#paint8_linear_28327_2053)" />
  </g>
  <g filter="url(#filter3_f_28327_2053)">
    <path d="M5.44611 5.72656L8.82107 8.9461C9.57518 9.66548 9.58931 10.8646 8.85236 11.6016V11.6016" stroke="#FFDF70" stroke-linecap="round" />
  </g>
  <g filter="url(#filter4_f_28327_2053)">
    <path d="M14.8054 20.6503L14.8697 20.6353C15.3433 20.5248 15.8365 20.53 16.3077 20.6503V20.6503C16.8288 20.7484 17.1399 21.3458 16.6999 21.7758L16.1491 22.3773C15.8791 22.6473 15.2863 22.6473 15.0163 22.3773L14.4733 21.7758C14.0241 21.2679 14.3054 20.7601 14.8054 20.6503Z" fill="url(#paint9_linear_28327_2053)" />
  </g>
  <path d="M15.2265 20.2066L15.2908 20.1916C15.7644 20.0811 16.2577 20.0862 16.7289 20.2066V20.2066C17.25 20.3047 17.561 20.902 17.121 21.332L16.5703 21.9336C16.3003 22.2036 15.7075 22.2036 15.4375 21.9336L14.8945 21.332C14.4453 20.8242 14.7265 20.3164 15.2265 20.2066Z" fill="url(#paint10_radial_28327_2053)" />
  <g filter="url(#filter5_f_28327_2053)">
    <ellipse cx="16.2703" cy="20.7414" rx="0.761719" ry="0.274258" fill="url(#paint11_linear_28327_2053)" />
  </g>
  <g filter="url(#filter6_f_28327_2053)">
    <path d="M24.7851 22.8922L28.5898 21.0797" stroke="url(#paint12_linear_28327_2053)" stroke-width="1.2" stroke-miterlimit="10" stroke-linecap="round" />
  </g>
  <g filter="url(#filter7_f_28327_2053)">
    <path d="M24.7851 24.9235L26.7117 26.2891" stroke="url(#paint13_linear_28327_2053)" stroke-width="1.2" stroke-miterlimit="10" stroke-linecap="round" />
  </g>
  <path d="M25.5663 22.5391L29.371 20.7266" stroke="url(#paint14_linear_28327_2053)" stroke-width="1.2" stroke-miterlimit="10" stroke-linecap="round" />
  <g filter="url(#filter8_f_28327_2053)">
    <path d="M25.5663 22.7109L29.371 20.8984" stroke="#FF8485" stroke-width="0.3" stroke-miterlimit="10" stroke-linecap="round" />
  </g>
  <g filter="url(#filter9_f_28327_2053)">
    <ellipse cx="29.6059" cy="20.5805" rx="0.18384" ry="0.165827" transform="rotate(-22.7455 29.6059 20.5805)" fill="#FFDD86" />
  </g>
  <path d="M25.5636 24.6692L29.3652 26.4883" stroke="url(#paint15_linear_28327_2053)" stroke-width="1.2" stroke-miterlimit="10" stroke-linecap="round" />
  <g filter="url(#filter10_f_28327_2053)">
    <path d="M25.4984 24.5491L29.3 26.3682" stroke="#FF8485" stroke-width="0.3" stroke-miterlimit="10" stroke-linecap="round" />
  </g>
  <g filter="url(#filter11_f_28327_2053)">
    <ellipse cx="29.5405" cy="26.3682" rx="0.18384" ry="0.165827" transform="rotate(28.2981 29.5405 26.3682)" fill="#FFDD86" />
  </g>
  <path d="M6.5281 24.681L2.72654 26.5" stroke="url(#paint16_linear_28327_2053)" stroke-width="1.2" stroke-miterlimit="10" stroke-linecap="round" />
  <g filter="url(#filter12_f_28327_2053)">
    <path d="M6.59334 24.5608L2.79179 26.3799" stroke="#FF8485" stroke-width="0.3" stroke-miterlimit="10" stroke-linecap="round" />
  </g>
  <g filter="url(#filter13_f_28327_2053)">
    <ellipse rx="0.18384" ry="0.165827" transform="matrix(-0.942776 -0.333427 -0.333427 0.942776 6.64614 24.505)" fill="#FFDD86" />
  </g>
  <path d="M6.53969 22.5243L2.72612 20.7305" stroke="url(#paint17_linear_28327_2053)" stroke-width="1.2" stroke-miterlimit="10" stroke-linecap="round" />
  <g filter="url(#filter14_f_28327_2053)">
    <path d="M6.67403 22.4989L2.86046 20.7052" stroke="#FF8485" stroke-width="0.3" stroke-miterlimit="10" stroke-linecap="round" />
  </g>
  <g filter="url(#filter15_f_28327_2053)">
    <ellipse rx="0.18384" ry="0.165827" transform="matrix(-0.338111 -0.941106 -0.941106 0.338111 6.75078 22.5044)" fill="#FFDD86" />
  </g>
  <path d="M20.4179 23.0547C20.4179 25.4947 18.436 27.3906 15.996 27.3906C13.556 27.3906 11.6835 25.4478 11.6835 23.0078C11.6835 23.0078 13.4882 25.1406 15.996 23.0078C18.3476 25.0859 20.4179 23.0547 20.4179 23.0547Z" fill="url(#paint18_linear_28327_2053)" />
  <g filter="url(#filter16_f_28327_2053)">
    <path d="M19.4316 20.4682C19.0065 20.4682 18.6563 20.1251 18.6563 19.7086V18.2872C18.6563 17.8707 19.0065 17.5276 19.4316 17.5276C19.8568 17.5276 20.2069 17.8707 20.2069 18.2872V19.7086C20.2069 20.1374 19.8568 20.4682 19.4316 20.4682Z" fill="url(#paint19_linear_28327_2053)" />
  </g>
  <path d="M19.9707 20.0859C19.5456 20.0859 19.1954 19.7428 19.1954 19.3262V17.9049C19.1954 17.4883 19.5456 17.1453 19.9707 17.1453C20.3959 17.1453 20.7461 17.4883 20.7461 17.9049V19.3262C20.7461 19.7551 20.3959 20.0859 19.9707 20.0859Z" fill="url(#paint20_linear_28327_2053)" />
  <path d="M19.9707 20.0859C19.5456 20.0859 19.1954 19.7428 19.1954 19.3262V17.9049C19.1954 17.4883 19.5456 17.1453 19.9707 17.1453C20.3959 17.1453 20.7461 17.4883 20.7461 17.9049V19.3262C20.7461 19.7551 20.3959 20.0859 19.9707 20.0859Z" fill="url(#paint21_linear_28327_2053)" />
  <g filter="url(#filter17_f_28327_2053)">
    <path d="M11.6054 20.4682C11.1802 20.4682 10.8301 20.1251 10.8301 19.7086V18.2872C10.8301 17.8707 11.1802 17.5276 11.6054 17.5276C12.0306 17.5276 12.3807 17.8707 12.3807 18.2872V19.7086C12.3807 20.1374 12.0306 20.4682 11.6054 20.4682Z" fill="url(#paint22_linear_28327_2053)" />
  </g>
  <path d="M12.029 20.0859C11.6038 20.0859 11.2537 19.7428 11.2537 19.3262V17.9049C11.2537 17.4883 11.6038 17.1453 12.029 17.1453C12.4541 17.1453 12.8043 17.4883 12.8043 17.9049V19.3262C12.8043 19.7551 12.4541 20.0859 12.029 20.0859Z" fill="url(#paint23_linear_28327_2053)" />
  <path d="M12.029 20.0859C11.6038 20.0859 11.2537 19.7428 11.2537 19.3262V17.9049C11.2537 17.4883 11.6038 17.1453 12.029 17.1453C12.4541 17.1453 12.8043 17.4883 12.8043 17.9049V19.3262C12.8043 19.7551 12.4541 20.0859 12.029 20.0859Z" fill="url(#paint24_linear_28327_2053)" />
  <g filter="url(#filter18_f_28327_2053)">
    <circle cx="20.2069" cy="17.7638" r="0.236228" fill="#775B70" />
  </g>
  <g filter="url(#filter19_f_28327_2053)">
    <circle cx="12.2652" cy="17.7638" r="0.236228" fill="#775B70" />
  </g>
  <g filter="url(#filter20_f_28327_2053)">
    <rect x="22.1024" y="10.1016" width="4.5851" height="14.1857" fill="url(#paint25_linear_28327_2053)" />
  </g>
  <path d="M25.8329 13.5034L23.0329 10.9034C22.7129 10.6034 22.7129 10.1234 23.0329 9.83344L26.0476 7.15626C26.4304 6.82032 27.2229 6.9297 27.2229 7.76344V12.9634C27.2229 13.7969 26.3429 13.9834 25.8329 13.5034Z" fill="#FFB915" />
  <path d="M25.8329 13.5034L23.0329 10.9034C22.7129 10.6034 22.7129 10.1234 23.0329 9.83344L26.0476 7.15626C26.4304 6.82032 27.2229 6.9297 27.2229 7.76344V12.9634C27.2229 13.7969 26.3429 13.9834 25.8329 13.5034Z" fill="url(#paint26_linear_28327_2053)" />
  <g filter="url(#filter21_f_28327_2053)">
    <path d="M26.6336 7.36719L23.0086 10.4922L26.5555 13.3047L26.6336 7.36719Z" fill="url(#paint27_radial_28327_2053)" />
  </g>
  <g filter="url(#filter22_f_28327_2053)">
    <path d="M23.7274 10.2891L26.2586 13.0234" stroke="url(#paint28_linear_28327_2053)" stroke-width="0.5" stroke-linecap="round" />
  </g>
  <g filter="url(#filter23_f_28327_2053)">
    <path d="M5.22321 7.49927V13.407L8.69196 10.3176L5.22321 7.49927Z" fill="#FEB33E" />
  </g>
  <g filter="url(#filter24_f_28327_2053)">
    <path d="M5.22321 7.72656V12.9141" stroke="#FFE7A3" stroke-width="0.15" stroke-linecap="round" />
  </g>
  <defs>
    <filter id="filter0_f_28327_2053" x="3.55408" y="20.3203" width="5.72693" height="6.698" filterUnits="userSpaceOnUse" color-interpolation-filters="sRGB">
      <feFlood flood-opacity="0" result="BackgroundImageFix" />
      <feBlend mode="normal" in="SourceGraphic" in2="BackgroundImageFix" result="shape" />
      <feGaussianBlur stdDeviation="0.75" result="effect1_foregroundBlur_28327_2053" />
    </filter>
    <filter id="filter1_f_28327_2053" x="19.098" y="4.5188" width="9.00903" height="11.6356" filterUnits="userSpaceOnUse" color-interpolation-filters="sRGB">
      <feFlood flood-opacity="0" result="BackgroundImageFix" />
      <feBlend mode="normal" in="SourceGraphic" in2="BackgroundImageFix" result="shape" />
      <feGaussianBlur stdDeviation="0.5" result="effect1_foregroundBlur_28327_2053" />
    </filter>
    <filter id="filter2_f_28327_2053" x="24.8055" y="4.41406" width="3.41742" height="4.625" filterUnits="userSpaceOnUse" color-interpolation-filters="sRGB">
      <feFlood flood-opacity="0" result="BackgroundImageFix" />
      <feBlend mode="normal" in="SourceGraphic" in2="BackgroundImageFix" result="shape" />
      <feGaussianBlur stdDeviation="0.5" result="effect1_foregroundBlur_28327_2053" />
    </filter>
    <filter id="filter3_f_28327_2053" x="2.94611" y="3.22656" width="8.94989" height="10.7285" filterUnits="userSpaceOnUse" color-interpolation-filters="sRGB">
      <feFlood flood-opacity="0" result="BackgroundImageFix" />
      <feBlend mode="normal" in="SourceGraphic" in2="BackgroundImageFix" result="shape" />
      <feGaussianBlur stdDeviation="1" result="effect1_foregroundBlur_28327_2053" />
    </filter>
    <filter id="filter4_f_28327_2053" x="13.7482" y="20.056" width="3.66144" height="3.0238" filterUnits="userSpaceOnUse" color-interpolation-filters="sRGB">
      <feFlood flood-opacity="0" result="BackgroundImageFix" />
      <feBlend mode="normal" in="SourceGraphic" in2="BackgroundImageFix" result="shape" />
      <feGaussianBlur stdDeviation="0.25" result="effect1_foregroundBlur_28327_2053" />
    </filter>
    <filter id="filter5_f_28327_2053" x="14.9086" y="19.8672" width="2.72344" height="1.74846" filterUnits="userSpaceOnUse" color-interpolation-filters="sRGB">
      <feFlood flood-opacity="0" result="BackgroundImageFix" />
      <feBlend mode="normal" in="SourceGraphic" in2="BackgroundImageFix" result="shape" />
      <feGaussianBlur stdDeviation="0.3" result="effect1_foregroundBlur_28327_2053" />
    </filter>
    <filter id="filter6_f_28327_2053" x="23.6849" y="19.9796" width="6.005" height="4.0127" filterUnits="userSpaceOnUse" color-interpolation-filters="sRGB">
      <feFlood flood-opacity="0" result="BackgroundImageFix" />
      <feBlend mode="normal" in="SourceGraphic" in2="BackgroundImageFix" result="shape" />
      <feGaussianBlur stdDeviation="0.25" result="effect1_foregroundBlur_28327_2053" />
    </filter>
    <filter id="filter7_f_28327_2053" x="23.6851" y="23.8235" width="4.12671" height="3.56567" filterUnits="userSpaceOnUse" color-interpolation-filters="sRGB">
      <feFlood flood-opacity="0" result="BackgroundImageFix" />
      <feBlend mode="normal" in="SourceGraphic" in2="BackgroundImageFix" result="shape" />
      <feGaussianBlur stdDeviation="0.25" result="effect1_foregroundBlur_28327_2053" />
    </filter>
    <filter id="filter8_f_28327_2053" x="24.9163" y="20.2484" width="5.10474" height="3.11255" filterUnits="userSpaceOnUse" color-interpolation-filters="sRGB">
      <feFlood flood-opacity="0" result="BackgroundImageFix" />
      <feBlend mode="normal" in="SourceGraphic" in2="BackgroundImageFix" result="shape" />
      <feGaussianBlur stdDeviation="0.25" result="effect1_foregroundBlur_28327_2053" />
    </filter>
    <filter id="filter9_f_28327_2053" x="28.9246" y="19.9119" width="1.36261" height="1.33728" filterUnits="userSpaceOnUse" color-interpolation-filters="sRGB">
      <feFlood flood-opacity="0" result="BackgroundImageFix" />
      <feBlend mode="normal" in="SourceGraphic" in2="BackgroundImageFix" result="shape" />
      <feGaussianBlur stdDeviation="0.25" result="effect1_foregroundBlur_28327_2053" />
    </filter>
    <filter id="filter10_f_28327_2053" x="24.8483" y="23.899" width="5.10168" height="3.11914" filterUnits="userSpaceOnUse" color-interpolation-filters="sRGB">
      <feFlood flood-opacity="0" result="BackgroundImageFix" />
      <feBlend mode="normal" in="SourceGraphic" in2="BackgroundImageFix" result="shape" />
      <feGaussianBlur stdDeviation="0.25" result="effect1_foregroundBlur_28327_2053" />
    </filter>
    <filter id="filter11_f_28327_2053" x="28.8605" y="25.6981" width="1.35999" height="1.34009" filterUnits="userSpaceOnUse" color-interpolation-filters="sRGB">
      <feFlood flood-opacity="0" result="BackgroundImageFix" />
      <feBlend mode="normal" in="SourceGraphic" in2="BackgroundImageFix" result="shape" />
      <feGaussianBlur stdDeviation="0.25" result="effect1_foregroundBlur_28327_2053" />
    </filter>
    <filter id="filter12_f_28327_2053" x="2.14172" y="23.9108" width="5.10168" height="3.11914" filterUnits="userSpaceOnUse" color-interpolation-filters="sRGB">
      <feFlood flood-opacity="0" result="BackgroundImageFix" />
      <feBlend mode="normal" in="SourceGraphic" in2="BackgroundImageFix" result="shape" />
      <feGaussianBlur stdDeviation="0.25" result="effect1_foregroundBlur_28327_2053" />
    </filter>
    <filter id="filter13_f_28327_2053" x="5.96417" y="23.837" width="1.36395" height="1.33594" filterUnits="userSpaceOnUse" color-interpolation-filters="sRGB">
      <feFlood flood-opacity="0" result="BackgroundImageFix" />
      <feBlend mode="normal" in="SourceGraphic" in2="BackgroundImageFix" result="shape" />
      <feGaussianBlur stdDeviation="0.25" result="effect1_foregroundBlur_28327_2053" />
    </filter>
    <filter id="filter14_f_28327_2053" x="2.21045" y="20.0552" width="5.11365" height="3.09375" filterUnits="userSpaceOnUse" color-interpolation-filters="sRGB">
      <feFlood flood-opacity="0" result="BackgroundImageFix" />
      <feBlend mode="normal" in="SourceGraphic" in2="BackgroundImageFix" result="shape" />
      <feGaussianBlur stdDeviation="0.25" result="effect1_foregroundBlur_28327_2053" />
    </filter>
    <filter id="filter15_f_28327_2053" x="6.08276" y="21.8225" width="1.33606" height="1.36377" filterUnits="userSpaceOnUse" color-interpolation-filters="sRGB">
      <feFlood flood-opacity="0" result="BackgroundImageFix" />
      <feBlend mode="normal" in="SourceGraphic" in2="BackgroundImageFix" result="shape" />
      <feGaussianBlur stdDeviation="0.25" result="effect1_foregroundBlur_28327_2053" />
    </filter>
    <filter id="filter16_f_28327_2053" x="18.1563" y="17.0276" width="2.5506" height="3.94067" filterUnits="userSpaceOnUse" color-interpolation-filters="sRGB">
      <feFlood flood-opacity="0" result="BackgroundImageFix" />
      <feBlend mode="normal" in="SourceGraphic" in2="BackgroundImageFix" result="shape" />
      <feGaussianBlur stdDeviation="0.25" result="effect1_foregroundBlur_28327_2053" />
    </filter>
    <filter id="filter17_f_28327_2053" x="10.3301" y="17.0276" width="2.5506" height="3.94067" filterUnits="userSpaceOnUse" color-interpolation-filters="sRGB">
      <feFlood flood-opacity="0" result="BackgroundImageFix" />
      <feBlend mode="normal" in="SourceGraphic" in2="BackgroundImageFix" result="shape" />
      <feGaussianBlur stdDeviation="0.25" result="effect1_foregroundBlur_28327_2053" />
    </filter>
    <filter id="filter18_f_28327_2053" x="19.4707" y="17.0276" width="1.47247" height="1.47241" filterUnits="userSpaceOnUse" color-interpolation-filters="sRGB">
      <feFlood flood-opacity="0" result="BackgroundImageFix" />
      <feBlend mode="normal" in="SourceGraphic" in2="BackgroundImageFix" result="shape" />
      <feGaussianBlur stdDeviation="0.25" result="effect1_foregroundBlur_28327_2053" />
    </filter>
    <filter id="filter19_f_28327_2053" x="11.529" y="17.0276" width="1.47247" height="1.47241" filterUnits="userSpaceOnUse" color-interpolation-filters="sRGB">
      <feFlood flood-opacity="0" result="BackgroundImageFix" />
      <feBlend mode="normal" in="SourceGraphic" in2="BackgroundImageFix" result="shape" />
      <feGaussianBlur stdDeviation="0.25" result="effect1_foregroundBlur_28327_2053" />
    </filter>
    <filter id="filter20_f_28327_2053" x="18.1024" y="6.10156" width="12.5851" height="22.1857" filterUnits="userSpaceOnUse" color-interpolation-filters="sRGB">
      <feFlood flood-opacity="0" result="BackgroundImageFix" />
      <feBlend mode="normal" in="SourceGraphic" in2="BackgroundImageFix" result="shape" />
      <feGaussianBlur stdDeviation="2" result="effect1_foregroundBlur_28327_2053" />
    </filter>
    <filter id="filter21_f_28327_2053" x="22.4086" y="6.76719" width="4.825" height="7.1375" filterUnits="userSpaceOnUse" color-interpolation-filters="sRGB">
      <feFlood flood-opacity="0" result="BackgroundImageFix" />
      <feBlend mode="normal" in="SourceGraphic" in2="BackgroundImageFix" result="shape" />
      <feGaussianBlur stdDeviation="0.3" result="effect1_foregroundBlur_28327_2053" />
    </filter>
    <filter id="filter22_f_28327_2053" x="22.7274" y="9.28906" width="4.53125" height="4.73438" filterUnits="userSpaceOnUse" color-interpolation-filters="sRGB">
      <feFlood flood-opacity="0" result="BackgroundImageFix" />
      <feBlend mode="normal" in="SourceGraphic" in2="BackgroundImageFix" result="shape" />
      <feGaussianBlur stdDeviation="0.375" result="effect1_foregroundBlur_28327_2053" />
    </filter>
    <filter id="filter23_f_28327_2053" x="4.72321" y="6.99927" width="4.46875" height="6.90771" filterUnits="userSpaceOnUse" color-interpolation-filters="sRGB">
      <feFlood flood-opacity="0" result="BackgroundImageFix" />
      <feBlend mode="normal" in="SourceGraphic" in2="BackgroundImageFix" result="shape" />
      <feGaussianBlur stdDeviation="0.25" result="effect1_foregroundBlur_28327_2053" />
    </filter>
    <filter id="filter24_f_28327_2053" x="4.64819" y="7.15161" width="1.15002" height="6.3374" filterUnits="userSpaceOnUse" color-interpolation-filters="sRGB">
      <feFlood flood-opacity="0" result="BackgroundImageFix" />
      <feBlend mode="normal" in="SourceGraphic" in2="BackgroundImageFix" result="shape" />
      <feGaussianBlur stdDeviation="0.25" result="effect1_foregroundBlur_28327_2053" />
    </filter>
    <linearGradient id="paint0_linear_28327_2053" x1="7.96361" y1="1.13036" x2="7.96361" y2="31.0703" gradientUnits="userSpaceOnUse">
      <stop offset="0.288159" stop-color="#F2CC26" />
      <stop offset="0.762024" stop-color="#E99E20" />
      <stop offset="0.9925" stop-color="#E3821D" />
      <stop offset="1" stop-color="#E3801D" />
    </linearGradient>
    <linearGradient id="paint1_linear_28327_2053" x1="8.88356" y1="11.9216" x2="1.25856" y2="11.9216" gradientUnits="userSpaceOnUse">
      <stop stop-color="#E99E20" stop-opacity="0" />
      <stop offset="0.9925" stop-color="#E3821D" />
      <stop offset="1" stop-color="#E3801D" />
    </linearGradient>
    <linearGradient id="paint2_linear_28327_2053" x1="26.7586" y1="11.9216" x2="30.1961" y2="11.9216" gradientUnits="userSpaceOnUse">
      <stop stop-color="#E99E20" stop-opacity="0" />
      <stop offset="0.9925" stop-color="#E3821D" />
      <stop offset="1" stop-color="#E3801D" />
    </linearGradient>
    <linearGradient id="paint3_linear_28327_2053" x1="16.0195" y1="-1.84378" x2="16.0186" y2="31.0703" gradientUnits="userSpaceOnUse">
      <stop offset="0.77079" stop-color="#F59639" stop-opacity="0" />
      <stop offset="1" stop-color="#FF63C4" />
    </linearGradient>
    <linearGradient id="paint4_linear_28327_2053" x1="16.0186" y1="11.1328" x2="16.0186" y2="32.5703" gradientUnits="userSpaceOnUse">
      <stop offset="0.854227" stop-color="white" stop-opacity="0" />
      <stop offset="0.985362" stop-color="white" />
    </linearGradient>
    <radialGradient id="paint5_radial_28327_2053" cx="0" cy="0" r="1" gradientUnits="userSpaceOnUse" gradientTransform="translate(22.1648 4.28909) rotate(55.8501) scale(5.39983 10.6704)">
      <stop stop-color="#FFA720" />
      <stop offset="0.921158" stop-color="#FFA720" stop-opacity="0" />
    </radialGradient>
    <linearGradient id="paint6_linear_28327_2053" x1="21.9081" y1="6.85159" x2="28.1649" y2="13.6953" gradientUnits="userSpaceOnUse">
      <stop stop-color="#FFA720" />
      <stop offset="1" stop-color="#FFA720" stop-opacity="0" />
    </linearGradient>
    <linearGradient id="paint7_linear_28327_2053" x1="10.6024" y1="10.6172" x2="4.74261" y2="10.0703" gradientUnits="userSpaceOnUse">
      <stop offset="0.437473" stop-color="#ED8C1B" />
      <stop offset="1" stop-color="#FFB03A" />
    </linearGradient>
    <linearGradient id="paint8_linear_28327_2053" x1="27.0399" y1="4.96094" x2="26.4438" y2="7.30239" gradientUnits="userSpaceOnUse">
      <stop offset="0.28598" stop-color="#FFE792" />
      <stop offset="1" stop-color="#FFDD65" stop-opacity="0" />
    </linearGradient>
    <linearGradient id="paint9_linear_28327_2053" x1="15.7507" y1="22.3512" x2="15.0789" y2="23.445" gradientUnits="userSpaceOnUse">
      <stop stop-color="#E3900E" />
      <stop offset="1" stop-color="#EA9D26" stop-opacity="0" />
    </linearGradient>
    <radialGradient id="paint10_radial_28327_2053" cx="0" cy="0" r="1" gradientUnits="userSpaceOnUse" gradientTransform="translate(16.4461 21.1797) rotate(-153.246) scale(2.11729 2.12981)">
      <stop stop-color="#EA088B" />
      <stop offset="1" stop-color="#E61E27" />
    </radialGradient>
    <linearGradient id="paint11_linear_28327_2053" x1="17.2036" y1="20.7414" x2="15.6801" y2="20.7414" gradientUnits="userSpaceOnUse">
      <stop stop-color="white" stop-opacity="0.9" />
      <stop offset="1" stop-color="white" stop-opacity="0" />
    </linearGradient>
    <linearGradient id="paint12_linear_28327_2053" x1="24.2898" y1="23.236" x2="28.0242" y2="21.3203" gradientUnits="userSpaceOnUse">
      <stop stop-color="#E88105" />
      <stop offset="1" stop-color="#E37D02" stop-opacity="0" />
    </linearGradient>
    <linearGradient id="paint13_linear_28327_2053" x1="24.2898" y1="24.5798" x2="28.0242" y2="26.4955" gradientUnits="userSpaceOnUse">
      <stop offset="0.286458" stop-color="#DE7D07" />
      <stop offset="0.817708" stop-color="#E37D02" stop-opacity="0" />
    </linearGradient>
    <linearGradient id="paint14_linear_28327_2053" x1="25.2898" y1="22.9453" x2="29.371" y2="21.0078" gradientUnits="userSpaceOnUse">
      <stop offset="0.15625" stop-color="#D64A38" />
      <stop offset="1" stop-color="#FB7425" />
    </linearGradient>
    <linearGradient id="paint15_linear_28327_2053" x1="25.0739" y1="24.7096" x2="29.1465" y2="26.6651" gradientUnits="userSpaceOnUse">
      <stop offset="0.15625" stop-color="#D64A38" />
      <stop offset="1" stop-color="#FB7425" />
    </linearGradient>
    <linearGradient id="paint16_linear_28327_2053" x1="7.01785" y1="24.7214" x2="2.94525" y2="26.6768" gradientUnits="userSpaceOnUse">
      <stop offset="0.15625" stop-color="#D64A38" />
      <stop offset="1" stop-color="#FB7425" />
    </linearGradient>
    <linearGradient id="paint17_linear_28327_2053" x1="6.8182" y1="22.9292" x2="2.72751" y2="21.0118" gradientUnits="userSpaceOnUse">
      <stop offset="0.15625" stop-color="#D64A38" />
      <stop offset="1" stop-color="#FB7425" />
    </linearGradient>
    <linearGradient id="paint18_linear_28327_2053" x1="16.0466" y1="27.5225" x2="16.0466" y2="23.1004" gradientUnits="userSpaceOnUse">
      <stop stop-color="#E61E27" />
      <stop offset="1" stop-color="#672A7A" />
    </linearGradient>
    <linearGradient id="paint19_linear_28327_2053" x1="20.6882" y1="19.6797" x2="21.6884" y2="23.1407" gradientUnits="userSpaceOnUse">
      <stop stop-color="#EC9611" />
      <stop offset="1" stop-color="#EA9D26" stop-opacity="0" />
    </linearGradient>
    <linearGradient id="paint20_linear_28327_2053" x1="22.8992" y1="18.2109" x2="18.4305" y2="18.2109" gradientUnits="userSpaceOnUse">
      <stop stop-color="#432A3D" />
      <stop offset="0.567708" stop-color="#684E61" />
      <stop offset="0.765625" stop-color="#43253D" />
    </linearGradient>
    <linearGradient id="paint21_linear_28327_2053" x1="20.3211" y1="18.0546" x2="20.3211" y2="20.3515" gradientUnits="userSpaceOnUse">
      <stop offset="0.326531" stop-color="#43253D" stop-opacity="0" />
      <stop offset="1" stop-color="#43253D" />
    </linearGradient>
    <linearGradient id="paint22_linear_28327_2053" x1="12.862" y1="19.6797" x2="13.8622" y2="23.1407" gradientUnits="userSpaceOnUse">
      <stop stop-color="#E89311" />
      <stop offset="1" stop-color="#EA9D26" stop-opacity="0" />
    </linearGradient>
    <linearGradient id="paint23_linear_28327_2053" x1="14.9575" y1="18.2109" x2="10.4887" y2="18.2109" gradientUnits="userSpaceOnUse">
      <stop stop-color="#432A3D" />
      <stop offset="0.567708" stop-color="#684E61" />
      <stop offset="0.765625" stop-color="#43253D" />
    </linearGradient>
    <linearGradient id="paint24_linear_28327_2053" x1="12.3793" y1="18.0546" x2="12.3793" y2="20.3515" gradientUnits="userSpaceOnUse">
      <stop offset="0.326531" stop-color="#43253D" stop-opacity="0" />
      <stop offset="1" stop-color="#43253D" />
    </linearGradient>
    <linearGradient id="paint25_linear_28327_2053" x1="23.3524" y1="10.8385" x2="22.9558" y2="22.8891" gradientUnits="userSpaceOnUse">
      <stop offset="0.548257" stop-color="#FFDD65" />
      <stop offset="1" stop-color="#FFDD65" stop-opacity="0" />
    </linearGradient>
    <linearGradient id="paint26_linear_28327_2053" x1="26.5398" y1="15.5078" x2="25.2898" y2="12.0391" gradientUnits="userSpaceOnUse">
      <stop stop-color="#EF8A47" />
      <stop offset="1" stop-color="#EF8A47" stop-opacity="0" />
    </linearGradient>
    <radialGradient id="paint27_radial_28327_2053" cx="0" cy="0" r="1" gradientUnits="userSpaceOnUse" gradientTransform="translate(22.868 7.77344) rotate(55.7389) scale(7.82686 9.38424)">
      <stop stop-color="#FFDF70" />
      <stop offset="1" stop-color="#FFDF70" stop-opacity="0" />
    </radialGradient>
    <linearGradient id="paint28_linear_28327_2053" x1="25.0555" y1="10.4766" x2="25.0555" y2="12.8203" gradientUnits="userSpaceOnUse">
      <stop offset="0.432292" stop-color="#FFE7A3" />
      <stop offset="1" stop-color="#FFDF83" stop-opacity="0" />
    </linearGradient>
  </defs>
</svg>