<svg width="100%" height="100%" viewBox="0 0 32 32" fill="none" xmlns="http://www.w3.org/2000/svg">
  <path fill-rule="evenodd" clip-rule="evenodd" d="M3.47635 11.8789C3.78963 11.6524 4.22723 11.7227 4.45376 12.036C4.49826 12.0975 4.54182 12.1724 4.56886 12.2189C4.57087 12.2223 4.5728 12.2256 4.57462 12.2288L4.5756 12.2305C4.6092 12.2881 4.64178 12.344 4.68034 12.4046C4.757 12.5251 4.85103 12.6537 4.97419 12.7744C5.20677 13.0024 5.58168 13.2422 6.24089 13.2743C6.62703 13.2931 6.92481 13.6214 6.906 14.0076C6.88718 14.3937 6.5589 14.6915 6.17276 14.6727C5.14838 14.6227 4.45493 14.2258 3.99415 13.7741C3.77063 13.555 3.61173 13.333 3.49918 13.1562C3.44576 13.0722 3.40139 12.9961 3.36913 12.9407C3.36777 12.9384 3.36644 12.9361 3.36512 12.9338C3.33664 12.885 3.32453 12.8651 3.32058 12.8586C3.31896 12.8559 3.31871 12.8555 3.31927 12.8563C3.09274 12.543 3.16307 12.1054 3.47635 11.8789Z" fill="url(#paint0_linear_4002_4179)" />
  <path fill-rule="evenodd" clip-rule="evenodd" d="M3.47635 11.8789C3.78963 11.6524 4.22723 11.7227 4.45376 12.036C4.49826 12.0975 4.54182 12.1724 4.56886 12.2189C4.57087 12.2223 4.5728 12.2256 4.57462 12.2288L4.5756 12.2305C4.6092 12.2881 4.64178 12.344 4.68034 12.4046C4.757 12.5251 4.85103 12.6537 4.97419 12.7744C5.20677 13.0024 5.58168 13.2422 6.24089 13.2743C6.62703 13.2931 6.92481 13.6214 6.906 14.0076C6.88718 14.3937 6.5589 14.6915 6.17276 14.6727C5.14838 14.6227 4.45493 14.2258 3.99415 13.7741C3.77063 13.555 3.61173 13.333 3.49918 13.1562C3.44576 13.0722 3.40139 12.9961 3.36913 12.9407C3.36777 12.9384 3.36644 12.9361 3.36512 12.9338C3.33664 12.885 3.32453 12.8651 3.32058 12.8586C3.31896 12.8559 3.31871 12.8555 3.31927 12.8563C3.09274 12.543 3.16307 12.1054 3.47635 11.8789Z" fill="url(#paint1_radial_4002_4179)" />
  <g filter="url(#filter0_f_4002_4179)">
    <path d="M4.00635 12.2659C4.20239 12.7677 5.02389 13.6534 6.05826 13.8048" stroke="url(#paint2_linear_4002_4179)" stroke-width="0.6" stroke-linecap="round" />
  </g>
  <path fill-rule="evenodd" clip-rule="evenodd" d="M2.43729 12.1953C2.75057 11.9688 3.18817 12.0391 3.4147 12.3524C3.44871 12.3994 3.48674 12.4563 3.52962 12.5204C3.79115 12.9115 4.23314 13.5723 5.04481 13.9198C5.40021 14.072 5.56498 14.4834 5.41284 14.8388C5.26069 15.1942 4.84924 15.359 4.49384 15.2068C3.2482 14.6736 2.55932 13.6039 2.33855 13.2611C2.31276 13.221 2.29336 13.1909 2.28021 13.1727C2.05368 12.8594 2.12401 12.4218 2.43729 12.1953Z" fill="url(#paint3_linear_4002_4179)" />
  <path fill-rule="evenodd" clip-rule="evenodd" d="M2.43729 12.1953C2.75057 11.9688 3.18817 12.0391 3.4147 12.3524C3.44871 12.3994 3.48674 12.4563 3.52962 12.5204C3.79115 12.9115 4.23314 13.5723 5.04481 13.9198C5.40021 14.072 5.56498 14.4834 5.41284 14.8388C5.26069 15.1942 4.84924 15.359 4.49384 15.2068C3.2482 14.6736 2.55932 13.6039 2.33855 13.2611C2.31276 13.221 2.29336 13.1909 2.28021 13.1727C2.05368 12.8594 2.12401 12.4218 2.43729 12.1953Z" fill="url(#paint4_radial_4002_4179)" />
  <g filter="url(#filter1_f_4002_4179)">
    <path d="M2.92773 12.5459C3.12378 13.0477 3.77211 14.0044 5.05481 14.2691" stroke="url(#paint5_linear_4002_4179)" stroke-width="0.6" stroke-linecap="round" />
  </g>
  <path fill-rule="evenodd" clip-rule="evenodd" d="M2.4051 13.2174C2.7148 12.986 3.15345 13.0495 3.38484 13.3592C3.41226 13.3959 3.4409 13.4357 3.47115 13.4778C3.7726 13.897 4.23441 14.5391 5.24985 14.5391C5.63645 14.5391 5.94985 14.8525 5.94985 15.2391C5.94985 15.6257 5.63645 15.9391 5.24985 15.9391C3.4745 15.9391 2.61317 14.6991 2.32549 14.285C2.3005 14.249 2.27985 14.2193 2.26329 14.1971C2.0319 13.8874 2.09539 13.4488 2.4051 13.2174Z" fill="url(#paint6_linear_4002_4179)" />
  <path fill-rule="evenodd" clip-rule="evenodd" d="M2.4051 13.2174C2.7148 12.986 3.15345 13.0495 3.38484 13.3592C3.41226 13.3959 3.4409 13.4357 3.47115 13.4778C3.7726 13.897 4.23441 14.5391 5.24985 14.5391C5.63645 14.5391 5.94985 14.8525 5.94985 15.2391C5.94985 15.6257 5.63645 15.9391 5.24985 15.9391C3.4745 15.9391 2.61317 14.6991 2.32549 14.285C2.3005 14.249 2.27985 14.2193 2.26329 14.1971C2.0319 13.8874 2.09539 13.4488 2.4051 13.2174Z" fill="url(#paint7_radial_4002_4179)" />
  <g filter="url(#filter2_f_4002_4179)">
    <path d="M2.85779 13.5552C3.09615 14.0383 3.82417 14.9359 5.12484 15.0895" stroke="url(#paint8_linear_4002_4179)" stroke-width="0.6" stroke-linecap="round" />
  </g>
  <path fill-rule="evenodd" clip-rule="evenodd" d="M2.7176 14.2486C3.0273 14.0173 3.46595 14.0807 3.69734 14.3904C3.87833 14.6327 4.35059 15.2305 5.57016 15.2305C5.95676 15.2305 6.27016 15.5439 6.27016 15.9305C6.27016 16.3171 5.95676 16.6305 5.57016 16.6305C3.74285 16.6305 2.90262 15.6658 2.57579 15.2284C2.3444 14.9187 2.40789 14.48 2.7176 14.2486Z" fill="url(#paint9_linear_4002_4179)" />
  <path d="M5.95689 11.6866C6.28532 11.4342 6.75618 11.4959 7.00858 11.8243L7.81316 12.8713C8.18243 13.3518 8.38263 13.9409 8.38263 14.5469V16.6875H5.12482V13.9895H6.75146C6.71577 13.9179 6.6731 13.8494 6.62378 13.7853L5.8192 12.7383C5.5668 12.4099 5.62845 11.939 5.95689 11.6866Z" fill="#E0A32A" />
  <path d="M5.95689 11.6866C6.28532 11.4342 6.75618 11.4959 7.00858 11.8243L7.81316 12.8713C8.18243 13.3518 8.38263 13.9409 8.38263 14.5469V16.6875H5.12482V13.9895H6.75146C6.71577 13.9179 6.6731 13.8494 6.62378 13.7853L5.8192 12.7383C5.5668 12.4099 5.62845 11.939 5.95689 11.6866Z" fill="url(#paint10_radial_4002_4179)" />
  <path d="M5.95689 11.6866C6.28532 11.4342 6.75618 11.4959 7.00858 11.8243L7.81316 12.8713C8.18243 13.3518 8.38263 13.9409 8.38263 14.5469V16.6875H5.12482V13.9895H6.75146C6.71577 13.9179 6.6731 13.8494 6.62378 13.7853L5.8192 12.7383C5.5668 12.4099 5.62845 11.939 5.95689 11.6866Z" fill="url(#paint11_linear_4002_4179)" />
  <path d="M5.95689 11.6866C6.28532 11.4342 6.75618 11.4959 7.00858 11.8243L7.81316 12.8713C8.18243 13.3518 8.38263 13.9409 8.38263 14.5469V16.6875H5.12482V13.9895H6.75146C6.71577 13.9179 6.6731 13.8494 6.62378 13.7853L5.8192 12.7383C5.5668 12.4099 5.62845 11.939 5.95689 11.6866Z" fill="url(#paint12_linear_4002_4179)" />
  <path d="M5.95689 11.6866C6.28532 11.4342 6.75618 11.4959 7.00858 11.8243L7.81316 12.8713C8.18243 13.3518 8.38263 13.9409 8.38263 14.5469V16.6875H5.12482V13.9895H6.75146C6.71577 13.9179 6.6731 13.8494 6.62378 13.7853L5.8192 12.7383C5.5668 12.4099 5.62845 11.939 5.95689 11.6866Z" fill="url(#paint13_radial_4002_4179)" />
  <path d="M5.95689 11.6866C6.28532 11.4342 6.75618 11.4959 7.00858 11.8243L7.81316 12.8713C8.18243 13.3518 8.38263 13.9409 8.38263 14.5469V16.6875H5.12482V13.9895H6.75146C6.71577 13.9179 6.6731 13.8494 6.62378 13.7853L5.8192 12.7383C5.5668 12.4099 5.62845 11.939 5.95689 11.6866Z" fill="url(#paint14_radial_4002_4179)" />
  <g filter="url(#filter3_i_4002_4179)">
    <path d="M26.1646 11.6866C25.8362 11.4342 25.3653 11.4959 25.1129 11.8243L24.3084 12.8713C23.9391 13.3518 23.7389 13.9409 23.7389 14.5469V16.6875H26.9967V13.9895H25.3701C25.4057 13.9179 25.4484 13.8494 25.4977 13.7853L26.3023 12.7383C26.5547 12.4099 26.4931 11.939 26.1646 11.6866Z" fill="#FFD02E" />
    <path d="M26.1646 11.6866C25.8362 11.4342 25.3653 11.4959 25.1129 11.8243L24.3084 12.8713C23.9391 13.3518 23.7389 13.9409 23.7389 14.5469V16.6875H26.9967V13.9895H25.3701C25.4057 13.9179 25.4484 13.8494 25.4977 13.7853L26.3023 12.7383C26.5547 12.4099 26.4931 11.939 26.1646 11.6866Z" fill="url(#paint15_linear_4002_4179)" />
  </g>
  <path fill-rule="evenodd" clip-rule="evenodd" d="M28.6452 11.8789C28.3319 11.6524 27.8943 11.7227 27.6678 12.036C27.6233 12.0975 27.5797 12.1724 27.5527 12.2189C27.5506 12.2223 27.5487 12.2256 27.5469 12.2288L27.5459 12.2305C27.5123 12.2881 27.4797 12.344 27.4412 12.4046C27.3645 12.5251 27.2705 12.6537 27.1473 12.7744C26.9148 13.0024 26.5398 13.2422 25.8806 13.2743C25.4945 13.2931 25.1967 13.6214 25.2155 14.0076C25.2343 14.3937 25.5626 14.6915 25.9488 14.6727C26.9731 14.6227 27.6666 14.2258 28.1274 13.7741C28.3509 13.555 28.5098 13.333 28.6223 13.1562C28.6758 13.0722 28.7201 12.9961 28.7524 12.9407C28.7537 12.9384 28.7551 12.9361 28.7564 12.9338C28.7849 12.885 28.797 12.8651 28.8009 12.8586C28.8026 12.8559 28.8023 12.8563 28.8023 12.8563C29.0288 12.543 28.9585 12.1054 28.6452 11.8789Z" fill="url(#paint16_linear_4002_4179)" />
  <path fill-rule="evenodd" clip-rule="evenodd" d="M28.6452 11.8789C28.3319 11.6524 27.8943 11.7227 27.6678 12.036C27.6233 12.0975 27.5797 12.1724 27.5527 12.2189C27.5506 12.2223 27.5487 12.2256 27.5469 12.2288L27.5459 12.2305C27.5123 12.2881 27.4797 12.344 27.4412 12.4046C27.3645 12.5251 27.2705 12.6537 27.1473 12.7744C26.9148 13.0024 26.5398 13.2422 25.8806 13.2743C25.4945 13.2931 25.1967 13.6214 25.2155 14.0076C25.2343 14.3937 25.5626 14.6915 25.9488 14.6727C26.9731 14.6227 27.6666 14.2258 28.1274 13.7741C28.3509 13.555 28.5098 13.333 28.6223 13.1562C28.6758 13.0722 28.7201 12.9961 28.7524 12.9407C28.7537 12.9384 28.7551 12.9361 28.7564 12.9338C28.7849 12.885 28.797 12.8651 28.8009 12.8586C28.8026 12.8559 28.8023 12.8563 28.8023 12.8563C29.0288 12.543 28.9585 12.1054 28.6452 11.8789Z" fill="url(#paint17_radial_4002_4179)" />
  <path fill-rule="evenodd" clip-rule="evenodd" d="M28.6452 11.8789C28.3319 11.6524 27.8943 11.7227 27.6678 12.036C27.6233 12.0975 27.5797 12.1724 27.5527 12.2189C27.5506 12.2223 27.5487 12.2256 27.5469 12.2288L27.5459 12.2305C27.5123 12.2881 27.4797 12.344 27.4412 12.4046C27.3645 12.5251 27.2705 12.6537 27.1473 12.7744C26.9148 13.0024 26.5398 13.2422 25.8806 13.2743C25.4945 13.2931 25.1967 13.6214 25.2155 14.0076C25.2343 14.3937 25.5626 14.6915 25.9488 14.6727C26.9731 14.6227 27.6666 14.2258 28.1274 13.7741C28.3509 13.555 28.5098 13.333 28.6223 13.1562C28.6758 13.0722 28.7201 12.9961 28.7524 12.9407C28.7537 12.9384 28.7551 12.9361 28.7564 12.9338C28.7849 12.885 28.797 12.8651 28.8009 12.8586C28.8026 12.8559 28.8023 12.8563 28.8023 12.8563C29.0288 12.543 28.9585 12.1054 28.6452 11.8789Z" fill="url(#paint18_radial_4002_4179)" />
  <path fill-rule="evenodd" clip-rule="evenodd" d="M28.6452 11.8789C28.3319 11.6524 27.8943 11.7227 27.6678 12.036C27.6233 12.0975 27.5797 12.1724 27.5527 12.2189C27.5506 12.2223 27.5487 12.2256 27.5469 12.2288L27.5459 12.2305C27.5123 12.2881 27.4797 12.344 27.4412 12.4046C27.3645 12.5251 27.2705 12.6537 27.1473 12.7744C26.9148 13.0024 26.5398 13.2422 25.8806 13.2743C25.4945 13.2931 25.1967 13.6214 25.2155 14.0076C25.2343 14.3937 25.5626 14.6915 25.9488 14.6727C26.9731 14.6227 27.6666 14.2258 28.1274 13.7741C28.3509 13.555 28.5098 13.333 28.6223 13.1562C28.6758 13.0722 28.7201 12.9961 28.7524 12.9407C28.7537 12.9384 28.7551 12.9361 28.7564 12.9338C28.7849 12.885 28.797 12.8651 28.8009 12.8586C28.8026 12.8559 28.8023 12.8563 28.8023 12.8563C29.0288 12.543 28.9585 12.1054 28.6452 11.8789Z" fill="url(#paint19_radial_4002_4179)" />
  <path fill-rule="evenodd" clip-rule="evenodd" d="M29.6842 12.1953C29.371 11.9688 28.9334 12.0391 28.7068 12.3524C28.6728 12.3994 28.6348 12.4563 28.5919 12.5204C28.3304 12.9115 27.6709 13.6338 26.8592 13.9813C26.5038 14.1334 26.3564 14.4301 26.5389 14.8563C26.6911 15.2117 27.2723 15.359 27.6277 15.2068C28.8733 14.6736 29.5622 13.6039 29.783 13.2611C29.8088 13.221 29.8282 13.1909 29.8413 13.1727C30.0678 12.8594 29.9975 12.4218 29.6842 12.1953Z" fill="url(#paint20_linear_4002_4179)" />
  <path fill-rule="evenodd" clip-rule="evenodd" d="M29.6842 12.1953C29.371 11.9688 28.9334 12.0391 28.7068 12.3524C28.6728 12.3994 28.6348 12.4563 28.5919 12.5204C28.3304 12.9115 27.6709 13.6338 26.8592 13.9813C26.5038 14.1334 26.3564 14.4301 26.5389 14.8563C26.6911 15.2117 27.2723 15.359 27.6277 15.2068C28.8733 14.6736 29.5622 13.6039 29.783 13.2611C29.8088 13.221 29.8282 13.1909 29.8413 13.1727C30.0678 12.8594 29.9975 12.4218 29.6842 12.1953Z" fill="url(#paint21_radial_4002_4179)" />
  <path fill-rule="evenodd" clip-rule="evenodd" d="M29.6842 12.1953C29.371 11.9688 28.9334 12.0391 28.7068 12.3524C28.6728 12.3994 28.6348 12.4563 28.5919 12.5204C28.3304 12.9115 27.6709 13.6338 26.8592 13.9813C26.5038 14.1334 26.3564 14.4301 26.5389 14.8563C26.6911 15.2117 27.2723 15.359 27.6277 15.2068C28.8733 14.6736 29.5622 13.6039 29.783 13.2611C29.8088 13.221 29.8282 13.1909 29.8413 13.1727C30.0678 12.8594 29.9975 12.4218 29.6842 12.1953Z" fill="url(#paint22_radial_4002_4179)" />
  <path fill-rule="evenodd" clip-rule="evenodd" d="M29.6842 12.1953C29.371 11.9688 28.9334 12.0391 28.7068 12.3524C28.6728 12.3994 28.6348 12.4563 28.5919 12.5204C28.3304 12.9115 27.6709 13.6338 26.8592 13.9813C26.5038 14.1334 26.3564 14.4301 26.5389 14.8563C26.6911 15.2117 27.2723 15.359 27.6277 15.2068C28.8733 14.6736 29.5622 13.6039 29.783 13.2611C29.8088 13.221 29.8282 13.1909 29.8413 13.1727C30.0678 12.8594 29.9975 12.4218 29.6842 12.1953Z" fill="url(#paint23_radial_4002_4179)" />
  <path fill-rule="evenodd" clip-rule="evenodd" d="M29.7165 13.2174C29.4068 12.986 28.9681 13.0495 28.7367 13.3592C28.7093 13.3959 28.6807 13.4357 28.6504 13.4778C28.349 13.897 27.8872 14.5391 26.8717 14.5391C26.4851 14.5391 26.1717 14.8525 26.1717 15.2391C26.1717 15.6257 26.4851 15.9391 26.8717 15.9391C28.6471 15.9391 29.5084 14.6991 29.7961 14.285C29.8211 14.249 29.8417 14.2193 29.8583 14.1971C30.0897 13.8874 30.0262 13.4488 29.7165 13.2174Z" fill="url(#paint24_linear_4002_4179)" />
  <path fill-rule="evenodd" clip-rule="evenodd" d="M29.7165 13.2174C29.4068 12.986 28.9681 13.0495 28.7367 13.3592C28.7093 13.3959 28.6807 13.4357 28.6504 13.4778C28.349 13.897 27.8872 14.5391 26.8717 14.5391C26.4851 14.5391 26.1717 14.8525 26.1717 15.2391C26.1717 15.6257 26.4851 15.9391 26.8717 15.9391C28.6471 15.9391 29.5084 14.6991 29.7961 14.285C29.8211 14.249 29.8417 14.2193 29.8583 14.1971C30.0897 13.8874 30.0262 13.4488 29.7165 13.2174Z" fill="url(#paint25_radial_4002_4179)" />
  <path fill-rule="evenodd" clip-rule="evenodd" d="M29.7165 13.2174C29.4068 12.986 28.9681 13.0495 28.7367 13.3592C28.7093 13.3959 28.6807 13.4357 28.6504 13.4778C28.349 13.897 27.8872 14.5391 26.8717 14.5391C26.4851 14.5391 26.1717 14.8525 26.1717 15.2391C26.1717 15.6257 26.4851 15.9391 26.8717 15.9391C28.6471 15.9391 29.5084 14.6991 29.7961 14.285C29.8211 14.249 29.8417 14.2193 29.8583 14.1971C30.0897 13.8874 30.0262 13.4488 29.7165 13.2174Z" fill="url(#paint26_radial_4002_4179)" />
  <path fill-rule="evenodd" clip-rule="evenodd" d="M29.7165 13.2174C29.4068 12.986 28.9681 13.0495 28.7367 13.3592C28.7093 13.3959 28.6807 13.4357 28.6504 13.4778C28.349 13.897 27.8872 14.5391 26.8717 14.5391C26.4851 14.5391 26.1717 14.8525 26.1717 15.2391C26.1717 15.6257 26.4851 15.9391 26.8717 15.9391C28.6471 15.9391 29.5084 14.6991 29.7961 14.285C29.8211 14.249 29.8417 14.2193 29.8583 14.1971C30.0897 13.8874 30.0262 13.4488 29.7165 13.2174Z" fill="url(#paint27_radial_4002_4179)" />
  <path fill-rule="evenodd" clip-rule="evenodd" d="M29.404 14.2486C29.0943 14.0173 28.6556 14.0807 28.4242 14.3904C28.2433 14.6327 27.771 15.2305 26.5514 15.2305C26.1648 15.2305 25.8514 15.5439 25.8514 15.9305C25.8514 16.3171 26.1648 16.6305 26.5514 16.6305C28.3787 16.6305 29.219 15.6658 29.5458 15.2284C29.7772 14.9187 29.7137 14.48 29.404 14.2486Z" fill="url(#paint28_linear_4002_4179)" />
  <path fill-rule="evenodd" clip-rule="evenodd" d="M29.404 14.2486C29.0943 14.0173 28.6556 14.0807 28.4242 14.3904C28.2433 14.6327 27.771 15.2305 26.5514 15.2305C26.1648 15.2305 25.8514 15.5439 25.8514 15.9305C25.8514 16.3171 26.1648 16.6305 26.5514 16.6305C28.3787 16.6305 29.219 15.6658 29.5458 15.2284C29.7772 14.9187 29.7137 14.48 29.404 14.2486Z" fill="url(#paint29_radial_4002_4179)" />
  <path fill-rule="evenodd" clip-rule="evenodd" d="M29.404 14.2486C29.0943 14.0173 28.6556 14.0807 28.4242 14.3904C28.2433 14.6327 27.771 15.2305 26.5514 15.2305C26.1648 15.2305 25.8514 15.5439 25.8514 15.9305C25.8514 16.3171 26.1648 16.6305 26.5514 16.6305C28.3787 16.6305 29.219 15.6658 29.5458 15.2284C29.7772 14.9187 29.7137 14.48 29.404 14.2486Z" fill="url(#paint30_radial_4002_4179)" />
  <path d="M27.1295 16.7236C27.1295 16.5856 27.0176 16.4736 26.8795 16.4736H23.9498C23.8118 16.4736 23.6998 16.5856 23.6998 16.7236V17.5674H27.1295V16.7236Z" fill="url(#paint31_radial_4002_4179)" />
  <path d="M4.992 16.7236C4.992 16.5856 5.10393 16.4736 5.242 16.4736H8.17169C8.30976 16.4736 8.42169 16.5856 8.42169 16.7236V17.5674H4.992V16.7236Z" fill="url(#paint32_radial_4002_4179)" />
  <g filter="url(#filter4_i_4002_4179)">
    <path d="M9.34391 20.8421C9.17724 20.9387 8.9686 20.8184 8.9686 20.6258V17.7611C8.9686 17.4297 8.69997 17.1611 8.3686 17.1611H5.08423C4.75286 17.1611 4.48423 17.4297 4.48423 17.7611V22.3486C4.47902 23.1975 4.59619 24.8557 5.9686 25.7314C7.11718 26.4642 8.46915 26.3009 9.18181 26.0784C9.28311 26.0468 9.39047 26.1203 9.39047 26.2264V29.933C9.39047 30.0158 9.45763 30.083 9.54047 30.083H22.5344C22.6173 30.083 22.6844 30.0158 22.6844 29.933V26.2264C22.6844 26.1203 22.7918 26.0468 22.8931 26.0784C23.6058 26.3009 24.9577 26.4642 26.1063 25.7314C27.4787 24.8557 27.5959 23.1975 27.5907 22.3486V17.7611C27.5907 17.4297 27.3221 17.1611 26.9907 17.1611H23.7063C23.3749 17.1611 23.1063 17.4297 23.1063 17.7611V20.6258C23.1063 20.8184 22.8977 20.9387 22.731 20.8421L16.0375 16.9104L9.34391 20.8421Z" fill="url(#paint33_radial_4002_4179)" />
    <path d="M9.34391 20.8421C9.17724 20.9387 8.9686 20.8184 8.9686 20.6258V17.7611C8.9686 17.4297 8.69997 17.1611 8.3686 17.1611H5.08423C4.75286 17.1611 4.48423 17.4297 4.48423 17.7611V22.3486C4.47902 23.1975 4.59619 24.8557 5.9686 25.7314C7.11718 26.4642 8.46915 26.3009 9.18181 26.0784C9.28311 26.0468 9.39047 26.1203 9.39047 26.2264V29.933C9.39047 30.0158 9.45763 30.083 9.54047 30.083H22.5344C22.6173 30.083 22.6844 30.0158 22.6844 29.933V26.2264C22.6844 26.1203 22.7918 26.0468 22.8931 26.0784C23.6058 26.3009 24.9577 26.4642 26.1063 25.7314C27.4787 24.8557 27.5959 23.1975 27.5907 22.3486V17.7611C27.5907 17.4297 27.3221 17.1611 26.9907 17.1611H23.7063C23.3749 17.1611 23.1063 17.4297 23.1063 17.7611V20.6258C23.1063 20.8184 22.8977 20.9387 22.731 20.8421L16.0375 16.9104L9.34391 20.8421Z" fill="url(#paint34_radial_4002_4179)" />
    <path d="M9.34391 20.8421C9.17724 20.9387 8.9686 20.8184 8.9686 20.6258V17.7611C8.9686 17.4297 8.69997 17.1611 8.3686 17.1611H5.08423C4.75286 17.1611 4.48423 17.4297 4.48423 17.7611V22.3486C4.47902 23.1975 4.59619 24.8557 5.9686 25.7314C7.11718 26.4642 8.46915 26.3009 9.18181 26.0784C9.28311 26.0468 9.39047 26.1203 9.39047 26.2264V29.933C9.39047 30.0158 9.45763 30.083 9.54047 30.083H22.5344C22.6173 30.083 22.6844 30.0158 22.6844 29.933V26.2264C22.6844 26.1203 22.7918 26.0468 22.8931 26.0784C23.6058 26.3009 24.9577 26.4642 26.1063 25.7314C27.4787 24.8557 27.5959 23.1975 27.5907 22.3486V17.7611C27.5907 17.4297 27.3221 17.1611 26.9907 17.1611H23.7063C23.3749 17.1611 23.1063 17.4297 23.1063 17.7611V20.6258C23.1063 20.8184 22.8977 20.9387 22.731 20.8421L16.0375 16.9104L9.34391 20.8421Z" fill="url(#paint35_radial_4002_4179)" />
    <path d="M9.34391 20.8421C9.17724 20.9387 8.9686 20.8184 8.9686 20.6258V17.7611C8.9686 17.4297 8.69997 17.1611 8.3686 17.1611H5.08423C4.75286 17.1611 4.48423 17.4297 4.48423 17.7611V22.3486C4.47902 23.1975 4.59619 24.8557 5.9686 25.7314C7.11718 26.4642 8.46915 26.3009 9.18181 26.0784C9.28311 26.0468 9.39047 26.1203 9.39047 26.2264V29.933C9.39047 30.0158 9.45763 30.083 9.54047 30.083H22.5344C22.6173 30.083 22.6844 30.0158 22.6844 29.933V26.2264C22.6844 26.1203 22.7918 26.0468 22.8931 26.0784C23.6058 26.3009 24.9577 26.4642 26.1063 25.7314C27.4787 24.8557 27.5959 23.1975 27.5907 22.3486V17.7611C27.5907 17.4297 27.3221 17.1611 26.9907 17.1611H23.7063C23.3749 17.1611 23.1063 17.4297 23.1063 17.7611V20.6258C23.1063 20.8184 22.8977 20.9387 22.731 20.8421L16.0375 16.9104L9.34391 20.8421Z" fill="url(#paint36_radial_4002_4179)" />
    <path d="M9.34391 20.8421C9.17724 20.9387 8.9686 20.8184 8.9686 20.6258V17.7611C8.9686 17.4297 8.69997 17.1611 8.3686 17.1611H5.08423C4.75286 17.1611 4.48423 17.4297 4.48423 17.7611V22.3486C4.47902 23.1975 4.59619 24.8557 5.9686 25.7314C7.11718 26.4642 8.46915 26.3009 9.18181 26.0784C9.28311 26.0468 9.39047 26.1203 9.39047 26.2264V29.933C9.39047 30.0158 9.45763 30.083 9.54047 30.083H22.5344C22.6173 30.083 22.6844 30.0158 22.6844 29.933V26.2264C22.6844 26.1203 22.7918 26.0468 22.8931 26.0784C23.6058 26.3009 24.9577 26.4642 26.1063 25.7314C27.4787 24.8557 27.5959 23.1975 27.5907 22.3486V17.7611C27.5907 17.4297 27.3221 17.1611 26.9907 17.1611H23.7063C23.3749 17.1611 23.1063 17.4297 23.1063 17.7611V20.6258C23.1063 20.8184 22.8977 20.9387 22.731 20.8421L16.0375 16.9104L9.34391 20.8421Z" fill="url(#paint37_radial_4002_4179)" />
    <path d="M9.34391 20.8421C9.17724 20.9387 8.9686 20.8184 8.9686 20.6258V17.7611C8.9686 17.4297 8.69997 17.1611 8.3686 17.1611H5.08423C4.75286 17.1611 4.48423 17.4297 4.48423 17.7611V22.3486C4.47902 23.1975 4.59619 24.8557 5.9686 25.7314C7.11718 26.4642 8.46915 26.3009 9.18181 26.0784C9.28311 26.0468 9.39047 26.1203 9.39047 26.2264V29.933C9.39047 30.0158 9.45763 30.083 9.54047 30.083H22.5344C22.6173 30.083 22.6844 30.0158 22.6844 29.933V26.2264C22.6844 26.1203 22.7918 26.0468 22.8931 26.0784C23.6058 26.3009 24.9577 26.4642 26.1063 25.7314C27.4787 24.8557 27.5959 23.1975 27.5907 22.3486V17.7611C27.5907 17.4297 27.3221 17.1611 26.9907 17.1611H23.7063C23.3749 17.1611 23.1063 17.4297 23.1063 17.7611V20.6258C23.1063 20.8184 22.8977 20.9387 22.731 20.8421L16.0375 16.9104L9.34391 20.8421Z" fill="url(#paint38_radial_4002_4179)" />
  </g>
  <path d="M16.0311 20.9345C14.9268 20.9345 14.0311 20.1329 14.0311 19.1446V17.0299C14.0311 16.0416 14.9268 15.24 16.0311 15.24C17.1353 15.24 18.0311 16.0416 18.0311 17.0299V19.1446C18.0311 20.1329 17.1353 20.9345 16.0311 20.9345Z" fill="url(#paint39_linear_4002_4179)" />
  <path d="M20.5123 14.1961C20.8266 14.1605 21.1131 14.0298 21.3392 13.8374L21.4099 14.7126C21.4777 15.5522 21.0379 16.3407 20.3027 16.7125C20.4352 16.3586 20.5152 15.9783 20.5382 15.5769L20.5123 14.1961Z" fill="url(#paint40_radial_4002_4179)" />
  <path d="M20.5123 14.1961C20.8266 14.1605 21.1131 14.0298 21.3392 13.8374L21.4099 14.7126C21.4777 15.5522 21.0379 16.3407 20.3027 16.7125C20.4352 16.3586 20.5152 15.9783 20.5382 15.5769L20.5123 14.1961Z" fill="url(#paint41_radial_4002_4179)" />
  <path d="M11.3722 14.9342C11.0562 14.9495 10.7524 14.8665 10.4984 14.7129L10.569 15.5881C10.6369 16.4277 11.1975 17.1353 11.9829 17.3843C11.7953 17.0563 11.6553 16.6937 11.5682 16.3013L11.3722 14.9342Z" fill="url(#paint42_radial_4002_4179)" />
  <path d="M11.3722 14.9342C11.0562 14.9495 10.7524 14.8665 10.4984 14.7129L10.569 15.5881C10.6369 16.4277 11.1975 17.1353 11.9829 17.3843C11.7953 17.0563 11.6553 16.6937 11.5682 16.3013L11.3722 14.9342Z" fill="url(#paint43_radial_4002_4179)" />
  <g filter="url(#filter5_ii_4002_4179)">
    <path d="M11.5215 16.356C11.9116 18.1718 13.5839 19.4121 15.433 19.2628L17.2065 19.1195C19.0557 18.9701 20.5072 17.4775 20.6008 15.6226C20.5687 13.8428 20.5378 12.0701 20.4771 10.2935C20.4089 9.57328 19.7924 9.0242 19.072 9.05195L17.7557 9.15827C16.8582 9.23076 16.0027 8.76696 15.5669 7.96983C15.4531 7.7405 15.2111 7.60271 14.9568 7.62325L13.7602 7.71991C12.025 7.86006 10.7338 9.39555 10.8755 11.1503C11.0168 12.8995 11.2651 14.6116 11.5215 16.356Z" fill="url(#paint44_radial_4002_4179)" />
  </g>
  <path d="M11.5215 16.356C11.9116 18.1718 13.5839 19.4121 15.433 19.2628L17.2065 19.1195C19.0557 18.9701 20.5072 17.4775 20.6008 15.6226C20.5687 13.8428 20.5378 12.0701 20.4771 10.2935C20.4089 9.57328 19.7924 9.0242 19.072 9.05195L17.7557 9.15827C16.8582 9.23076 16.0027 8.76696 15.5669 7.96983C15.4531 7.7405 15.2111 7.60271 14.9568 7.62325L13.7602 7.71991C12.025 7.86006 10.7338 9.39555 10.8755 11.1503C11.0168 12.8995 11.2651 14.6116 11.5215 16.356Z" fill="url(#paint45_radial_4002_4179)" />
  <path d="M11.5215 16.356C11.9116 18.1718 13.5839 19.4121 15.433 19.2628L17.2065 19.1195C19.0557 18.9701 20.5072 17.4775 20.6008 15.6226C20.5687 13.8428 20.5378 12.0701 20.4771 10.2935C20.4089 9.57328 19.7924 9.0242 19.072 9.05195L17.7557 9.15827C16.8582 9.23076 16.0027 8.76696 15.5669 7.96983C15.4531 7.7405 15.2111 7.60271 14.9568 7.62325L13.7602 7.71991C12.025 7.86006 10.7338 9.39555 10.8755 11.1503C11.0168 12.8995 11.2651 14.6116 11.5215 16.356Z" fill="url(#paint46_radial_4002_4179)" />
  <path d="M11.5215 16.356C11.9116 18.1718 13.5839 19.4121 15.433 19.2628L17.2065 19.1195C19.0557 18.9701 20.5072 17.4775 20.6008 15.6226C20.5687 13.8428 20.5378 12.0701 20.4771 10.2935C20.4089 9.57328 19.7924 9.0242 19.072 9.05195L17.7557 9.15827C16.8582 9.23076 16.0027 8.76696 15.5669 7.96983C15.4531 7.7405 15.2111 7.60271 14.9568 7.62325L13.7602 7.71991C12.025 7.86006 10.7338 9.39555 10.8755 11.1503C11.0168 12.8995 11.2651 14.6116 11.5215 16.356Z" fill="url(#paint47_radial_4002_4179)" />
  <path d="M11.5215 16.356C11.9116 18.1718 13.5839 19.4121 15.433 19.2628L17.2065 19.1195C19.0557 18.9701 20.5072 17.4775 20.6008 15.6226C20.5687 13.8428 20.5378 12.0701 20.4771 10.2935C20.4089 9.57328 19.7924 9.0242 19.072 9.05195L17.7557 9.15827C16.8582 9.23076 16.0027 8.76696 15.5669 7.96983C15.4531 7.7405 15.2111 7.60271 14.9568 7.62325L13.7602 7.71991C12.025 7.86006 10.7338 9.39555 10.8755 11.1503C11.0168 12.8995 11.2651 14.6116 11.5215 16.356Z" fill="url(#paint48_radial_4002_4179)" />
  <g filter="url(#filter6_f_4002_4179)">
    <path d="M15.351 12.9394L14.8936 14.7158C14.8204 15.0796 15.0938 15.4153 15.4405 15.3873L16.1798 15.3276C16.5264 15.2996 16.742 14.9188 16.6118 14.5771L15.9725 12.8892C15.8346 12.515 15.4322 12.5475 15.351 12.9394Z" fill="#EE9020" />
  </g>
  <g filter="url(#filter7_f_4002_4179)">
    <path d="M15.4337 12.7473L15.0736 14.5159C15.0004 14.8796 15.2738 15.2153 15.6205 15.1873L16.3597 15.1276C16.7064 15.0996 16.922 14.7189 16.7918 14.3771L16.1525 12.6893C16.0145 12.3151 15.5149 12.3554 15.4337 12.7473Z" fill="url(#paint49_linear_4002_4179)" />
    <path d="M15.4337 12.7473L15.0736 14.5159C15.0004 14.8796 15.2738 15.2153 15.6205 15.1873L16.3597 15.1276C16.7064 15.0996 16.922 14.7189 16.7918 14.3771L16.1525 12.6893C16.0145 12.3151 15.5149 12.3554 15.4337 12.7473Z" fill="url(#paint50_linear_4002_4179)" />
    <path d="M15.4337 12.7473L15.0736 14.5159C15.0004 14.8796 15.2738 15.2153 15.6205 15.1873L16.3597 15.1276C16.7064 15.0996 16.922 14.7189 16.7918 14.3771L16.1525 12.6893C16.0145 12.3151 15.5149 12.3554 15.4337 12.7473Z" fill="url(#paint51_linear_4002_4179)" />
    <path d="M15.4337 12.7473L15.0736 14.5159C15.0004 14.8796 15.2738 15.2153 15.6205 15.1873L16.3597 15.1276C16.7064 15.0996 16.922 14.7189 16.7918 14.3771L16.1525 12.6893C16.0145 12.3151 15.5149 12.3554 15.4337 12.7473Z" fill="url(#paint52_linear_4002_4179)" />
  </g>
  <g filter="url(#filter8_ii_4002_4179)">
    <path d="M19.9069 6.77676C20.404 6.90409 20.8651 7.20689 21.1784 7.6688C21.6795 8.40482 21.6892 9.3328 21.2705 10.0518C21.1255 10.3071 21.059 10.6017 21.0826 10.8942L21.1728 12.0111C20.9871 11.9028 20.7478 11.8307 20.5252 11.8096L20.477 10.2935C20.4088 9.57324 19.7924 9.02417 19.0719 9.05191L17.7556 9.15823C16.8581 9.23072 16.0027 8.76693 15.5669 7.9698C15.453 7.74046 15.211 7.60268 14.9567 7.62322L13.7601 7.71987C12.025 7.86003 10.7338 9.39552 10.8755 11.1502L11.021 12.5931C10.7851 12.6475 10.5421 12.7475 10.3641 12.8957L10.2729 11.7673C10.2493 11.4749 10.1363 11.1947 9.95225 10.966C9.45015 10.3417 9.2987 9.46068 9.63191 8.67756C9.86419 8.13606 10.2786 7.73717 10.768 7.52002C11.291 7.28492 11.7204 6.88482 11.985 6.37115C12.3238 5.71954 12.9735 5.2509 13.7563 5.18767C14.0605 5.1631 14.3549 5.20529 14.6331 5.29448C15.0048 5.42179 15.4086 5.38917 15.755 5.20386C16.0103 5.07159 16.2942 4.98268 16.5983 4.95811C17.3911 4.89408 18.1188 5.26669 18.554 5.87101C18.8819 6.32666 19.3637 6.63793 19.9069 6.77676Z" fill="url(#paint53_linear_4002_4179)" />
    <path d="M19.9069 6.77676C20.404 6.90409 20.8651 7.20689 21.1784 7.6688C21.6795 8.40482 21.6892 9.3328 21.2705 10.0518C21.1255 10.3071 21.059 10.6017 21.0826 10.8942L21.1728 12.0111C20.9871 11.9028 20.7478 11.8307 20.5252 11.8096L20.477 10.2935C20.4088 9.57324 19.7924 9.02417 19.0719 9.05191L17.7556 9.15823C16.8581 9.23072 16.0027 8.76693 15.5669 7.9698C15.453 7.74046 15.211 7.60268 14.9567 7.62322L13.7601 7.71987C12.025 7.86003 10.7338 9.39552 10.8755 11.1502L11.021 12.5931C10.7851 12.6475 10.5421 12.7475 10.3641 12.8957L10.2729 11.7673C10.2493 11.4749 10.1363 11.1947 9.95225 10.966C9.45015 10.3417 9.2987 9.46068 9.63191 8.67756C9.86419 8.13606 10.2786 7.73717 10.768 7.52002C11.291 7.28492 11.7204 6.88482 11.985 6.37115C12.3238 5.71954 12.9735 5.2509 13.7563 5.18767C14.0605 5.1631 14.3549 5.20529 14.6331 5.29448C15.0048 5.42179 15.4086 5.38917 15.755 5.20386C16.0103 5.07159 16.2942 4.98268 16.5983 4.95811C17.3911 4.89408 18.1188 5.26669 18.554 5.87101C18.8819 6.32666 19.3637 6.63793 19.9069 6.77676Z" fill="url(#paint54_radial_4002_4179)" />
    <path d="M19.9069 6.77676C20.404 6.90409 20.8651 7.20689 21.1784 7.6688C21.6795 8.40482 21.6892 9.3328 21.2705 10.0518C21.1255 10.3071 21.059 10.6017 21.0826 10.8942L21.1728 12.0111C20.9871 11.9028 20.7478 11.8307 20.5252 11.8096L20.477 10.2935C20.4088 9.57324 19.7924 9.02417 19.0719 9.05191L17.7556 9.15823C16.8581 9.23072 16.0027 8.76693 15.5669 7.9698C15.453 7.74046 15.211 7.60268 14.9567 7.62322L13.7601 7.71987C12.025 7.86003 10.7338 9.39552 10.8755 11.1502L11.021 12.5931C10.7851 12.6475 10.5421 12.7475 10.3641 12.8957L10.2729 11.7673C10.2493 11.4749 10.1363 11.1947 9.95225 10.966C9.45015 10.3417 9.2987 9.46068 9.63191 8.67756C9.86419 8.13606 10.2786 7.73717 10.768 7.52002C11.291 7.28492 11.7204 6.88482 11.985 6.37115C12.3238 5.71954 12.9735 5.2509 13.7563 5.18767C14.0605 5.1631 14.3549 5.20529 14.6331 5.29448C15.0048 5.42179 15.4086 5.38917 15.755 5.20386C16.0103 5.07159 16.2942 4.98268 16.5983 4.95811C17.3911 4.89408 18.1188 5.26669 18.554 5.87101C18.8819 6.32666 19.3637 6.63793 19.9069 6.77676Z" fill="url(#paint55_radial_4002_4179)" />
    <path d="M19.9069 6.77676C20.404 6.90409 20.8651 7.20689 21.1784 7.6688C21.6795 8.40482 21.6892 9.3328 21.2705 10.0518C21.1255 10.3071 21.059 10.6017 21.0826 10.8942L21.1728 12.0111C20.9871 11.9028 20.7478 11.8307 20.5252 11.8096L20.477 10.2935C20.4088 9.57324 19.7924 9.02417 19.0719 9.05191L17.7556 9.15823C16.8581 9.23072 16.0027 8.76693 15.5669 7.9698C15.453 7.74046 15.211 7.60268 14.9567 7.62322L13.7601 7.71987C12.025 7.86003 10.7338 9.39552 10.8755 11.1502L11.021 12.5931C10.7851 12.6475 10.5421 12.7475 10.3641 12.8957L10.2729 11.7673C10.2493 11.4749 10.1363 11.1947 9.95225 10.966C9.45015 10.3417 9.2987 9.46068 9.63191 8.67756C9.86419 8.13606 10.2786 7.73717 10.768 7.52002C11.291 7.28492 11.7204 6.88482 11.985 6.37115C12.3238 5.71954 12.9735 5.2509 13.7563 5.18767C14.0605 5.1631 14.3549 5.20529 14.6331 5.29448C15.0048 5.42179 15.4086 5.38917 15.755 5.20386C16.0103 5.07159 16.2942 4.98268 16.5983 4.95811C17.3911 4.89408 18.1188 5.26669 18.554 5.87101C18.8819 6.32666 19.3637 6.63793 19.9069 6.77676Z" fill="url(#paint56_radial_4002_4179)" />
    <path d="M19.9069 6.77676C20.404 6.90409 20.8651 7.20689 21.1784 7.6688C21.6795 8.40482 21.6892 9.3328 21.2705 10.0518C21.1255 10.3071 21.059 10.6017 21.0826 10.8942L21.1728 12.0111C20.9871 11.9028 20.7478 11.8307 20.5252 11.8096L20.477 10.2935C20.4088 9.57324 19.7924 9.02417 19.0719 9.05191L17.7556 9.15823C16.8581 9.23072 16.0027 8.76693 15.5669 7.9698C15.453 7.74046 15.211 7.60268 14.9567 7.62322L13.7601 7.71987C12.025 7.86003 10.7338 9.39552 10.8755 11.1502L11.021 12.5931C10.7851 12.6475 10.5421 12.7475 10.3641 12.8957L10.2729 11.7673C10.2493 11.4749 10.1363 11.1947 9.95225 10.966C9.45015 10.3417 9.2987 9.46068 9.63191 8.67756C9.86419 8.13606 10.2786 7.73717 10.768 7.52002C11.291 7.28492 11.7204 6.88482 11.985 6.37115C12.3238 5.71954 12.9735 5.2509 13.7563 5.18767C14.0605 5.1631 14.3549 5.20529 14.6331 5.29448C15.0048 5.42179 15.4086 5.38917 15.755 5.20386C16.0103 5.07159 16.2942 4.98268 16.5983 4.95811C17.3911 4.89408 18.1188 5.26669 18.554 5.87101C18.8819 6.32666 19.3637 6.63793 19.9069 6.77676Z" fill="url(#paint57_radial_4002_4179)" />
  </g>
  <g filter="url(#filter9_i_4002_4179)">
    <path d="M19.1304 10.3056C18.9541 10.1755 18.7503 10.039 18.4528 9.97108C18.1595 9.90414 17.7993 9.90889 17.3086 10.0096C17.1671 10.0386 17.0759 10.1768 17.105 10.3183C17.134 10.4598 17.2722 10.551 17.4137 10.522C17.8616 10.4301 18.141 10.4365 18.3364 10.4811C18.5275 10.5247 18.6613 10.6096 18.8196 10.7265C18.9359 10.8123 19.0996 10.7876 19.1854 10.6714C19.2712 10.5552 19.2466 10.3914 19.1304 10.3056Z" fill="#C05029" />
  </g>
  <g filter="url(#filter10_i_4002_4179)">
    <path d="M12.4063 10.7457C12.4869 10.6881 12.6036 10.6134 12.7526 10.5404C13.0507 10.3945 13.4821 10.2539 14.0137 10.2758C14.158 10.2817 14.2702 10.4035 14.2643 10.5479C14.2584 10.6922 14.1365 10.8044 13.9922 10.7985C13.5665 10.7809 13.2216 10.8933 12.9826 11.0103C12.8631 11.0688 12.7711 11.128 12.7102 11.1715C12.6798 11.1932 12.6573 11.2108 12.6432 11.2223C12.6362 11.2281 12.6313 11.2323 12.6285 11.2346L12.6261 11.2368C12.5196 11.3336 12.3547 11.3261 12.2574 11.2199C12.1598 11.1133 12.167 10.9479 12.2735 10.8503L12.4063 10.7457Z" fill="#C05029" />
  </g>
  <g filter="url(#filter11_f_4002_4179)">
    <path d="M15.6249 8.01383C15.5996 7.97358 15.5754 7.93237 15.5523 7.89024C15.4384 7.6609 15.1965 7.52312 14.9422 7.54366L13.7455 7.64031C12.0104 7.78046 10.7192 9.31596 10.8609 11.0707L10.8818 11.3293C10.5425 11.1119 10.0991 10.6313 10.032 9.80095C9.95063 8.79333 10.6444 8.22465 11.0869 7.8619C11.2119 7.7595 11.3168 7.6735 11.3786 7.59868C11.4048 7.56689 11.4333 7.53131 11.4643 7.49262C11.7647 7.11756 12.3001 6.44931 13.3005 6.09534C13.7713 5.92877 14.2557 5.8546 14.6592 5.82851C15.1311 5.79801 15.4965 6.17823 15.5346 6.64954L15.6437 7.99959L15.6249 8.01383Z" fill="url(#paint58_radial_4002_4179)" />
    <path d="M15.6249 8.01383C15.5996 7.97358 15.5754 7.93237 15.5523 7.89024C15.4384 7.6609 15.1965 7.52312 14.9422 7.54366L13.7455 7.64031C12.0104 7.78046 10.7192 9.31596 10.8609 11.0707L10.8818 11.3293C10.5425 11.1119 10.0991 10.6313 10.032 9.80095C9.95063 8.79333 10.6444 8.22465 11.0869 7.8619C11.2119 7.7595 11.3168 7.6735 11.3786 7.59868C11.4048 7.56689 11.4333 7.53131 11.4643 7.49262C11.7647 7.11756 12.3001 6.44931 13.3005 6.09534C13.7713 5.92877 14.2557 5.8546 14.6592 5.82851C15.1311 5.79801 15.4965 6.17823 15.5346 6.64954L15.6437 7.99959L15.6249 8.01383Z" fill="url(#paint59_radial_4002_4179)" />
  </g>
  <g filter="url(#filter12_f_4002_4179)">
    <path d="M20.5545 10.7699L20.4794 10.1787C20.4115 9.46179 19.7767 8.91697 19.0636 8.94425L17.7608 9.04948C16.9338 9.11628 16.1426 8.72037 15.689 8.02492C15.689 8.02492 15.6436 7.93873 15.585 7.78532C15.2264 6.84679 16.0983 6.03858 17.0885 6.20882C17.9504 6.35701 18.9137 6.62209 19.6742 7.03965C21.3838 7.97823 21.3355 9.79307 20.5545 10.7699Z" fill="url(#paint60_radial_4002_4179)" />
    <path d="M20.5545 10.7699L20.4794 10.1787C20.4115 9.46179 19.7767 8.91697 19.0636 8.94425L17.7608 9.04948C16.9338 9.11628 16.1426 8.72037 15.689 8.02492C15.689 8.02492 15.6436 7.93873 15.585 7.78532C15.2264 6.84679 16.0983 6.03858 17.0885 6.20882C17.9504 6.35701 18.9137 6.62209 19.6742 7.03965C21.3838 7.97823 21.3355 9.79307 20.5545 10.7699Z" fill="url(#paint61_radial_4002_4179)" />
    <path d="M20.5545 10.7699L20.4794 10.1787C20.4115 9.46179 19.7767 8.91697 19.0636 8.94425L17.7608 9.04948C16.9338 9.11628 16.1426 8.72037 15.689 8.02492C15.689 8.02492 15.6436 7.93873 15.585 7.78532C15.2264 6.84679 16.0983 6.03858 17.0885 6.20882C17.9504 6.35701 18.9137 6.62209 19.6742 7.03965C21.3838 7.97823 21.3355 9.79307 20.5545 10.7699Z" fill="url(#paint62_radial_4002_4179)" />
    <path d="M20.5545 10.7699L20.4794 10.1787C20.4115 9.46179 19.7767 8.91697 19.0636 8.94425L17.7608 9.04948C16.9338 9.11628 16.1426 8.72037 15.689 8.02492C15.689 8.02492 15.6436 7.93873 15.585 7.78532C15.2264 6.84679 16.0983 6.03858 17.0885 6.20882C17.9504 6.35701 18.9137 6.62209 19.6742 7.03965C21.3838 7.97823 21.3355 9.79307 20.5545 10.7699Z" fill="url(#paint63_radial_4002_4179)" />
    <path d="M20.5545 10.7699L20.4794 10.1787C20.4115 9.46179 19.7767 8.91697 19.0636 8.94425L17.7608 9.04948C16.9338 9.11628 16.1426 8.72037 15.689 8.02492C15.689 8.02492 15.6436 7.93873 15.585 7.78532C15.2264 6.84679 16.0983 6.03858 17.0885 6.20882C17.9504 6.35701 18.9137 6.62209 19.6742 7.03965C21.3838 7.97823 21.3355 9.79307 20.5545 10.7699Z" fill="url(#paint64_radial_4002_4179)" />
  </g>
  <path d="M17.9688 11.6434C18.5827 11.5938 19.1356 11.9752 19.3229 12.5358C19.3781 12.6964 19.2649 12.8629 19.0971 12.8765L16.9996 13.0459C16.8661 13.0567 16.7495 12.9433 16.7654 12.8076C16.835 12.1955 17.3281 11.6951 17.9688 11.6434Z" fill="white" />
  <path d="M17.7947 11.9146C18.26 11.877 18.6642 12.2244 18.7015 12.6858C18.7076 12.7621 18.7023 12.8393 18.6888 12.9095L17.068 13.0404C17.0431 12.9695 17.0258 12.8979 17.0197 12.8216C16.9824 12.3602 17.3294 11.9522 17.7947 11.9146Z" fill="url(#paint65_radial_4002_4179)" />
  <path d="M17.382 12.7925C17.3605 12.5256 17.5568 12.2948 17.8237 12.2732C18.0907 12.2516 18.3215 12.4479 18.343 12.7149C18.3495 12.795 18.3366 12.8728 18.3075 12.9404L17.4571 13.0091C17.4137 12.9473 17.3885 12.8726 17.382 12.7925Z" fill="black" />
  <g filter="url(#filter13_f_4002_4179)">
    <path d="M17.7459 12.0978C17.812 12.1727 17.6952 12.28 17.562 12.3974C17.4289 12.5148 17.3298 12.5978 17.2637 12.5229C17.1977 12.4479 17.252 12.292 17.3852 12.1746C17.5183 12.0573 17.6798 12.0228 17.7459 12.0978Z" fill="#C7A7A3" />
    <path d="M17.7459 12.0978C17.812 12.1727 17.6952 12.28 17.562 12.3974C17.4289 12.5148 17.3298 12.5978 17.2637 12.5229C17.1977 12.4479 17.252 12.292 17.3852 12.1746C17.5183 12.0573 17.6798 12.0228 17.7459 12.0978Z" fill="url(#paint66_radial_4002_4179)" />
  </g>
  <g filter="url(#filter14_f_4002_4179)">
    <path d="M18.6009 12.5827C18.5524 12.3683 18.4123 12.2151 18.3483 12.1653L18.1257 12.4532L18.2532 12.6588L18.6009 12.5827Z" fill="url(#paint67_linear_4002_4179)" />
  </g>
  <path d="M13.4733 12.0066C12.8593 12.0562 12.3748 12.5214 12.2799 13.1048C12.2512 13.2722 12.3897 13.4184 12.5575 13.4049L14.655 13.2354C14.7885 13.2247 14.8854 13.094 14.848 12.9627C14.6811 12.3696 14.1102 11.9551 13.4733 12.0066Z" fill="white" />
  <path d="M13.6883 12.2462C13.2231 12.2838 12.8798 12.6915 12.9171 13.153C12.9232 13.2293 12.9408 13.3046 12.9655 13.3717L14.5863 13.2408C14.5995 13.1668 14.6051 13.0934 14.5989 13.0171C14.5579 12.556 14.1536 12.2086 13.6883 12.2462Z" fill="url(#paint68_radial_4002_4179)" />
  <path d="M14.2366 13.0465C14.2151 12.7795 13.9843 12.5832 13.7173 12.6047C13.4503 12.6263 13.254 12.8571 13.2756 13.1241C13.282 13.2042 13.3073 13.2789 13.3468 13.341L14.1973 13.2723C14.2264 13.2047 14.2431 13.1265 14.2366 13.0465Z" fill="black" />
  <g filter="url(#filter15_f_4002_4179)">
    <path d="M14.5132 12.9237C14.4914 12.6533 14.2569 12.4907 14.1931 12.441L13.9437 12.7244L14.1375 13.0498L14.5132 12.9237Z" fill="url(#paint69_linear_4002_4179)" />
  </g>
  <g filter="url(#filter16_f_4002_4179)">
    <ellipse cx="13.4631" cy="12.6253" rx="0.366552" ry="0.185509" transform="rotate(-32.5319 13.4631 12.6253)" fill="#C7A7A3" fill-opacity="0.9" />
    <ellipse cx="13.4631" cy="12.6253" rx="0.366552" ry="0.185509" transform="rotate(-32.5319 13.4631 12.6253)" fill="url(#paint70_radial_4002_4179)" />
  </g>
  <path d="M20.5761 14.2769C20.5572 13.2715 20.5361 12.2675 20.5073 11.2628C21.2277 11.3297 21.8176 11.9059 21.8778 12.6518C21.9429 13.4574 21.3664 14.1668 20.5761 14.2769Z" fill="url(#paint71_linear_4002_4179)" />
  <path d="M20.5761 14.2769C20.5572 13.2715 20.5361 12.2675 20.5073 11.2628C21.2277 11.3297 21.8176 11.9059 21.8778 12.6518C21.9429 13.4574 21.3664 14.1668 20.5761 14.2769Z" fill="url(#paint72_radial_4002_4179)" />
  <path d="M20.5761 14.2769C20.5572 13.2715 20.5361 12.2675 20.5073 11.2628C21.2277 11.3297 21.8176 11.9059 21.8778 12.6518C21.9429 13.4574 21.3664 14.1668 20.5761 14.2769Z" fill="url(#paint73_radial_4002_4179)" />
  <path d="M10.9551 12.0266C10.2289 12.1895 9.71486 12.8663 9.7765 13.6294C9.84173 14.437 10.5279 15.0456 11.3282 15.0243C11.1864 14.0247 11.0557 13.0299 10.9551 12.0266Z" fill="url(#paint74_linear_4002_4179)" />
  <path d="M10.9551 12.0266C10.2289 12.1895 9.71486 12.8663 9.7765 13.6294C9.84173 14.437 10.5279 15.0456 11.3282 15.0243C11.1864 14.0247 11.0557 13.0299 10.9551 12.0266Z" fill="url(#paint75_radial_4002_4179)" />
  <g filter="url(#filter17_f_4002_4179)">
    <path d="M11.0211 12.6468C10.6272 12.7691 10.3565 13.1515 10.391 13.5798C10.4279 14.0355 10.7977 14.3845 11.2422 14.4072C11.162 13.8206 11.087 13.2346 11.0211 12.6468Z" fill="#DD8224" />
  </g>
  <g filter="url(#filter18_f_4002_4179)">
    <path d="M20.5643 13.6621C20.5523 13.0627 20.5392 12.4636 20.5237 11.8644C20.9712 11.8839 21.3445 12.2341 21.3815 12.6921C21.4214 13.1854 21.0561 13.6179 20.5643 13.6621Z" fill="#FFC837" />
  </g>
  <g filter="url(#filter19_f_4002_4179)">
    <path d="M12.463 11.0057C12.6906 10.8129 13.2681 10.4594 13.99 10.5216" stroke="#C96953" stroke-width="0.25" stroke-linecap="round" />
  </g>
  <g filter="url(#filter20_f_4002_4179)">
    <path d="M18.9782 10.4359C18.7226 10.2821 18.0957 10.0258 17.3932 10.2031" stroke="#C96953" stroke-width="0.25" stroke-linecap="round" />
  </g>
  <g filter="url(#filter21_f_4002_4179)">
    <path d="M3.15607 14.6064C3.44946 15.0583 4.27775 15.8643 5.58747 15.8643" stroke="url(#paint76_linear_4002_4179)" stroke-width="0.6" stroke-linecap="round" />
  </g>
  <g filter="url(#filter22_f_4002_4179)">
    <ellipse cx="16.031" cy="16.3864" rx="0.74003" ry="0.731624" stroke="url(#paint77_linear_4002_4179)" stroke-width="0.2" />
  </g>
  <ellipse cx="16.031" cy="16.3864" rx="0.74003" ry="0.731624" fill="#88004D" />
  <g filter="url(#filter23_f_4002_4179)">
    <path d="M9.56232 25.6924C9.7394 24.5465 10.5186 21.8111 12.2186 20.0361" stroke="url(#paint78_linear_4002_4179)" stroke-width="0.4" stroke-linecap="round" />
  </g>
  <defs>
    <filter id="filter0_f_4002_4179" x="3.20624" y="11.4658" width="3.65204" height="3.13892" filterUnits="userSpaceOnUse" color-interpolation-filters="sRGB">
      <feFlood flood-opacity="0" result="BackgroundImageFix" />
      <feBlend mode="normal" in="SourceGraphic" in2="BackgroundImageFix" result="shape" />
      <feGaussianBlur stdDeviation="0.25" result="effect1_foregroundBlur_4002_4179" />
    </filter>
    <filter id="filter1_f_4002_4179" x="2.12762" y="11.7458" width="3.72723" height="3.32324" filterUnits="userSpaceOnUse" color-interpolation-filters="sRGB">
      <feFlood flood-opacity="0" result="BackgroundImageFix" />
      <feBlend mode="normal" in="SourceGraphic" in2="BackgroundImageFix" result="shape" />
      <feGaussianBlur stdDeviation="0.25" result="effect1_foregroundBlur_4002_4179" />
    </filter>
    <filter id="filter2_f_4002_4179" x="2.05774" y="12.7551" width="3.86713" height="3.13452" filterUnits="userSpaceOnUse" color-interpolation-filters="sRGB">
      <feFlood flood-opacity="0" result="BackgroundImageFix" />
      <feBlend mode="normal" in="SourceGraphic" in2="BackgroundImageFix" result="shape" />
      <feGaussianBlur stdDeviation="0.25" result="effect1_foregroundBlur_4002_4179" />
    </filter>
    <filter id="filter3_i_4002_4179" x="23.7389" y="11.5312" width="3.40781" height="5.15625" filterUnits="userSpaceOnUse" color-interpolation-filters="sRGB">
      <feFlood flood-opacity="0" result="BackgroundImageFix" />
      <feBlend mode="normal" in="SourceGraphic" in2="BackgroundImageFix" result="shape" />
      <feColorMatrix in="SourceAlpha" type="matrix" values="0 0 0 0 0 0 0 0 0 0 0 0 0 0 0 0 0 0 127 0" result="hardAlpha" />
      <feOffset dx="0.15" />
      <feGaussianBlur stdDeviation="0.2" />
      <feComposite in2="hardAlpha" operator="arithmetic" k2="-1" k3="1" />
      <feColorMatrix type="matrix" values="0 0 0 0 0.843137 0 0 0 0 0.611765 0 0 0 0 0.25098 0 0 0 1 0" />
      <feBlend mode="normal" in2="shape" result="effect1_innerShadow_4002_4179" />
    </filter>
    <filter id="filter4_i_4002_4179" x="4.48407" y="16.6604" width="23.1068" height="13.4226" filterUnits="userSpaceOnUse" color-interpolation-filters="sRGB">
      <feFlood flood-opacity="0" result="BackgroundImageFix" />
      <feBlend mode="normal" in="SourceGraphic" in2="BackgroundImageFix" result="shape" />
      <feColorMatrix in="SourceAlpha" type="matrix" values="0 0 0 0 0 0 0 0 0 0 0 0 0 0 0 0 0 0 127 0" result="hardAlpha" />
      <feOffset dy="-0.25" />
      <feGaussianBlur stdDeviation="0.25" />
      <feComposite in2="hardAlpha" operator="arithmetic" k2="-1" k3="1" />
      <feColorMatrix type="matrix" values="0 0 0 0 0.894118 0 0 0 0 0.294118 0 0 0 0 0.388235 0 0 0 1 0" />
      <feBlend mode="normal" in2="shape" result="effect1_innerShadow_4002_4179" />
    </filter>
    <filter id="filter5_ii_4002_4179" x="10.8649" y="7.62134" width="10.4859" height="11.8536" filterUnits="userSpaceOnUse" color-interpolation-filters="sRGB">
      <feFlood flood-opacity="0" result="BackgroundImageFix" />
      <feBlend mode="normal" in="SourceGraphic" in2="BackgroundImageFix" result="shape" />
      <feColorMatrix in="SourceAlpha" type="matrix" values="0 0 0 0 0 0 0 0 0 0 0 0 0 0 0 0 0 0 127 0" result="hardAlpha" />
      <feOffset dx="0.75" />
      <feGaussianBlur stdDeviation="0.6" />
      <feComposite in2="hardAlpha" operator="arithmetic" k2="-1" k3="1" />
      <feColorMatrix type="matrix" values="0 0 0 0 0.823529 0 0 0 0 0.623529 0 0 0 0 0.313726 0 0 0 1 0" />
      <feBlend mode="normal" in2="shape" result="effect1_innerShadow_4002_4179" />
      <feColorMatrix in="SourceAlpha" type="matrix" values="0 0 0 0 0 0 0 0 0 0 0 0 0 0 0 0 0 0 127 0" result="hardAlpha" />
      <feOffset dy="0.2" />
      <feGaussianBlur stdDeviation="0.375" />
      <feComposite in2="hardAlpha" operator="arithmetic" k2="-1" k3="1" />
      <feColorMatrix type="matrix" values="0 0 0 0 0.980392 0 0 0 0 0.54902 0 0 0 0 0.0941176 0 0 0 1 0" />
      <feBlend mode="normal" in2="effect1_innerShadow_4002_4179" result="effect2_innerShadow_4002_4179" />
    </filter>
    <filter id="filter6_f_4002_4179" x="13.8817" y="11.6262" width="3.76843" height="4.7627" filterUnits="userSpaceOnUse" color-interpolation-filters="sRGB">
      <feFlood flood-opacity="0" result="BackgroundImageFix" />
      <feBlend mode="normal" in="SourceGraphic" in2="BackgroundImageFix" result="shape" />
      <feGaussianBlur stdDeviation="0.5" result="effect1_foregroundBlur_4002_4179" />
    </filter>
    <filter id="filter7_f_4002_4179" x="14.9617" y="12.3299" width="1.96843" height="2.95903" filterUnits="userSpaceOnUse" color-interpolation-filters="sRGB">
      <feFlood flood-opacity="0" result="BackgroundImageFix" />
      <feBlend mode="normal" in="SourceGraphic" in2="BackgroundImageFix" result="shape" />
      <feGaussianBlur stdDeviation="0.05" result="effect1_foregroundBlur_4002_4179" />
    </filter>
    <filter id="filter8_ii_4002_4179" x="9.45422" y="4.45093" width="12.1162" height="8.44482" filterUnits="userSpaceOnUse" color-interpolation-filters="sRGB">
      <feFlood flood-opacity="0" result="BackgroundImageFix" />
      <feBlend mode="normal" in="SourceGraphic" in2="BackgroundImageFix" result="shape" />
      <feColorMatrix in="SourceAlpha" type="matrix" values="0 0 0 0 0 0 0 0 0 0 0 0 0 0 0 0 0 0 127 0" result="hardAlpha" />
      <feOffset dy="-0.5" />
      <feGaussianBlur stdDeviation="0.625" />
      <feComposite in2="hardAlpha" operator="arithmetic" k2="-1" k3="1" />
      <feColorMatrix type="matrix" values="0 0 0 0 0.945098 0 0 0 0 0.509804 0 0 0 0 0.0627451 0 0 0 1 0" />
      <feBlend mode="normal" in2="shape" result="effect1_innerShadow_4002_4179" />
      <feColorMatrix in="SourceAlpha" type="matrix" values="0 0 0 0 0 0 0 0 0 0 0 0 0 0 0 0 0 0 127 0" result="hardAlpha" />
      <feOffset dy="-0.2" />
      <feGaussianBlur stdDeviation="0.2" />
      <feComposite in2="hardAlpha" operator="arithmetic" k2="-1" k3="1" />
      <feColorMatrix type="matrix" values="0 0 0 0 0.862745 0 0 0 0 0.486275 0 0 0 0 0.0470588 0 0 0 1 0" />
      <feBlend mode="normal" in2="effect1_innerShadow_4002_4179" result="effect2_innerShadow_4002_4179" />
    </filter>
    <filter id="filter9_i_4002_4179" x="17.0995" y="9.72651" width="2.23702" height="1.05107" filterUnits="userSpaceOnUse" color-interpolation-filters="sRGB">
      <feFlood flood-opacity="0" result="BackgroundImageFix" />
      <feBlend mode="normal" in="SourceGraphic" in2="BackgroundImageFix" result="shape" />
      <feColorMatrix in="SourceAlpha" type="matrix" values="0 0 0 0 0 0 0 0 0 0 0 0 0 0 0 0 0 0 127 0" result="hardAlpha" />
      <feOffset dx="0.1" dy="-0.2" />
      <feGaussianBlur stdDeviation="0.125" />
      <feComposite in2="hardAlpha" operator="arithmetic" k2="-1" k3="1" />
      <feColorMatrix type="matrix" values="0 0 0 0 0.603922 0 0 0 0 0.243137 0 0 0 0 0.152941 0 0 0 1 0" />
      <feBlend mode="normal" in2="shape" result="effect1_innerShadow_4002_4179" />
    </filter>
    <filter id="filter10_i_4002_4179" x="12.1887" y="10.0734" width="2.17587" height="1.23125" filterUnits="userSpaceOnUse" color-interpolation-filters="sRGB">
      <feFlood flood-opacity="0" result="BackgroundImageFix" />
      <feBlend mode="normal" in="SourceGraphic" in2="BackgroundImageFix" result="shape" />
      <feColorMatrix in="SourceAlpha" type="matrix" values="0 0 0 0 0 0 0 0 0 0 0 0 0 0 0 0 0 0 127 0" result="hardAlpha" />
      <feOffset dx="0.1" dy="-0.2" />
      <feGaussianBlur stdDeviation="0.125" />
      <feComposite in2="hardAlpha" operator="arithmetic" k2="-1" k3="1" />
      <feColorMatrix type="matrix" values="0 0 0 0 0.603922 0 0 0 0 0.243137 0 0 0 0 0.152941 0 0 0 1 0" />
      <feBlend mode="normal" in2="shape" result="effect1_innerShadow_4002_4179" />
    </filter>
    <filter id="filter11_f_4002_4179" x="9.82545" y="5.6269" width="6.01823" height="5.90244" filterUnits="userSpaceOnUse" color-interpolation-filters="sRGB">
      <feFlood flood-opacity="0" result="BackgroundImageFix" />
      <feBlend mode="normal" in="SourceGraphic" in2="BackgroundImageFix" result="shape" />
      <feGaussianBlur stdDeviation="0.1" result="effect1_foregroundBlur_4002_4179" />
    </filter>
    <filter id="filter12_f_4002_4179" x="15.0028" y="5.68604" width="6.5722" height="5.58374" filterUnits="userSpaceOnUse" color-interpolation-filters="sRGB">
      <feFlood flood-opacity="0" result="BackgroundImageFix" />
      <feBlend mode="normal" in="SourceGraphic" in2="BackgroundImageFix" result="shape" />
      <feGaussianBlur stdDeviation="0.25" result="effect1_foregroundBlur_4002_4179" />
    </filter>
    <filter id="filter13_f_4002_4179" x="17.1356" y="11.9581" width="0.729358" height="0.693408" filterUnits="userSpaceOnUse" color-interpolation-filters="sRGB">
      <feFlood flood-opacity="0" result="BackgroundImageFix" />
      <feBlend mode="normal" in="SourceGraphic" in2="BackgroundImageFix" result="shape" />
      <feGaussianBlur stdDeviation="0.05" result="effect1_foregroundBlur_4002_4179" />
    </filter>
    <filter id="filter14_f_4002_4179" x="17.9257" y="11.9653" width="0.875281" height="0.893408" filterUnits="userSpaceOnUse" color-interpolation-filters="sRGB">
      <feFlood flood-opacity="0" result="BackgroundImageFix" />
      <feBlend mode="normal" in="SourceGraphic" in2="BackgroundImageFix" result="shape" />
      <feGaussianBlur stdDeviation="0.1" result="effect1_foregroundBlur_4002_4179" />
    </filter>
    <filter id="filter15_f_4002_4179" x="13.7437" y="12.2412" width="0.969519" height="1.00864" filterUnits="userSpaceOnUse" color-interpolation-filters="sRGB">
      <feFlood flood-opacity="0" result="BackgroundImageFix" />
      <feBlend mode="normal" in="SourceGraphic" in2="BackgroundImageFix" result="shape" />
      <feGaussianBlur stdDeviation="0.1" result="effect1_foregroundBlur_4002_4179" />
    </filter>
    <filter id="filter16_f_4002_4179" x="13.0383" y="12.2735" width="0.849658" height="0.703418" filterUnits="userSpaceOnUse" color-interpolation-filters="sRGB">
      <feFlood flood-opacity="0" result="BackgroundImageFix" />
      <feBlend mode="normal" in="SourceGraphic" in2="BackgroundImageFix" result="shape" />
      <feGaussianBlur stdDeviation="0.05" result="effect1_foregroundBlur_4002_4179" />
    </filter>
    <filter id="filter17_f_4002_4179" x="10.1381" y="12.3967" width="1.35413" height="2.2605" filterUnits="userSpaceOnUse" color-interpolation-filters="sRGB">
      <feFlood flood-opacity="0" result="BackgroundImageFix" />
      <feBlend mode="normal" in="SourceGraphic" in2="BackgroundImageFix" result="shape" />
      <feGaussianBlur stdDeviation="0.125" result="effect1_foregroundBlur_4002_4179" />
    </filter>
    <filter id="filter18_f_4002_4179" x="20.2737" y="11.6145" width="1.36078" height="2.29761" filterUnits="userSpaceOnUse" color-interpolation-filters="sRGB">
      <feFlood flood-opacity="0" result="BackgroundImageFix" />
      <feBlend mode="normal" in="SourceGraphic" in2="BackgroundImageFix" result="shape" />
      <feGaussianBlur stdDeviation="0.125" result="effect1_foregroundBlur_4002_4179" />
    </filter>
    <filter id="filter19_f_4002_4179" x="12.088" y="10.1394" width="2.2771" height="1.24146" filterUnits="userSpaceOnUse" color-interpolation-filters="sRGB">
      <feFlood flood-opacity="0" result="BackgroundImageFix" />
      <feBlend mode="normal" in="SourceGraphic" in2="BackgroundImageFix" result="shape" />
      <feGaussianBlur stdDeviation="0.125" result="effect1_foregroundBlur_4002_4179" />
    </filter>
    <filter id="filter20_f_4002_4179" x="17.0182" y="9.76807" width="2.33502" height="1.04297" filterUnits="userSpaceOnUse" color-interpolation-filters="sRGB">
      <feFlood flood-opacity="0" result="BackgroundImageFix" />
      <feBlend mode="normal" in="SourceGraphic" in2="BackgroundImageFix" result="shape" />
      <feGaussianBlur stdDeviation="0.125" result="effect1_foregroundBlur_4002_4179" />
    </filter>
    <filter id="filter21_f_4002_4179" x="2.35602" y="13.8064" width="4.03143" height="2.85791" filterUnits="userSpaceOnUse" color-interpolation-filters="sRGB">
      <feFlood flood-opacity="0" result="BackgroundImageFix" />
      <feBlend mode="normal" in="SourceGraphic" in2="BackgroundImageFix" result="shape" />
      <feGaussianBlur stdDeviation="0.25" result="effect1_foregroundBlur_4002_4179" />
    </filter>
    <filter id="filter22_f_4002_4179" x="15.091" y="15.4547" width="1.88005" height="1.86333" filterUnits="userSpaceOnUse" color-interpolation-filters="sRGB">
      <feFlood flood-opacity="0" result="BackgroundImageFix" />
      <feBlend mode="normal" in="SourceGraphic" in2="BackgroundImageFix" result="shape" />
      <feGaussianBlur stdDeviation="0.05" result="effect1_foregroundBlur_4002_4179" />
    </filter>
    <filter id="filter23_f_4002_4179" x="8.5623" y="19.0362" width="4.65627" height="7.65615" filterUnits="userSpaceOnUse" color-interpolation-filters="sRGB">
      <feFlood flood-opacity="0" result="BackgroundImageFix" />
      <feBlend mode="normal" in="SourceGraphic" in2="BackgroundImageFix" result="shape" />
      <feGaussianBlur stdDeviation="0.4" result="effect1_foregroundBlur_4002_4179" />
    </filter>
    <linearGradient id="paint0_linear_4002_4179" x1="3.02013" y1="11.3672" x2="5.01943" y2="13.7042" gradientUnits="userSpaceOnUse">
      <stop stop-color="#EA9C30" />
      <stop offset="1" stop-color="#E0A32A" />
    </linearGradient>
    <radialGradient id="paint1_radial_4002_4179" cx="0" cy="0" r="1" gradientUnits="userSpaceOnUse" gradientTransform="translate(5.04665 12.3499) rotate(160.563) scale(1.8701 4.54015)">
      <stop offset="0.52464" stop-color="#CD9143" stop-opacity="0" />
      <stop offset="0.901758" stop-color="#CD9143" />
    </radialGradient>
    <linearGradient id="paint2_linear_4002_4179" x1="4.2027" y1="12.1164" x2="6.61286" y2="14.3303" gradientUnits="userSpaceOnUse">
      <stop stop-color="#FFBA34" />
      <stop offset="1" stop-color="#FFBA34" stop-opacity="0" />
    </linearGradient>
    <linearGradient id="paint3_linear_4002_4179" x1="2.1474" y1="12.2154" x2="5.13556" y2="13.3814" gradientUnits="userSpaceOnUse">
      <stop stop-color="#EA9C30" />
      <stop offset="0.987535" stop-color="#E0A32A" />
    </linearGradient>
    <radialGradient id="paint4_radial_4002_4179" cx="0" cy="0" r="1" gradientUnits="userSpaceOnUse" gradientTransform="translate(3.65779 12.725) rotate(136.506) scale(1.61772 4.05037)">
      <stop offset="0.52464" stop-color="#CD9143" stop-opacity="0" />
      <stop offset="0.901758" stop-color="#CD9143" />
    </radialGradient>
    <linearGradient id="paint5_linear_4002_4179" x1="3.13916" y1="12.4898" x2="5.54932" y2="14.7036" gradientUnits="userSpaceOnUse">
      <stop stop-color="#FFBA34" />
      <stop offset="1" stop-color="#FFBA34" stop-opacity="0" />
    </linearGradient>
    <linearGradient id="paint6_linear_4002_4179" x1="1.95297" y1="12.7079" x2="6.68735" y2="14.8016" gradientUnits="userSpaceOnUse">
      <stop stop-color="#EA9C30" />
      <stop offset="0.709319" stop-color="#E0A32A" />
    </linearGradient>
    <radialGradient id="paint7_radial_4002_4179" cx="0" cy="0" r="1" gradientUnits="userSpaceOnUse" gradientTransform="translate(3.86343 13.6702) rotate(139.057) scale(1.68109 3.24272)">
      <stop offset="0.603648" stop-color="#CD9143" stop-opacity="0" />
      <stop offset="0.924703" stop-color="#CD9143" />
    </radialGradient>
    <linearGradient id="paint8_linear_4002_4179" x1="3.06362" y1="13.4811" x2="5.65481" y2="15.4801" gradientUnits="userSpaceOnUse">
      <stop stop-color="#FFBA34" />
      <stop offset="1" stop-color="#FFBA34" stop-opacity="0" />
    </linearGradient>
    <linearGradient id="paint9_linear_4002_4179" x1="3.17172" y1="15.286" x2="5.9686" y2="15.286" gradientUnits="userSpaceOnUse">
      <stop stop-color="#EA9C30" />
      <stop offset="1" stop-color="#E0A32A" />
    </linearGradient>
    <radialGradient id="paint10_radial_4002_4179" cx="0" cy="0" r="1" gradientUnits="userSpaceOnUse" gradientTransform="translate(4.88935 13.8216) rotate(37.355) scale(1.78792 1.12963)">
      <stop stop-color="#E9A92E" />
      <stop offset="1" stop-color="#E9A92E" stop-opacity="0" />
    </radialGradient>
    <linearGradient id="paint11_linear_4002_4179" x1="7.63925" y1="16.6875" x2="7.63925" y2="15.9324" gradientUnits="userSpaceOnUse">
      <stop stop-color="#F0A330" />
      <stop offset="1" stop-color="#F0A330" stop-opacity="0" />
    </linearGradient>
    <linearGradient id="paint12_linear_4002_4179" x1="8.69884" y1="15.7642" x2="7.85789" y2="15.7642" gradientUnits="userSpaceOnUse">
      <stop offset="0.00547168" stop-color="#D6933E" />
      <stop offset="1" stop-color="#D6933E" stop-opacity="0" />
    </linearGradient>
    <radialGradient id="paint13_radial_4002_4179" cx="0" cy="0" r="1" gradientUnits="userSpaceOnUse" gradientTransform="translate(7.00013 11.5312) rotate(120.958) scale(1.01355 1.1912)">
      <stop stop-color="#EAA82A" />
      <stop offset="1" stop-color="#EAA82A" stop-opacity="0" />
    </radialGradient>
    <radialGradient id="paint14_radial_4002_4179" cx="0" cy="0" r="1" gradientUnits="userSpaceOnUse" gradientTransform="translate(6.28107 16.3172) rotate(174.245) scale(2.02583 0.817883)">
      <stop offset="0.20345" stop-color="#F4A82E" />
      <stop offset="1" stop-color="#F4A82E" stop-opacity="0" />
    </radialGradient>
    <linearGradient id="paint15_linear_4002_4179" x1="23.1968" y1="15.6633" x2="25.6523" y2="15.6633" gradientUnits="userSpaceOnUse">
      <stop stop-color="#F4A421" />
      <stop offset="1" stop-color="#F4A421" stop-opacity="0" />
    </linearGradient>
    <linearGradient id="paint16_linear_4002_4179" x1="28.2108" y1="12.5594" x2="26.0735" y2="14.2609" gradientUnits="userSpaceOnUse">
      <stop stop-color="#FFB620" />
      <stop offset="1" stop-color="#FFD02E" />
    </linearGradient>
    <radialGradient id="paint17_radial_4002_4179" cx="0" cy="0" r="1" gradientUnits="userSpaceOnUse" gradientTransform="translate(28.8842 12.1054) rotate(137.523) scale(1.18214 1.08071)">
      <stop stop-color="#FFDB42" />
      <stop offset="1" stop-color="#FFDB42" stop-opacity="0" />
    </radialGradient>
    <radialGradient id="paint18_radial_4002_4179" cx="0" cy="0" r="1" gradientUnits="userSpaceOnUse" gradientTransform="translate(26.1952 12.3172) rotate(38.1572) scale(2.50376 5.64399)">
      <stop offset="0.674553" stop-color="#E6B03B" stop-opacity="0" />
      <stop offset="0.926996" stop-color="#E6B03B" />
    </radialGradient>
    <radialGradient id="paint19_radial_4002_4179" cx="0" cy="0" r="1" gradientUnits="userSpaceOnUse" gradientTransform="translate(27.8592 13.536) rotate(-138.24) scale(1.17302 1.32995)">
      <stop stop-color="#EEA324" />
      <stop offset="1" stop-color="#EEA324" stop-opacity="0" />
    </radialGradient>
    <linearGradient id="paint20_linear_4002_4179" x1="29.1014" y1="13.1219" x2="26.5786" y2="14.8141" gradientUnits="userSpaceOnUse">
      <stop stop-color="#FFB620" />
      <stop offset="1" stop-color="#FFD02E" />
    </linearGradient>
    <radialGradient id="paint21_radial_4002_4179" cx="0" cy="0" r="1" gradientUnits="userSpaceOnUse" gradientTransform="translate(29.9287 12.4554) rotate(131.73) scale(1.16966 1.06648)">
      <stop stop-color="#FFDB42" />
      <stop offset="1" stop-color="#FFDB42" stop-opacity="0" />
    </radialGradient>
    <radialGradient id="paint22_radial_4002_4179" cx="0" cy="0" r="1" gradientUnits="userSpaceOnUse" gradientTransform="translate(28.158 13.4139) rotate(48.8311) scale(1.64887 6.81453)">
      <stop offset="0.555533" stop-color="#E6B03B" stop-opacity="0" />
      <stop offset="0.912113" stop-color="#E6B03B" />
    </radialGradient>
    <radialGradient id="paint23_radial_4002_4179" cx="0" cy="0" r="1" gradientUnits="userSpaceOnUse" gradientTransform="translate(28.958 14.0215) rotate(-134.288) scale(1.55128 1.67148)">
      <stop stop-color="#EEA324" />
      <stop offset="1" stop-color="#EEA324" stop-opacity="0" />
    </radialGradient>
    <linearGradient id="paint24_linear_4002_4179" x1="29.3804" y1="15.2041" x2="26.6107" y2="15.1598" gradientUnits="userSpaceOnUse">
      <stop stop-color="#FFB620" />
      <stop offset="1" stop-color="#FFD02E" />
    </linearGradient>
    <radialGradient id="paint25_radial_4002_4179" cx="0" cy="0" r="1" gradientUnits="userSpaceOnUse" gradientTransform="translate(27.9061 14.286) rotate(40.2001) scale(1.45245 4.92664)">
      <stop offset="0.715311" stop-color="#E6B03B" stop-opacity="0" />
      <stop offset="1" stop-color="#E6B03B" />
    </radialGradient>
    <radialGradient id="paint26_radial_4002_4179" cx="0" cy="0" r="1" gradientUnits="userSpaceOnUse" gradientTransform="translate(29.9453 13.4293) rotate(138.972) scale(1.18852 1.0803)">
      <stop stop-color="#FFDB42" />
      <stop offset="1" stop-color="#FFDB42" stop-opacity="0" />
    </radialGradient>
    <radialGradient id="paint27_radial_4002_4179" cx="0" cy="0" r="1" gradientUnits="userSpaceOnUse" gradientTransform="translate(28.8912 14.8274) rotate(-137.781) scale(1.45679 1.64014)">
      <stop stop-color="#EEA324" />
      <stop offset="1" stop-color="#EEA324" stop-opacity="0" />
    </radialGradient>
    <linearGradient id="paint28_linear_4002_4179" x1="29.0666" y1="15.9828" x2="26.2915" y2="15.9324" gradientUnits="userSpaceOnUse">
      <stop stop-color="#FFB620" />
      <stop offset="1" stop-color="#FFD02E" />
    </linearGradient>
    <radialGradient id="paint29_radial_4002_4179" cx="0" cy="0" r="1" gradientUnits="userSpaceOnUse" gradientTransform="translate(27.3749 14.7704) rotate(68.4563) scale(1.99987 3.99753)">
      <stop offset="0.700138" stop-color="#E08F52" stop-opacity="0" />
      <stop offset="1" stop-color="#E08F52" />
    </radialGradient>
    <radialGradient id="paint30_radial_4002_4179" cx="0" cy="0" r="1" gradientUnits="userSpaceOnUse" gradientTransform="translate(29.6327 14.4188) rotate(142.576) scale(1.1313 1.00216)">
      <stop stop-color="#FFDB42" />
      <stop offset="1" stop-color="#FFDB42" stop-opacity="0" />
    </radialGradient>
    <radialGradient id="paint31_radial_4002_4179" cx="0" cy="0" r="1" gradientUnits="userSpaceOnUse" gradientTransform="translate(26.4686 17.0205) rotate(180) scale(2.59375 2.7696)">
      <stop stop-color="#FE7047" />
      <stop offset="1" stop-color="#DC4724" />
    </radialGradient>
    <radialGradient id="paint32_radial_4002_4179" cx="0" cy="0" r="1" gradientUnits="userSpaceOnUse" gradientTransform="translate(7.20294 16.6064) rotate(90) scale(0.71875 1.32031)">
      <stop stop-color="#D45533" />
      <stop offset="1" stop-color="#CC4525" />
    </radialGradient>
    <radialGradient id="paint33_radial_4002_4179" cx="0" cy="0" r="1" gradientUnits="userSpaceOnUse" gradientTransform="translate(19.7811 29.3486) rotate(-90) scale(13.75 8.9375)">
      <stop offset="0.154545" stop-color="#FF7E34" />
      <stop offset="1" stop-color="#F05419" />
    </radialGradient>
    <radialGradient id="paint34_radial_4002_4179" cx="0" cy="0" r="1" gradientUnits="userSpaceOnUse" gradientTransform="translate(9.8436 19.9736) rotate(132.137) scale(4.75104 1.17962)">
      <stop stop-color="#FF6F3A" />
      <stop offset="1" stop-color="#FF6F3A" stop-opacity="0" />
    </radialGradient>
    <radialGradient id="paint35_radial_4002_4179" cx="0" cy="0" r="1" gradientUnits="userSpaceOnUse" gradientTransform="translate(19.9998 20.3798) rotate(31.7014) scale(6.24414 1.7784)">
      <stop stop-color="#FF7E32" />
      <stop offset="1" stop-color="#FF7E32" stop-opacity="0" />
    </radialGradient>
    <radialGradient id="paint36_radial_4002_4179" cx="0" cy="0" r="1" gradientUnits="userSpaceOnUse" gradientTransform="translate(24.3436 26.1923) rotate(-124.363) scale(4.42924 1.56352)">
      <stop stop-color="#FB4B61" />
      <stop offset="1" stop-color="#FF4412" stop-opacity="0" />
      <stop offset="1" stop-color="#FB4B61" stop-opacity="0" />
    </radialGradient>
    <radialGradient id="paint37_radial_4002_4179" cx="0" cy="0" r="1" gradientUnits="userSpaceOnUse" gradientTransform="translate(26.8748 16.9104) rotate(90) scale(7.46944 4.08022)">
      <stop stop-color="#FF8A36" />
      <stop offset="1" stop-color="#FF8A36" stop-opacity="0" />
    </radialGradient>
    <radialGradient id="paint38_radial_4002_4179" cx="0" cy="0" r="1" gradientUnits="userSpaceOnUse" gradientTransform="translate(13.5936 18.4423) rotate(149.436) scale(4.60914 2.83955)">
      <stop offset="0.221247" stop-color="#C94829" />
      <stop offset="1" stop-color="#C94829" stop-opacity="0" />
    </radialGradient>
    <linearGradient id="paint39_linear_4002_4179" x1="15.0311" y1="19.6923" x2="16.9654" y2="21.3083" gradientUnits="userSpaceOnUse">
      <stop stop-color="#DA7E19" />
      <stop offset="1" stop-color="#FFC63B" />
    </linearGradient>
    <radialGradient id="paint40_radial_4002_4179" cx="0" cy="0" r="1" gradientUnits="userSpaceOnUse" gradientTransform="translate(21.1344 13.8539) rotate(99.0611) scale(3.07501 3.65288)">
      <stop offset="0.0431525" stop-color="#FFC135" />
      <stop offset="0.909006" stop-color="#E26839" />
    </radialGradient>
    <radialGradient id="paint41_radial_4002_4179" cx="0" cy="0" r="1" gradientUnits="userSpaceOnUse" gradientTransform="translate(20.4536 14.1627) rotate(49.2838) scale(0.469553 0.398893)">
      <stop stop-color="#E18C2A" />
      <stop offset="1" stop-color="#E18C2A" stop-opacity="0" />
    </radialGradient>
    <radialGradient id="paint42_radial_4002_4179" cx="0" cy="0" r="1" gradientUnits="userSpaceOnUse" gradientTransform="translate(10.7121 14.8066) rotate(59.9744) scale(2.80019 1.27281)">
      <stop stop-color="#D57A26" />
      <stop offset="1" stop-color="#D06A3C" />
    </radialGradient>
    <radialGradient id="paint43_radial_4002_4179" cx="0" cy="0" r="1" gradientUnits="userSpaceOnUse" gradientTransform="translate(11.3339 14.7485) rotate(67.6724) scale(0.987394 0.866149)">
      <stop offset="0.263377" stop-color="#BE691E" />
      <stop offset="0.977292" stop-color="#BE691E" stop-opacity="0" />
    </radialGradient>
    <radialGradient id="paint44_radial_4002_4179" cx="0" cy="0" r="1" gradientUnits="userSpaceOnUse" gradientTransform="translate(18.4869 13.1771) rotate(175.382) scale(4.93064 8.72226)">
      <stop stop-color="#FFE846" />
      <stop offset="1" stop-color="#F5A129" />
    </radialGradient>
    <radialGradient id="paint45_radial_4002_4179" cx="0" cy="0" r="1" gradientUnits="userSpaceOnUse" gradientTransform="translate(16.1462 19.3608) rotate(-94.6179) scale(3.19334 12.4224)">
      <stop offset="0.0824176" stop-color="#E27426" />
      <stop offset="1" stop-color="#FFA041" stop-opacity="0" />
    </radialGradient>
    <radialGradient id="paint46_radial_4002_4179" cx="0" cy="0" r="1" gradientUnits="userSpaceOnUse" gradientTransform="translate(20.678 12.7809) rotate(89.1566) scale(5.76753 2.12039)">
      <stop offset="0.389903" stop-color="#FFD930" />
      <stop offset="1" stop-color="#FFD930" stop-opacity="0" />
    </radialGradient>
    <radialGradient id="paint47_radial_4002_4179" cx="0" cy="0" r="1" gradientUnits="userSpaceOnUse" gradientTransform="translate(13.7916 12.4394) rotate(-94.6179) scale(1.33348 1.60544)">
      <stop offset="0.276316" stop-color="#F59632" />
      <stop offset="1" stop-color="#F59632" stop-opacity="0" />
    </radialGradient>
    <radialGradient id="paint48_radial_4002_4179" cx="0" cy="0" r="1" gradientUnits="userSpaceOnUse" gradientTransform="translate(18.066 11.7047) rotate(-94.6179) scale(1.44796 1.87805)">
      <stop offset="0.178218" stop-color="#FFBE3A" />
      <stop offset="1" stop-color="#FFBE3A" stop-opacity="0" />
    </radialGradient>
    <linearGradient id="paint49_linear_4002_4179" x1="15.9103" y1="14.1692" x2="16.7139" y2="14.1043" gradientUnits="userSpaceOnUse">
      <stop stop-color="#FFC92F" />
      <stop offset="1" stop-color="#FFEA47" />
    </linearGradient>
    <linearGradient id="paint50_linear_4002_4179" x1="14.89" y1="14.1044" x2="15.9043" y2="14.0786" gradientUnits="userSpaceOnUse">
      <stop stop-color="#F49F22" />
      <stop offset="1" stop-color="#E88830" stop-opacity="0" />
      <stop offset="1" stop-color="#F49F22" stop-opacity="0" />
    </linearGradient>
    <linearGradient id="paint51_linear_4002_4179" x1="15.9406" y1="14.5441" x2="16.0053" y2="15.3449" gradientUnits="userSpaceOnUse">
      <stop stop-color="#E88830" stop-opacity="0" />
      <stop offset="0.844655" stop-color="#E88830" />
    </linearGradient>
    <linearGradient id="paint52_linear_4002_4179" x1="15.7699" y1="12.4312" x2="15.8018" y2="12.8254" gradientUnits="userSpaceOnUse">
      <stop stop-color="#FAC137" />
      <stop offset="1" stop-color="#FAC137" stop-opacity="0" />
    </linearGradient>
    <linearGradient id="paint53_linear_4002_4179" x1="20.4596" y1="7.65961" x2="10.9423" y2="8.42834" gradientUnits="userSpaceOnUse">
      <stop stop-color="#FFE235" />
      <stop offset="1" stop-color="#D29935" />
    </linearGradient>
    <radialGradient id="paint54_radial_4002_4179" cx="0" cy="0" r="1" gradientUnits="userSpaceOnUse" gradientTransform="translate(10.811 12.3002) rotate(-94.6179) scale(5.39385 9.55683)">
      <stop offset="0.314517" stop-color="#C98537" />
      <stop offset="1" stop-color="#C98537" stop-opacity="0" />
    </radialGradient>
    <radialGradient id="paint55_radial_4002_4179" cx="0" cy="0" r="1" gradientUnits="userSpaceOnUse" gradientTransform="translate(20.2968 11.534) rotate(-94.6179) scale(3.42613 6.07043)">
      <stop stop-color="#FFB52A" />
      <stop offset="1" stop-color="#FFB52A" stop-opacity="0" />
    </radialGradient>
    <radialGradient id="paint56_radial_4002_4179" cx="0" cy="0" r="1" gradientUnits="userSpaceOnUse" gradientTransform="translate(19.1111 5.69088) rotate(-163.739) scale(3.28237 1.74808)">
      <stop stop-color="#FFE639" />
      <stop offset="1" stop-color="#FFE639" stop-opacity="0" />
    </radialGradient>
    <radialGradient id="paint57_radial_4002_4179" cx="0" cy="0" r="1" gradientUnits="userSpaceOnUse" gradientTransform="translate(14.2788 4.57451) rotate(53.8473) scale(1.63218 3.77935)">
      <stop offset="0.286771" stop-color="#F3C130" />
      <stop offset="1" stop-color="#F3C130" stop-opacity="0" />
    </radialGradient>
    <radialGradient id="paint58_radial_4002_4179" cx="0" cy="0" r="1" gradientUnits="userSpaceOnUse" gradientTransform="translate(15.463 5.76285) rotate(155.542) scale(3.81706 1.06238)">
      <stop stop-color="#FFDD30" />
      <stop offset="1" stop-color="#FFDC2B" stop-opacity="0" />
    </radialGradient>
    <radialGradient id="paint59_radial_4002_4179" cx="0" cy="0" r="1" gradientUnits="userSpaceOnUse" gradientTransform="translate(10.4808 10.6687) rotate(-62.3423) scale(5.684 6.29729)">
      <stop offset="0.0926981" stop-color="#D67227" />
      <stop offset="0.233498" stop-color="#EF8A23" />
      <stop offset="1" stop-color="#EF8A23" stop-opacity="0" />
    </radialGradient>
    <radialGradient id="paint60_radial_4002_4179" cx="0" cy="0" r="1" gradientUnits="userSpaceOnUse" gradientTransform="translate(18.7234 6.56079) rotate(8.82252) scale(3.24953 1.83418)">
      <stop stop-color="#FFDE38" />
      <stop offset="1" stop-color="#FFDE38" stop-opacity="0" />
    </radialGradient>
    <radialGradient id="paint61_radial_4002_4179" cx="0" cy="0" r="1" gradientUnits="userSpaceOnUse" gradientTransform="translate(20.4766 10.7762) rotate(-124.481) scale(4.02799 2.23482)">
      <stop stop-color="#EB8F29" />
      <stop offset="1" stop-color="#EB8F29" stop-opacity="0" />
    </radialGradient>
    <radialGradient id="paint62_radial_4002_4179" cx="0" cy="0" r="1" gradientUnits="userSpaceOnUse" gradientTransform="translate(19.8768 10.5406) rotate(-125.055) scale(2.40908 1.71695)">
      <stop offset="0.394122" stop-color="#E48421" />
      <stop offset="1" stop-color="#E48421" stop-opacity="0" />
    </radialGradient>
    <radialGradient id="paint63_radial_4002_4179" cx="0" cy="0" r="1" gradientUnits="userSpaceOnUse" gradientTransform="translate(19.8062 6.36282) rotate(161.757) scale(4.60891 5.02836)">
      <stop offset="0.734853" stop-color="#F29415" stop-opacity="0" />
      <stop offset="1" stop-color="#F29415" />
    </radialGradient>
    <radialGradient id="paint64_radial_4002_4179" cx="0" cy="0" r="1" gradientUnits="userSpaceOnUse" gradientTransform="translate(18.5233 6.45403) rotate(101.75) scale(0.498732 3.57223)">
      <stop offset="0.575925" stop-color="#EFBB27" />
      <stop offset="1" stop-color="#EFBB27" stop-opacity="0" />
    </radialGradient>
    <radialGradient id="paint65_radial_4002_4179" cx="0" cy="0" r="1" gradientUnits="userSpaceOnUse" gradientTransform="translate(17.829 12.3632) rotate(85.3821) scale(0.765195 1.21713)">
      <stop offset="0.80198" stop-color="#925C51" />
      <stop offset="1" stop-color="#694B43" />
      <stop offset="1" stop-color="#804D49" />
      <stop offset="1" stop-color="#85534D" />
    </radialGradient>
    <radialGradient id="paint66_radial_4002_4179" cx="0" cy="0" r="1" gradientUnits="userSpaceOnUse" gradientTransform="translate(17.6198 12.4595) rotate(-132.43) scale(0.355889 0.489973)">
      <stop offset="0.765532" stop-color="#FFE6E2" stop-opacity="0" />
      <stop offset="0.966159" stop-color="#FFE6E2" />
    </radialGradient>
    <linearGradient id="paint67_linear_4002_4179" x1="18.5645" y1="12.3548" x2="18.2843" y2="12.5603" gradientUnits="userSpaceOnUse">
      <stop stop-color="#B4948D" />
      <stop offset="1" stop-color="#B4948D" stop-opacity="0" />
    </linearGradient>
    <radialGradient id="paint68_radial_4002_4179" cx="0" cy="0" r="1" gradientUnits="userSpaceOnUse" gradientTransform="translate(13.7265 12.6945) rotate(85.3821) scale(0.765234 1.21719)">
      <stop offset="0.80198" stop-color="#925C51" />
      <stop offset="1" stop-color="#694B43" />
      <stop offset="1" stop-color="#804D49" />
      <stop offset="1" stop-color="#85534D" />
    </radialGradient>
    <linearGradient id="paint69_linear_4002_4179" x1="14.4286" y1="12.6883" x2="14.149" y2="12.8933" gradientUnits="userSpaceOnUse">
      <stop stop-color="#B4948D" />
      <stop offset="1" stop-color="#B4948D" stop-opacity="0" />
    </linearGradient>
    <radialGradient id="paint70_radial_4002_4179" cx="0" cy="0" r="1" gradientUnits="userSpaceOnUse" gradientTransform="translate(13.4489 12.9216) rotate(-90.897) scale(0.464885 0.558811)">
      <stop offset="0.765532" stop-color="#FFE6E2" stop-opacity="0" />
      <stop offset="0.966159" stop-color="#FFE6E2" />
    </radialGradient>
    <linearGradient id="paint71_linear_4002_4179" x1="21.8346" y1="12.1161" x2="20.8653" y2="14.2536" gradientUnits="userSpaceOnUse">
      <stop stop-color="#FFE343" />
      <stop offset="1" stop-color="#FFC136" />
    </linearGradient>
    <radialGradient id="paint72_radial_4002_4179" cx="0" cy="0" r="1" gradientUnits="userSpaceOnUse" gradientTransform="translate(20.1198 12.1912) rotate(69.7296) scale(2.19722 2.09632)">
      <stop offset="0.856273" stop-color="#E1943D" stop-opacity="0" />
      <stop offset="1" stop-color="#E08F2E" />
    </radialGradient>
    <radialGradient id="paint73_radial_4002_4179" cx="0" cy="0" r="1" gradientUnits="userSpaceOnUse" gradientTransform="translate(20.5 12.6759) rotate(-58.5377) scale(1.26163 1.0575)">
      <stop offset="0.663731" stop-color="#FFBD22" />
      <stop offset="1" stop-color="#FFBD22" stop-opacity="0" />
    </radialGradient>
    <linearGradient id="paint74_linear_4002_4179" x1="10.3382" y1="13.7109" x2="11.6994" y2="13.4804" gradientUnits="userSpaceOnUse">
      <stop stop-color="#E39726" />
      <stop offset="1" stop-color="#D9851D" />
    </linearGradient>
    <radialGradient id="paint75_radial_4002_4179" cx="0" cy="0" r="1" gradientUnits="userSpaceOnUse" gradientTransform="translate(10.8439 13.0991) rotate(96.6299) scale(1.99635 1.96259)">
      <stop offset="0.77507" stop-color="#C77937" stop-opacity="0" />
      <stop offset="1" stop-color="#C77937" />
    </radialGradient>
    <linearGradient id="paint76_linear_4002_4179" x1="3.35179" y1="14.5088" x2="6.15959" y2="16.1899" gradientUnits="userSpaceOnUse">
      <stop stop-color="#FFBA34" />
      <stop offset="1" stop-color="#FFBA34" stop-opacity="0" />
    </linearGradient>
    <linearGradient id="paint77_linear_4002_4179" x1="15.6639" y1="17.118" x2="15.9607" y2="16.0125" gradientUnits="userSpaceOnUse">
      <stop stop-color="#FFB63A" />
      <stop offset="1" stop-color="#FFB63A" stop-opacity="0" />
    </linearGradient>
    <linearGradient id="paint78_linear_4002_4179" x1="9.56232" y1="26.1611" x2="12.5623" y2="20.5049" gradientUnits="userSpaceOnUse">
      <stop stop-color="#C13318" />
      <stop offset="1" stop-color="#C13318" stop-opacity="0" />
    </linearGradient>
  </defs>
</svg>